<svg width="182" height="135" viewBox="0 0 182 135" fill="none" xmlns="http://www.w3.org/2000/svg">
    <path d="M59.0078 74.3H53.1578L52.0418 77H49.0538L54.6698 64.4H57.5498L63.1838 77H60.1238L59.0078 74.3ZM58.0898 72.086L56.0918 67.262L54.0938 72.086H58.0898ZM70.1791 67.172C71.3791 67.172 72.3451 67.532 73.0771 68.252C73.8211 68.972 74.1931 70.04 74.1931 71.456V77H71.3851V71.888C71.3851 71.12 71.2171 70.55 70.8811 70.178C70.5451 69.794 70.0591 69.602 69.4231 69.602C68.7151 69.602 68.1511 69.824 67.7311 70.268C67.3111 70.7 67.1011 71.348 67.1011 72.212V77H64.2931V67.316H66.9751V68.45C67.3471 68.042 67.8091 67.73 68.3611 67.514C68.9131 67.286 69.5191 67.172 70.1791 67.172ZM86.8339 67.316V75.38C86.8339 77.156 86.3719 78.476 85.4479 79.34C84.5239 80.204 83.1739 80.636 81.3979 80.636C80.4619 80.636 79.5739 80.522 78.7339 80.294C77.8939 80.066 77.1979 79.736 76.6459 79.304L77.7619 77.288C78.1699 77.624 78.6859 77.888 79.3099 78.08C79.9339 78.284 80.5579 78.386 81.1819 78.386C82.1539 78.386 82.8679 78.164 83.3239 77.72C83.7919 77.288 84.0259 76.628 84.0259 75.74V75.326C83.2939 76.13 82.2739 76.532 80.9659 76.532C80.0779 76.532 79.2619 76.34 78.5179 75.956C77.7859 75.56 77.2039 75.008 76.7719 74.3C76.3399 73.592 76.1239 72.776 76.1239 71.852C76.1239 70.928 76.3399 70.112 76.7719 69.404C77.2039 68.696 77.7859 68.15 78.5179 67.766C79.2619 67.37 80.0779 67.172 80.9659 67.172C82.3699 67.172 83.4379 67.634 84.1699 68.558V67.316H86.8339ZM81.5239 74.228C82.2679 74.228 82.8739 74.012 83.3419 73.58C83.8219 73.136 84.0619 72.56 84.0619 71.852C84.0619 71.144 83.8219 70.574 83.3419 70.142C82.8739 69.698 82.2679 69.476 81.5239 69.476C80.7799 69.476 80.1679 69.698 79.6879 70.142C79.2079 70.574 78.9679 71.144 78.9679 71.852C78.9679 72.56 79.2079 73.136 79.6879 73.58C80.1679 74.012 80.7799 74.228 81.5239 74.228ZM99.2034 67.316V77H96.5394V75.848C96.1674 76.268 95.7234 76.592 95.2074 76.82C94.6914 77.036 94.1334 77.144 93.5334 77.144C92.2614 77.144 91.2534 76.778 90.5094 76.046C89.7654 75.314 89.3934 74.228 89.3934 72.788V67.316H92.2014V72.374C92.2014 73.934 92.8554 74.714 94.1634 74.714C94.8354 74.714 95.3754 74.498 95.7834 74.066C96.1914 73.622 96.3954 72.968 96.3954 72.104V67.316H99.2034ZM101.805 63.644H104.613V77H101.805V63.644ZM111.125 67.172C112.625 67.172 113.777 67.532 114.581 68.252C115.385 68.96 115.787 70.034 115.787 71.474V77H113.159V75.794C112.631 76.694 111.647 77.144 110.207 77.144C109.463 77.144 108.815 77.018 108.263 76.766C107.723 76.514 107.309 76.166 107.021 75.722C106.733 75.278 106.589 74.774 106.589 74.21C106.589 73.31 106.925 72.602 107.597 72.086C108.281 71.57 109.331 71.312 110.747 71.312H112.979C112.979 70.7 112.793 70.232 112.421 69.908C112.049 69.572 111.491 69.404 110.747 69.404C110.231 69.404 109.721 69.488 109.217 69.656C108.725 69.812 108.305 70.028 107.957 70.304L106.949 68.342C107.477 67.97 108.107 67.682 108.839 67.478C109.583 67.274 110.345 67.172 111.125 67.172ZM110.909 75.254C111.389 75.254 111.815 75.146 112.187 74.93C112.559 74.702 112.823 74.372 112.979 73.94V72.95H111.053C109.901 72.95 109.325 73.328 109.325 74.084C109.325 74.444 109.463 74.732 109.739 74.948C110.027 75.152 110.417 75.254 110.909 75.254ZM121.01 68.594C121.346 68.126 121.796 67.772 122.36 67.532C122.936 67.292 123.596 67.172 124.34 67.172V69.764C124.028 69.74 123.818 69.728 123.71 69.728C122.906 69.728 122.276 69.956 121.82 70.412C121.364 70.856 121.136 71.528 121.136 72.428V77H118.328V67.316H121.01V68.594Z" fill="black"/>
    <path d="M60.6702 93.4V106H59.3742V94.552H56.4042V93.4H60.6702ZM68.2361 90.844H69.4061L63.4661 107.8H62.2961L68.2361 90.844ZM78.3154 104.848V106H69.4774V105.082L74.7154 99.952C75.3754 99.304 75.8194 98.746 76.0474 98.278C76.2874 97.798 76.4074 97.318 76.4074 96.838C76.4074 96.094 76.1494 95.518 75.6334 95.11C75.1294 94.69 74.4034 94.48 73.4554 94.48C71.9794 94.48 70.8334 94.948 70.0174 95.884L69.0994 95.092C69.5914 94.516 70.2154 94.072 70.9714 93.76C71.7394 93.448 72.6034 93.292 73.5634 93.292C74.8474 93.292 75.8614 93.598 76.6054 94.21C77.3614 94.81 77.7394 95.638 77.7394 96.694C77.7394 97.342 77.5954 97.966 77.3074 98.566C77.0194 99.166 76.4734 99.856 75.6694 100.636L71.3854 104.848H78.3154ZM87.1188 106.108C86.3988 106.108 85.7328 105.952 85.1208 105.64C84.5088 105.328 84.0108 104.884 83.6268 104.308L84.4188 103.408C85.1148 104.44 86.0208 104.956 87.1368 104.956C88.6968 104.956 89.4768 104.032 89.4768 102.184V94.552H84.8688V93.4H90.7908V102.13C90.7908 103.45 90.4788 104.446 89.8548 105.118C89.2428 105.778 88.3308 106.108 87.1188 106.108ZM97.8284 96.46C99.0644 96.46 100.012 96.772 100.672 97.396C101.332 98.008 101.662 98.92 101.662 100.132V106H100.438V104.524C100.15 105.016 99.7244 105.4 99.1604 105.676C98.6084 105.952 97.9484 106.09 97.1804 106.09C96.1244 106.09 95.2844 105.838 94.6604 105.334C94.0364 104.83 93.7244 104.164 93.7244 103.336C93.7244 102.532 94.0124 101.884 94.5884 101.392C95.1764 100.9 96.1064 100.654 97.3784 100.654H100.384V100.078C100.384 99.262 100.156 98.644 99.7004 98.224C99.2444 97.792 98.5784 97.576 97.7024 97.576C97.1024 97.576 96.5264 97.678 95.9744 97.882C95.4224 98.074 94.9484 98.344 94.5524 98.692L93.9764 97.738C94.4564 97.33 95.0324 97.018 95.7044 96.802C96.3764 96.574 97.0844 96.46 97.8284 96.46ZM97.3784 105.082C98.0984 105.082 98.7164 104.92 99.2324 104.596C99.7484 104.26 100.132 103.78 100.384 103.156V101.608H97.4144C95.7944 101.608 94.9844 102.172 94.9844 103.3C94.9844 103.852 95.1944 104.29 95.6144 104.614C96.0344 104.926 96.6224 105.082 97.3784 105.082ZM109.958 96.46C111.146 96.46 112.088 96.808 112.784 97.504C113.492 98.188 113.846 99.19 113.846 100.51V106H112.568V100.636C112.568 99.652 112.322 98.902 111.83 98.386C111.338 97.87 110.636 97.612 109.724 97.612C108.704 97.612 107.894 97.918 107.294 98.53C106.706 99.13 106.412 99.964 106.412 101.032V106H105.134V92.644H106.412V98.188C106.76 97.636 107.24 97.21 107.852 96.91C108.464 96.61 109.166 96.46 109.958 96.46ZM118.539 98.386C118.839 97.75 119.283 97.27 119.871 96.946C120.471 96.622 121.209 96.46 122.085 96.46V97.702L121.779 97.684C120.783 97.684 120.003 97.99 119.439 98.602C118.875 99.214 118.593 100.072 118.593 101.176V106H117.315V96.532H118.539V98.386Z" fill="black"/>
    <g filter="url(#filter0_d_0_1)">
        <path d="M3.00278 85.5C1.34439 85.5 -0.00569883 84.1548 0.0545908 82.4975C0.724205 64.0905 7.53596 46.3694 19.4956 32.0597C32.1043 16.9733 49.6606 6.60481 69.1944 2.70837C88.7282 -1.18808 109.04 1.62674 126.694 10.6766C143.431 19.2563 156.804 32.9406 164.808 49.6062C165.532 51.1134 164.81 52.8994 163.266 53.542C161.759 54.1694 160.033 53.4696 159.324 51.9989C151.87 36.5353 139.445 23.8384 123.903 15.8715C107.475 7.44993 88.5735 4.83054 70.3959 8.45646C52.2183 12.0824 35.8809 21.731 24.1476 35.77C13.0634 49.0322 6.73095 65.4433 6.06422 82.4977C5.99944 84.1548 4.66117 85.5 3.00278 85.5Z" fill="#005C7E"/>
    </g>
    <defs>
        <filter id="filter0_d_0_1" x="0.0527344" y="-0.00012207" width="181.038" height="100.5" filterUnits="userSpaceOnUse" color-interpolation-filters="sRGB">
            <feFlood flood-opacity="0" result="BackgroundImageFix"/>
            <feColorMatrix in="SourceAlpha" type="matrix" values="0 0 0 0 0 0 0 0 0 0 0 0 0 0 0 0 0 0 127 0" result="hardAlpha"/>
            <feOffset dx="8" dy="7"/>
            <feGaussianBlur stdDeviation="4"/>
            <feComposite in2="hardAlpha" operator="out"/>
            <feColorMatrix type="matrix" values="0 0 0 0 0 0 0 0 0 0 0 0 0 0 0 0 0 0 0.25 0"/>
            <feBlend mode="normal" in2="BackgroundImageFix" result="effect1_dropShadow_0_1"/>
            <feBlend mode="normal" in="SourceGraphic" in2="effect1_dropShadow_0_1" result="shape"/>
        </filter>
    </defs>
</svg>
