<svg width="188" height="185" viewBox="0 0 188 185" fill="none" xmlns="http://www.w3.org/2000/svg">
    <g filter="url(#filter0_d_0_1)">
        <path d="M2.9864 85.5C1.3376 85.5 -0.00462149 84.1623 0.0546137 82.5146C0.801167 61.7478 9.31588 41.9375 24.0282 26.913C39.4441 11.1701 60.4663 1.90544 82.6841 1.06287C104.902 0.220294 126.588 7.86531 143.193 22.3939C159.798 36.9224 170.031 57.2053 171.745 78.9869C173.459 100.768 166.52 122.356 152.385 139.219C138.25 156.083 118.017 166.912 95.9318 169.435C73.8462 171.957 51.6245 165.978 33.9292 152.75C17.045 140.128 5.53386 121.844 1.54536 101.442C1.22796 99.8186 2.35321 98.2842 3.98856 98.0343V98.0343C5.6116 97.7862 7.12434 98.8978 7.44303 100.508C11.1857 119.424 21.8802 136.371 37.5444 148.081C54.0112 160.39 74.6901 165.955 95.2423 163.607C115.795 161.26 134.623 151.182 147.776 135.49C160.93 119.797 167.387 99.7083 165.792 79.4391C164.197 59.1698 154.675 40.2951 139.223 26.7752C123.77 13.2554 103.59 6.14113 82.9144 6.92521C62.2392 7.70929 42.6765 16.3307 28.3309 30.9806C14.6889 44.912 6.77316 63.2652 6.02946 82.5147C5.96581 84.1623 4.6352 85.5 2.9864 85.5V85.5Z" fill="#005C7E"/>
    </g>
    <path d="M67.6236 77.216C66.3396 77.216 65.1756 76.94 64.1316 76.388C63.0996 75.824 62.2836 75.05 61.6836 74.066C61.0956 73.07 60.8016 71.948 60.8016 70.7C60.8016 69.452 61.0956 68.336 61.6836 67.352C62.2836 66.356 63.0996 65.582 64.1316 65.03C65.1756 64.466 66.3456 64.184 67.6416 64.184C68.7336 64.184 69.7176 64.376 70.5936 64.76C71.4816 65.144 72.2256 65.696 72.8256 66.416L70.9536 68.144C70.1016 67.16 69.0456 66.668 67.7856 66.668C67.0056 66.668 66.3096 66.842 65.6976 67.19C65.0856 67.526 64.6056 68 64.2576 68.612C63.9216 69.224 63.7536 69.92 63.7536 70.7C63.7536 71.48 63.9216 72.176 64.2576 72.788C64.6056 73.4 65.0856 73.88 65.6976 74.228C66.3096 74.564 67.0056 74.732 67.7856 74.732C69.0456 74.732 70.1016 74.234 70.9536 73.238L72.8256 74.966C72.2256 75.698 71.4816 76.256 70.5936 76.64C69.7056 77.024 68.7156 77.216 67.6236 77.216ZM78.8293 77.216C77.8333 77.216 76.8673 77.084 75.9313 76.82C75.0073 76.544 74.2633 76.19 73.6993 75.758L74.6893 73.562C75.2293 73.958 75.8713 74.276 76.6153 74.516C77.3593 74.756 78.1033 74.876 78.8473 74.876C79.6753 74.876 80.2873 74.756 80.6833 74.516C81.0793 74.264 81.2773 73.934 81.2773 73.526C81.2773 73.226 81.1573 72.98 80.9173 72.788C80.6893 72.584 80.3893 72.422 80.0173 72.302C79.6573 72.182 79.1653 72.05 78.5413 71.906C77.5813 71.678 76.7953 71.45 76.1833 71.222C75.5713 70.994 75.0433 70.628 74.5993 70.124C74.1673 69.62 73.9513 68.948 73.9513 68.108C73.9513 67.376 74.1493 66.716 74.5453 66.128C74.9413 65.528 75.5353 65.054 76.3273 64.706C77.1313 64.358 78.1093 64.184 79.2613 64.184C80.0653 64.184 80.8513 64.28 81.6193 64.472C82.3873 64.664 83.0593 64.94 83.6353 65.3L82.7353 67.514C81.5713 66.854 80.4073 66.524 79.2433 66.524C78.4273 66.524 77.8213 66.656 77.4253 66.92C77.0413 67.184 76.8493 67.532 76.8493 67.964C76.8493 68.396 77.0713 68.72 77.5153 68.936C77.9713 69.14 78.6613 69.344 79.5853 69.548C80.5453 69.776 81.3313 70.004 81.9433 70.232C82.5553 70.46 83.0773 70.82 83.5093 71.312C83.9533 71.804 84.1753 72.47 84.1753 73.31C84.1753 74.03 83.9713 74.69 83.5633 75.29C83.1673 75.878 82.5673 76.346 81.7633 76.694C80.9593 77.042 79.9813 77.216 78.8293 77.216ZM90.3078 77.216C89.3118 77.216 88.3458 77.084 87.4098 76.82C86.4858 76.544 85.7418 76.19 85.1778 75.758L86.1678 73.562C86.7078 73.958 87.3498 74.276 88.0938 74.516C88.8378 74.756 89.5818 74.876 90.3258 74.876C91.1538 74.876 91.7658 74.756 92.1618 74.516C92.5578 74.264 92.7558 73.934 92.7558 73.526C92.7558 73.226 92.6358 72.98 92.3958 72.788C92.1678 72.584 91.8678 72.422 91.4958 72.302C91.1358 72.182 90.6438 72.05 90.0198 71.906C89.0598 71.678 88.2738 71.45 87.6618 71.222C87.0498 70.994 86.5218 70.628 86.0778 70.124C85.6458 69.62 85.4298 68.948 85.4298 68.108C85.4298 67.376 85.6278 66.716 86.0238 66.128C86.4198 65.528 87.0138 65.054 87.8058 64.706C88.6098 64.358 89.5878 64.184 90.7398 64.184C91.5438 64.184 92.3298 64.28 93.0978 64.472C93.8658 64.664 94.5378 64.94 95.1138 65.3L94.2138 67.514C93.0498 66.854 91.8858 66.524 90.7218 66.524C89.9058 66.524 89.2998 66.656 88.9038 66.92C88.5198 67.184 88.3278 67.532 88.3278 67.964C88.3278 68.396 88.5498 68.72 88.9938 68.936C89.4498 69.14 90.1398 69.344 91.0638 69.548C92.0238 69.776 92.8098 70.004 93.4218 70.232C94.0338 70.46 94.5558 70.82 94.9878 71.312C95.4318 71.804 95.6538 72.47 95.6538 73.31C95.6538 74.03 95.4498 74.69 95.0418 75.29C94.6458 75.878 94.0458 76.346 93.2418 76.694C92.4378 77.042 91.4598 77.216 90.3078 77.216ZM107.838 69.53C108.942 69.71 109.788 70.124 110.376 70.772C110.964 71.408 111.258 72.2 111.258 73.148C111.258 73.88 111.066 74.558 110.682 75.182C110.298 75.794 109.71 76.286 108.918 76.658C108.138 77.03 107.178 77.216 106.038 77.216C105.15 77.216 104.274 77.102 103.41 76.874C102.558 76.634 101.832 76.298 101.232 75.866L102.366 73.634C102.846 73.994 103.398 74.276 104.022 74.48C104.658 74.672 105.306 74.768 105.966 74.768C106.698 74.768 107.274 74.63 107.694 74.354C108.114 74.066 108.324 73.664 108.324 73.148C108.324 72.116 107.538 71.6 105.966 71.6H104.634V69.674L107.226 66.74H101.862V64.4H110.682V66.29L107.838 69.53Z" fill="black"/>
    <path d="M57.458 98.566C59.282 98.566 60.608 98.896 61.436 99.556C62.276 100.204 62.696 101.116 62.696 102.292C62.696 103.024 62.522 103.678 62.174 104.254C61.838 104.83 61.328 105.286 60.644 105.622C59.96 105.946 59.12 106.108 58.124 106.108C57.224 106.108 56.366 105.964 55.55 105.676C54.746 105.376 54.098 104.98 53.606 104.488L54.236 103.462C54.656 103.894 55.208 104.248 55.892 104.524C56.576 104.788 57.314 104.92 58.106 104.92C59.15 104.92 59.954 104.686 60.518 104.218C61.094 103.75 61.382 103.126 61.382 102.346C61.382 101.482 61.058 100.828 60.41 100.384C59.774 99.94 58.694 99.718 57.17 99.718H54.488L55.136 93.4H62.03V94.552H56.27L55.838 98.566H57.458ZM71.5182 106.108C70.7982 106.108 70.1322 105.952 69.5202 105.64C68.9082 105.328 68.4102 104.884 68.0262 104.308L68.8182 103.408C69.5142 104.44 70.4202 104.956 71.5362 104.956C73.0962 104.956 73.8762 104.032 73.8762 102.184V94.552H69.2682V93.4H75.1902V102.13C75.1902 103.45 74.8782 104.446 74.2542 105.118C73.6422 105.778 72.7302 106.108 71.5182 106.108ZM82.2278 96.46C83.4638 96.46 84.4118 96.772 85.0718 97.396C85.7318 98.008 86.0618 98.92 86.0618 100.132V106H84.8378V104.524C84.5498 105.016 84.1238 105.4 83.5598 105.676C83.0078 105.952 82.3478 106.09 81.5798 106.09C80.5238 106.09 79.6838 105.838 79.0598 105.334C78.4358 104.83 78.1238 104.164 78.1238 103.336C78.1238 102.532 78.4118 101.884 78.9878 101.392C79.5758 100.9 80.5058 100.654 81.7778 100.654H84.7838V100.078C84.7838 99.262 84.5558 98.644 84.0998 98.224C83.6438 97.792 82.9778 97.576 82.1018 97.576C81.5018 97.576 80.9258 97.678 80.3738 97.882C79.8218 98.074 79.3478 98.344 78.9518 98.692L78.3758 97.738C78.8558 97.33 79.4318 97.018 80.1038 96.802C80.7758 96.574 81.4838 96.46 82.2278 96.46ZM81.7778 105.082C82.4978 105.082 83.1158 104.92 83.6318 104.596C84.1478 104.26 84.5318 103.78 84.7838 103.156V101.608H81.8138C80.1938 101.608 79.3838 102.172 79.3838 103.3C79.3838 103.852 79.5938 104.29 80.0138 104.614C80.4338 104.926 81.0218 105.082 81.7778 105.082ZM94.357 96.46C95.545 96.46 96.487 96.808 97.183 97.504C97.891 98.188 98.245 99.19 98.245 100.51V106H96.967V100.636C96.967 99.652 96.721 98.902 96.229 98.386C95.737 97.87 95.035 97.612 94.123 97.612C93.103 97.612 92.293 97.918 91.693 98.53C91.105 99.13 90.811 99.964 90.811 101.032V106H89.533V92.644H90.811V98.188C91.159 97.636 91.639 97.21 92.251 96.91C92.863 96.61 93.565 96.46 94.357 96.46ZM102.939 98.386C103.239 97.75 103.683 97.27 104.271 96.946C104.871 96.622 105.609 96.46 106.485 96.46V97.702L106.179 97.684C105.183 97.684 104.403 97.99 103.839 98.602C103.275 99.214 102.993 100.072 102.993 101.176V106H101.715V96.532H102.939V98.386ZM116.955 101.662H109.035C109.107 102.646 109.485 103.444 110.169 104.056C110.853 104.656 111.717 104.956 112.761 104.956C113.349 104.956 113.889 104.854 114.381 104.65C114.873 104.434 115.299 104.122 115.659 103.714L116.379 104.542C115.959 105.046 115.431 105.43 114.795 105.694C114.171 105.958 113.481 106.09 112.725 106.09C111.753 106.09 110.889 105.886 110.133 105.478C109.389 105.058 108.807 104.482 108.387 103.75C107.967 103.018 107.757 102.19 107.757 101.266C107.757 100.342 107.955 99.514 108.351 98.782C108.759 98.05 109.311 97.48 110.007 97.072C110.715 96.664 111.507 96.46 112.383 96.46C113.259 96.46 114.045 96.664 114.741 97.072C115.437 97.48 115.983 98.05 116.379 98.782C116.775 99.502 116.973 100.33 116.973 101.266L116.955 101.662ZM112.383 97.558C111.471 97.558 110.703 97.852 110.079 98.44C109.467 99.016 109.119 99.772 109.035 100.708H115.749C115.665 99.772 115.311 99.016 114.687 98.44C114.075 97.852 113.307 97.558 112.383 97.558Z" fill="black"/>
    <defs>
        <filter id="filter0_d_0_1" x="0.0527344" y="-6.10352e-05" width="187.948" height="185" filterUnits="userSpaceOnUse" color-interpolation-filters="sRGB">
            <feFlood flood-opacity="0" result="BackgroundImageFix"/>
            <feColorMatrix in="SourceAlpha" type="matrix" values="0 0 0 0 0 0 0 0 0 0 0 0 0 0 0 0 0 0 127 0" result="hardAlpha"/>
            <feOffset dx="8" dy="7"/>
            <feGaussianBlur stdDeviation="4"/>
            <feComposite in2="hardAlpha" operator="out"/>
            <feColorMatrix type="matrix" values="0 0 0 0 0 0 0 0 0 0 0 0 0 0 0 0 0 0 0.25 0"/>
            <feBlend mode="normal" in2="BackgroundImageFix" result="effect1_dropShadow_0_1"/>
            <feBlend mode="normal" in="SourceGraphic" in2="effect1_dropShadow_0_1" result="shape"/>
        </filter>
    </defs>
</svg>
