<svg width="188" height="185" viewBox="0 0 188 185" fill="none" xmlns="http://www.w3.org/2000/svg">
    <g filter="url(#filter0_d_0_1)">
        <path d="M2.9864 85.5C1.3376 85.5 -0.00462149 84.1623 0.0546137 82.5146C0.801167 61.7478 9.31588 41.9375 24.0282 26.913C39.4441 11.1701 60.4663 1.90544 82.6841 1.06287C104.902 0.220294 126.588 7.86531 143.193 22.3939C159.798 36.9224 170.031 57.2053 171.745 78.9869C173.459 100.768 166.52 122.356 152.385 139.219C138.25 156.083 118.017 166.912 95.9318 169.435C73.8462 171.957 51.6245 165.978 33.9292 152.75C17.045 140.128 5.53386 121.844 1.54536 101.442C1.22796 99.8186 2.35321 98.2842 3.98856 98.0343C5.6116 97.7862 7.12434 98.8978 7.44303 100.508C11.1857 119.424 21.8802 136.371 37.5444 148.081C54.0112 160.39 74.6901 165.955 95.2423 163.607C115.795 161.26 134.623 151.182 147.776 135.49C160.93 119.797 167.387 99.7083 165.792 79.4391C164.197 59.1698 154.675 40.2951 139.223 26.7752C123.77 13.2554 103.59 6.14113 82.9144 6.92521C62.2392 7.70929 42.6765 16.3307 28.3309 30.9806C14.6889 44.912 6.77316 63.2652 6.02946 82.5147C5.96581 84.1623 4.6352 85.5 2.9864 85.5Z" fill="#005C7E"/>
    </g>
    <path d="M40.9742 77.216C40.0022 77.216 39.0962 77.06 38.2562 76.748C37.4282 76.424 36.7082 75.968 36.0962 75.38C35.4842 74.792 35.0042 74.102 34.6562 73.31C34.3202 72.518 34.1522 71.648 34.1522 70.7C34.1522 69.752 34.3202 68.882 34.6562 68.09C35.0042 67.298 35.4842 66.608 36.0962 66.02C36.7202 65.432 37.4462 64.982 38.2742 64.67C39.1022 64.346 40.0082 64.184 40.9922 64.184C42.0842 64.184 43.0682 64.376 43.9442 64.76C44.8322 65.132 45.5762 65.684 46.1762 66.416L44.3042 68.144C43.8722 67.652 43.3922 67.286 42.8642 67.046C42.3362 66.794 41.7602 66.668 41.1362 66.668C40.5482 66.668 40.0082 66.764 39.5162 66.956C39.0242 67.148 38.5982 67.424 38.2382 67.784C37.8782 68.144 37.5962 68.57 37.3922 69.062C37.2002 69.554 37.1042 70.1 37.1042 70.7C37.1042 71.3 37.2002 71.846 37.3922 72.338C37.5962 72.83 37.8782 73.256 38.2382 73.616C38.5982 73.976 39.0242 74.252 39.5162 74.444C40.0082 74.636 40.5482 74.732 41.1362 74.732C41.7602 74.732 42.3362 74.612 42.8642 74.372C43.3922 74.12 43.8722 73.742 44.3042 73.238L46.1762 74.966C45.5762 75.698 44.8322 76.256 43.9442 76.64C43.0682 77.024 42.0782 77.216 40.9742 77.216ZM52.2151 77.216C51.2071 77.216 50.2411 77.084 49.3171 76.82C48.3931 76.544 47.6491 76.19 47.0851 75.758L48.0751 73.562C48.6151 73.946 49.2511 74.264 49.9831 74.516C50.7271 74.756 51.4771 74.876 52.2331 74.876C52.8091 74.876 53.2711 74.822 53.6191 74.714C53.9791 74.594 54.2431 74.432 54.4111 74.228C54.5791 74.024 54.6631 73.79 54.6631 73.526C54.6631 73.19 54.5311 72.926 54.2671 72.734C54.0031 72.53 53.6551 72.368 53.2231 72.248C52.7911 72.116 52.3111 71.996 51.7831 71.888C51.2671 71.768 50.7451 71.624 50.2171 71.456C49.7011 71.288 49.2271 71.072 48.7951 70.808C48.3631 70.544 48.0091 70.196 47.7331 69.764C47.4691 69.332 47.3371 68.78 47.3371 68.108C47.3371 67.388 47.5291 66.734 47.9131 66.146C48.3091 65.546 48.8971 65.072 49.6771 64.724C50.4691 64.364 51.4591 64.184 52.6471 64.184C53.4391 64.184 54.2191 64.28 54.9871 64.472C55.7551 64.652 56.4331 64.928 57.0211 65.3L56.1211 67.514C55.5331 67.178 54.9451 66.932 54.3571 66.776C53.7691 66.608 53.1931 66.524 52.6291 66.524C52.0651 66.524 51.6031 66.59 51.2431 66.722C50.8831 66.854 50.6251 67.028 50.4691 67.244C50.3131 67.448 50.2351 67.688 50.2351 67.964C50.2351 68.288 50.3671 68.552 50.6311 68.756C50.8951 68.948 51.2431 69.104 51.6751 69.224C52.1071 69.344 52.5811 69.464 53.0971 69.584C53.6251 69.704 54.1471 69.842 54.6631 69.998C55.1911 70.154 55.6711 70.364 56.1031 70.628C56.5351 70.892 56.8831 71.24 57.1471 71.672C57.4231 72.104 57.5611 72.65 57.5611 73.31C57.5611 74.018 57.3631 74.666 56.9671 75.254C56.5711 75.842 55.9771 76.316 55.1851 76.676C54.4051 77.036 53.4151 77.216 52.2151 77.216ZM63.6936 77.216C62.6856 77.216 61.7196 77.084 60.7956 76.82C59.8716 76.544 59.1276 76.19 58.5636 75.758L59.5536 73.562C60.0936 73.946 60.7296 74.264 61.4616 74.516C62.2056 74.756 62.9556 74.876 63.7116 74.876C64.2876 74.876 64.7496 74.822 65.0976 74.714C65.4576 74.594 65.7216 74.432 65.8896 74.228C66.0576 74.024 66.1416 73.79 66.1416 73.526C66.1416 73.19 66.0096 72.926 65.7456 72.734C65.4816 72.53 65.1336 72.368 64.7016 72.248C64.2696 72.116 63.7896 71.996 63.2616 71.888C62.7456 71.768 62.2236 71.624 61.6956 71.456C61.1796 71.288 60.7056 71.072 60.2736 70.808C59.8416 70.544 59.4876 70.196 59.2116 69.764C58.9476 69.332 58.8156 68.78 58.8156 68.108C58.8156 67.388 59.0076 66.734 59.3916 66.146C59.7876 65.546 60.3756 65.072 61.1556 64.724C61.9476 64.364 62.9376 64.184 64.1256 64.184C64.9176 64.184 65.6976 64.28 66.4656 64.472C67.2336 64.652 67.9116 64.928 68.4996 65.3L67.5996 67.514C67.0116 67.178 66.4236 66.932 65.8356 66.776C65.2476 66.608 64.6716 66.524 64.1076 66.524C63.5436 66.524 63.0816 66.59 62.7216 66.722C62.3616 66.854 62.1036 67.028 61.9476 67.244C61.7916 67.448 61.7136 67.688 61.7136 67.964C61.7136 68.288 61.8456 68.552 62.1096 68.756C62.3736 68.948 62.7216 69.104 63.1536 69.224C63.5856 69.344 64.0596 69.464 64.5756 69.584C65.1036 69.704 65.6256 69.842 66.1416 69.998C66.6696 70.154 67.1496 70.364 67.5816 70.628C68.0136 70.892 68.3616 71.24 68.6256 71.672C68.9016 72.104 69.0396 72.65 69.0396 73.31C69.0396 74.018 68.8416 74.666 68.4456 75.254C68.0496 75.842 67.4556 76.316 66.6636 76.676C65.8836 77.036 64.8936 77.216 63.6936 77.216ZM79.4237 77.216C78.5477 77.216 77.6777 77.102 76.8137 76.874C75.9497 76.634 75.2177 76.298 74.6177 75.866L75.7517 73.634C76.2317 73.982 76.7897 74.258 77.4257 74.462C78.0617 74.666 78.7037 74.768 79.3517 74.768C80.0837 74.768 80.6597 74.624 81.0797 74.336C81.4997 74.048 81.7097 73.652 81.7097 73.148C81.7097 72.668 81.5237 72.29 81.1517 72.014C80.7797 71.738 80.1797 71.6 79.3517 71.6H78.0197V69.674L81.5297 65.696L81.8537 66.74H75.2477V64.4H84.0677V66.29L80.5757 70.268L79.0997 69.422H79.9457C81.4937 69.422 82.6637 69.77 83.4557 70.466C84.2477 71.162 84.6437 72.056 84.6437 73.148C84.6437 73.856 84.4577 74.522 84.0857 75.146C83.7137 75.758 83.1437 76.256 82.3757 76.64C81.6077 77.024 80.6237 77.216 79.4237 77.216ZM84.6941 78.8L90.6341 61.844H93.1361L87.1961 78.8H84.6941ZM97.6194 77.216C96.6114 77.216 95.6454 77.084 94.7214 76.82C93.7974 76.544 93.0534 76.19 92.4894 75.758L93.4794 73.562C94.0194 73.946 94.6554 74.264 95.3874 74.516C96.1314 74.756 96.8814 74.876 97.6374 74.876C98.2134 74.876 98.6754 74.822 99.0234 74.714C99.3834 74.594 99.6474 74.432 99.8154 74.228C99.9834 74.024 100.067 73.79 100.067 73.526C100.067 73.19 99.9354 72.926 99.6714 72.734C99.4074 72.53 99.0594 72.368 98.6274 72.248C98.1954 72.116 97.7154 71.996 97.1874 71.888C96.6714 71.768 96.1494 71.624 95.6214 71.456C95.1054 71.288 94.6314 71.072 94.1994 70.808C93.7674 70.544 93.4134 70.196 93.1374 69.764C92.8734 69.332 92.7414 68.78 92.7414 68.108C92.7414 67.388 92.9334 66.734 93.3174 66.146C93.7134 65.546 94.3014 65.072 95.0814 64.724C95.8734 64.364 96.8634 64.184 98.0514 64.184C98.8434 64.184 99.6234 64.28 100.391 64.472C101.159 64.652 101.837 64.928 102.425 65.3L101.525 67.514C100.937 67.178 100.349 66.932 99.7614 66.776C99.1734 66.608 98.5974 66.524 98.0334 66.524C97.4694 66.524 97.0074 66.59 96.6474 66.722C96.2874 66.854 96.0294 67.028 95.8734 67.244C95.7174 67.448 95.6394 67.688 95.6394 67.964C95.6394 68.288 95.7714 68.552 96.0354 68.756C96.2994 68.948 96.6474 69.104 97.0794 69.224C97.5114 69.344 97.9854 69.464 98.5014 69.584C99.0294 69.704 99.5514 69.842 100.067 69.998C100.595 70.154 101.075 70.364 101.507 70.628C101.939 70.892 102.287 71.24 102.551 71.672C102.827 72.104 102.965 72.65 102.965 73.31C102.965 74.018 102.767 74.666 102.371 75.254C101.975 75.842 101.381 76.316 100.589 76.676C99.8094 77.036 98.8194 77.216 97.6194 77.216ZM110.988 77.216C110.016 77.216 109.11 77.06 108.27 76.748C107.442 76.424 106.722 75.968 106.11 75.38C105.498 74.792 105.018 74.102 104.67 73.31C104.334 72.518 104.166 71.648 104.166 70.7C104.166 69.752 104.334 68.882 104.67 68.09C105.018 67.298 105.498 66.608 106.11 66.02C106.734 65.432 107.46 64.982 108.288 64.67C109.116 64.346 110.022 64.184 111.006 64.184C112.098 64.184 113.082 64.376 113.958 64.76C114.846 65.132 115.59 65.684 116.19 66.416L114.318 68.144C113.886 67.652 113.406 67.286 112.878 67.046C112.35 66.794 111.774 66.668 111.15 66.668C110.562 66.668 110.022 66.764 109.53 66.956C109.038 67.148 108.612 67.424 108.252 67.784C107.892 68.144 107.61 68.57 107.406 69.062C107.214 69.554 107.118 70.1 107.118 70.7C107.118 71.3 107.214 71.846 107.406 72.338C107.61 72.83 107.892 73.256 108.252 73.616C108.612 73.976 109.038 74.252 109.53 74.444C110.022 74.636 110.562 74.732 111.15 74.732C111.774 74.732 112.35 74.612 112.878 74.372C113.406 74.12 113.886 73.742 114.318 73.238L116.19 74.966C115.59 75.698 114.846 76.256 113.958 76.64C113.082 77.024 112.092 77.216 110.988 77.216ZM122.229 77.216C121.221 77.216 120.255 77.084 119.331 76.82C118.407 76.544 117.663 76.19 117.099 75.758L118.089 73.562C118.629 73.946 119.265 74.264 119.997 74.516C120.741 74.756 121.491 74.876 122.247 74.876C122.823 74.876 123.285 74.822 123.633 74.714C123.993 74.594 124.257 74.432 124.425 74.228C124.593 74.024 124.677 73.79 124.677 73.526C124.677 73.19 124.545 72.926 124.281 72.734C124.017 72.53 123.669 72.368 123.237 72.248C122.805 72.116 122.325 71.996 121.797 71.888C121.281 71.768 120.759 71.624 120.231 71.456C119.715 71.288 119.241 71.072 118.809 70.808C118.377 70.544 118.023 70.196 117.747 69.764C117.483 69.332 117.351 68.78 117.351 68.108C117.351 67.388 117.543 66.734 117.927 66.146C118.323 65.546 118.911 65.072 119.691 64.724C120.483 64.364 121.473 64.184 122.661 64.184C123.453 64.184 124.233 64.28 125.001 64.472C125.769 64.652 126.447 64.928 127.035 65.3L126.135 67.514C125.547 67.178 124.959 66.932 124.371 66.776C123.783 66.608 123.207 66.524 122.643 66.524C122.079 66.524 121.617 66.59 121.257 66.722C120.897 66.854 120.639 67.028 120.483 67.244C120.327 67.448 120.249 67.688 120.249 67.964C120.249 68.288 120.381 68.552 120.645 68.756C120.909 68.948 121.257 69.104 121.689 69.224C122.121 69.344 122.595 69.464 123.111 69.584C123.639 69.704 124.161 69.842 124.677 69.998C125.205 70.154 125.685 70.364 126.117 70.628C126.549 70.892 126.897 71.24 127.161 71.672C127.437 72.104 127.575 72.65 127.575 73.31C127.575 74.018 127.377 74.666 126.981 75.254C126.585 75.842 125.991 76.316 125.199 76.676C124.419 77.036 123.429 77.216 122.229 77.216ZM133.707 77.216C132.699 77.216 131.733 77.084 130.809 76.82C129.885 76.544 129.141 76.19 128.577 75.758L129.567 73.562C130.107 73.946 130.743 74.264 131.475 74.516C132.219 74.756 132.969 74.876 133.725 74.876C134.301 74.876 134.763 74.822 135.111 74.714C135.471 74.594 135.735 74.432 135.903 74.228C136.071 74.024 136.155 73.79 136.155 73.526C136.155 73.19 136.023 72.926 135.759 72.734C135.495 72.53 135.147 72.368 134.715 72.248C134.283 72.116 133.803 71.996 133.275 71.888C132.759 71.768 132.237 71.624 131.709 71.456C131.193 71.288 130.719 71.072 130.287 70.808C129.855 70.544 129.501 70.196 129.225 69.764C128.961 69.332 128.829 68.78 128.829 68.108C128.829 67.388 129.021 66.734 129.405 66.146C129.801 65.546 130.389 65.072 131.169 64.724C131.961 64.364 132.951 64.184 134.139 64.184C134.931 64.184 135.711 64.28 136.479 64.472C137.247 64.652 137.925 64.928 138.513 65.3L137.613 67.514C137.025 67.178 136.437 66.932 135.849 66.776C135.261 66.608 134.685 66.524 134.121 66.524C133.557 66.524 133.095 66.59 132.735 66.722C132.375 66.854 132.117 67.028 131.961 67.244C131.805 67.448 131.727 67.688 131.727 67.964C131.727 68.288 131.859 68.552 132.123 68.756C132.387 68.948 132.735 69.104 133.167 69.224C133.599 69.344 134.073 69.464 134.589 69.584C135.117 69.704 135.639 69.842 136.155 69.998C136.683 70.154 137.163 70.364 137.595 70.628C138.027 70.892 138.375 71.24 138.639 71.672C138.915 72.104 139.053 72.65 139.053 73.31C139.053 74.018 138.855 74.666 138.459 75.254C138.063 75.842 137.469 76.316 136.677 76.676C135.897 77.036 134.907 77.216 133.707 77.216Z" fill="black"/>
    <path d="M58.1328 106.108C57.2328 106.108 56.3748 105.964 55.5588 105.676C54.7428 105.376 54.0948 104.98 53.6148 104.488L54.2448 103.462C54.6408 103.882 55.1808 104.23 55.8647 104.506C56.5608 104.782 57.3108 104.92 58.1148 104.92C59.1828 104.92 59.9928 104.686 60.5448 104.218C61.1088 103.738 61.3908 103.114 61.3908 102.346C61.3908 101.806 61.2588 101.344 60.9948 100.96C60.7428 100.564 60.3108 100.258 59.6988 100.042C59.0868 99.826 58.2468 99.718 57.1788 99.718H54.4968L55.1448 93.4H62.0388V94.552H55.6668L56.3328 93.922L55.7748 99.214L55.1088 98.566H57.4668C58.7388 98.566 59.7588 98.722 60.5268 99.034C61.2948 99.346 61.8468 99.784 62.1828 100.348C62.5308 100.9 62.7048 101.548 62.7048 102.292C62.7048 103 62.5368 103.648 62.2008 104.236C61.8648 104.812 61.3608 105.268 60.6888 105.604C60.0168 105.94 59.1648 106.108 58.1328 106.108ZM71.527 106.108C70.819 106.108 70.153 105.952 69.529 105.64C68.917 105.328 68.425 104.884 68.053 104.308L68.827 103.408C69.175 103.912 69.577 104.296 70.033 104.56C70.489 104.824 70.993 104.956 71.545 104.956C73.105 104.956 73.885 104.032 73.885 102.184V94.552H69.277V93.4H75.199V102.13C75.199 103.462 74.887 104.458 74.263 105.118C73.651 105.778 72.739 106.108 71.527 106.108ZM84.8466 106V103.912L84.7926 103.57V100.078C84.7926 99.274 84.5646 98.656 84.1086 98.224C83.6646 97.792 82.9986 97.576 82.1106 97.576C81.4986 97.576 80.9166 97.678 80.3646 97.882C79.8126 98.086 79.3446 98.356 78.9606 98.692L78.3846 97.738C78.8646 97.33 79.4406 97.018 80.1126 96.802C80.7846 96.574 81.4926 96.46 82.2366 96.46C83.4606 96.46 84.4026 96.766 85.0626 97.378C85.7346 97.978 86.0706 98.896 86.0706 100.132V106H84.8466ZM81.5886 106.09C80.8806 106.09 80.2626 105.976 79.7346 105.748C79.2186 105.508 78.8226 105.184 78.5466 104.776C78.2706 104.356 78.1326 103.876 78.1326 103.336C78.1326 102.844 78.2466 102.4 78.4746 102.004C78.7146 101.596 79.0986 101.272 79.6266 101.032C80.1666 100.78 80.8866 100.654 81.7866 100.654H85.0446V101.608H81.8226C80.9106 101.608 80.2746 101.77 79.9146 102.094C79.5666 102.418 79.3926 102.82 79.3926 103.3C79.3926 103.84 79.6026 104.272 80.0226 104.596C80.4426 104.92 81.0306 105.082 81.7866 105.082C82.5066 105.082 83.1246 104.92 83.6406 104.596C84.1686 104.26 84.5526 103.78 84.7926 103.156L85.0806 104.038C84.8406 104.662 84.4206 105.16 83.8206 105.532C83.2326 105.904 82.4886 106.09 81.5886 106.09ZM94.3658 96.46C95.1338 96.46 95.8058 96.61 96.3818 96.91C96.9698 97.198 97.4258 97.642 97.7498 98.242C98.0858 98.842 98.2538 99.598 98.2538 100.51V106H96.9758V100.636C96.9758 99.64 96.7238 98.89 96.2198 98.386C95.7278 97.87 95.0318 97.612 94.1318 97.612C93.4598 97.612 92.8718 97.75 92.3678 98.026C91.8758 98.29 91.4918 98.68 91.2158 99.196C90.9518 99.7 90.8198 100.312 90.8198 101.032V106H89.5418V92.644H90.8198V99.142L90.5678 98.656C90.8678 97.972 91.3478 97.438 92.0078 97.054C92.6678 96.658 93.4538 96.46 94.3658 96.46ZM101.706 106V96.55H102.93V99.124L102.804 98.674C103.068 97.954 103.512 97.408 104.136 97.036C104.76 96.652 105.534 96.46 106.458 96.46V97.702C106.41 97.702 106.362 97.702 106.314 97.702C106.266 97.69 106.218 97.684 106.17 97.684C105.174 97.684 104.394 97.99 103.83 98.602C103.266 99.202 102.984 100.06 102.984 101.176V106H101.706ZM112.716 106.09C111.732 106.09 110.868 105.886 110.124 105.478C109.38 105.058 108.798 104.488 108.378 103.768C107.958 103.036 107.748 102.202 107.748 101.266C107.748 100.33 107.946 99.502 108.342 98.782C108.75 98.062 109.302 97.498 109.998 97.09C110.706 96.67 111.498 96.46 112.374 96.46C113.262 96.46 114.048 96.664 114.732 97.072C115.428 97.468 115.974 98.032 116.37 98.764C116.766 99.484 116.964 100.318 116.964 101.266C116.964 101.326 116.958 101.392 116.946 101.464C116.946 101.524 116.946 101.59 116.946 101.662H108.72V100.708H116.262L115.758 101.086C115.758 100.402 115.608 99.796 115.308 99.268C115.02 98.728 114.624 98.308 114.12 98.008C113.616 97.708 113.034 97.558 112.374 97.558C111.726 97.558 111.144 97.708 110.628 98.008C110.112 98.308 109.71 98.728 109.422 99.268C109.134 99.808 108.99 100.426 108.99 101.122V101.32C108.99 102.04 109.146 102.676 109.458 103.228C109.782 103.768 110.226 104.194 110.79 104.506C111.366 104.806 112.02 104.956 112.752 104.956C113.328 104.956 113.862 104.854 114.354 104.65C114.858 104.446 115.29 104.134 115.65 103.714L116.37 104.542C115.95 105.046 115.422 105.43 114.786 105.694C114.162 105.958 113.472 106.09 112.716 106.09Z" fill="black"/>
    <defs>
        <filter id="filter0_d_0_1" x="0.0527344" y="0" width="187.948" height="185" filterUnits="userSpaceOnUse" color-interpolation-filters="sRGB">
            <feFlood flood-opacity="0" result="BackgroundImageFix"/>
            <feColorMatrix in="SourceAlpha" type="matrix" values="0 0 0 0 0 0 0 0 0 0 0 0 0 0 0 0 0 0 127 0" result="hardAlpha"/>
            <feOffset dx="8" dy="7"/>
            <feGaussianBlur stdDeviation="4"/>
            <feComposite in2="hardAlpha" operator="out"/>
            <feColorMatrix type="matrix" values="0 0 0 0 0 0 0 0 0 0 0 0 0 0 0 0 0 0 0.25 0"/>
            <feBlend mode="normal" in2="BackgroundImageFix" result="effect1_dropShadow_0_1"/>
            <feBlend mode="normal" in="SourceGraphic" in2="effect1_dropShadow_0_1" result="shape"/>
        </filter>
    </defs>
</svg>
