<svg width="185" height="185" viewBox="0 0 185 185" fill="none" xmlns="http://www.w3.org/2000/svg">
    <path d="M79.0155 77.216C78.0195 77.216 77.1015 77.06 76.2615 76.748C75.4335 76.424 74.7075 75.968 74.0835 75.38C73.4715 74.792 72.9915 74.102 72.6435 73.31C72.3075 72.518 72.1395 71.648 72.1395 70.7C72.1395 69.752 72.3075 68.882 72.6435 68.09C72.9915 67.298 73.4775 66.608 74.1015 66.02C74.7255 65.432 75.4575 64.982 76.2975 64.67C77.1375 64.346 78.0615 64.184 79.0695 64.184C80.1855 64.184 81.1875 64.37 82.0755 64.742C82.9755 65.114 83.7315 65.654 84.3435 66.362L82.4715 68.09C82.0155 67.61 81.5175 67.256 80.9775 67.028C80.4375 66.788 79.8495 66.668 79.2135 66.668C78.6015 66.668 78.0435 66.764 77.5395 66.956C77.0355 67.148 76.5975 67.424 76.2255 67.784C75.8655 68.144 75.5835 68.57 75.3795 69.062C75.1875 69.554 75.0915 70.1 75.0915 70.7C75.0915 71.288 75.1875 71.828 75.3795 72.32C75.5835 72.812 75.8655 73.244 76.2255 73.616C76.5975 73.976 77.0295 74.252 77.5215 74.444C78.0255 74.636 78.5775 74.732 79.1775 74.732C79.7535 74.732 80.3115 74.642 80.8515 74.462C81.4035 74.27 81.9375 73.952 82.4535 73.508L84.1095 75.614C83.4255 76.13 82.6275 76.526 81.7155 76.802C80.8155 77.078 79.9155 77.216 79.0155 77.216ZM81.4455 75.236V70.502H84.1095V75.614L81.4455 75.236ZM86.6202 77V67.316H89.4282V77H86.6202ZM88.0242 65.966C87.5082 65.966 87.0882 65.816 86.7642 65.516C86.4402 65.216 86.2782 64.844 86.2782 64.4C86.2782 63.956 86.4402 63.584 86.7642 63.284C87.0882 62.984 87.5082 62.834 88.0242 62.834C88.5402 62.834 88.9602 62.978 89.2842 63.266C89.6082 63.542 89.7702 63.902 89.7702 64.346C89.7702 64.814 89.6082 65.204 89.2842 65.516C88.9722 65.816 88.5522 65.966 88.0242 65.966ZM95.9943 77.144C94.8543 77.144 93.9663 76.856 93.3303 76.28C92.6943 75.692 92.3763 74.822 92.3763 73.67V65.174H95.1843V73.634C95.1843 74.042 95.2923 74.36 95.5083 74.588C95.7243 74.804 96.0183 74.912 96.3903 74.912C96.8343 74.912 97.2123 74.792 97.5243 74.552L98.2803 76.532C97.9923 76.736 97.6443 76.892 97.2363 77C96.8403 77.096 96.4263 77.144 95.9943 77.144ZM90.8823 69.692V67.532H97.5963V69.692H90.8823Z" fill="black"/>
    <path d="M63.5119 106V93.94L64.0879 94.552H60.5419V93.4H64.8079V106H63.5119ZM74.9967 106.108C74.2887 106.108 73.6227 105.952 72.9987 105.64C72.3867 105.328 71.8947 104.884 71.5227 104.308L72.2967 103.408C72.6447 103.912 73.0467 104.296 73.5027 104.56C73.9587 104.824 74.4627 104.956 75.0147 104.956C76.5747 104.956 77.3547 104.032 77.3547 102.184V94.552H72.7467V93.4H78.6687V102.13C78.6687 103.462 78.3567 104.458 77.7327 105.118C77.1207 105.778 76.2087 106.108 74.9967 106.108ZM88.3163 106V103.912L88.2623 103.57V100.078C88.2623 99.274 88.0343 98.656 87.5783 98.224C87.1343 97.792 86.4683 97.576 85.5803 97.576C84.9683 97.576 84.3863 97.678 83.8343 97.882C83.2823 98.086 82.8143 98.356 82.4303 98.692L81.8543 97.738C82.3343 97.33 82.9103 97.018 83.5823 96.802C84.2543 96.574 84.9623 96.46 85.7063 96.46C86.9303 96.46 87.8723 96.766 88.5323 97.378C89.2043 97.978 89.5403 98.896 89.5403 100.132V106H88.3163ZM85.0583 106.09C84.3503 106.09 83.7323 105.976 83.2043 105.748C82.6883 105.508 82.2923 105.184 82.0163 104.776C81.7403 104.356 81.6023 103.876 81.6023 103.336C81.6023 102.844 81.7163 102.4 81.9443 102.004C82.1843 101.596 82.5683 101.272 83.0963 101.032C83.6363 100.78 84.3563 100.654 85.2563 100.654H88.5143V101.608H85.2923C84.3803 101.608 83.7443 101.77 83.3843 102.094C83.0363 102.418 82.8623 102.82 82.8623 103.3C82.8623 103.84 83.0723 104.272 83.4923 104.596C83.9123 104.92 84.5003 105.082 85.2563 105.082C85.9763 105.082 86.5943 104.92 87.1103 104.596C87.6383 104.26 88.0223 103.78 88.2623 103.156L88.5503 104.038C88.3103 104.662 87.8903 105.16 87.2903 105.532C86.7023 105.904 85.9583 106.09 85.0583 106.09ZM97.8355 96.46C98.6035 96.46 99.2755 96.61 99.8515 96.91C100.439 97.198 100.895 97.642 101.219 98.242C101.555 98.842 101.723 99.598 101.723 100.51V106H100.445V100.636C100.445 99.64 100.193 98.89 99.6895 98.386C99.1975 97.87 98.5015 97.612 97.6015 97.612C96.9295 97.612 96.3415 97.75 95.8375 98.026C95.3455 98.29 94.9615 98.68 94.6855 99.196C94.4215 99.7 94.2895 100.312 94.2895 101.032V106H93.0115V92.644H94.2895V99.142L94.0375 98.656C94.3375 97.972 94.8175 97.438 95.4775 97.054C96.1375 96.658 96.9235 96.46 97.8355 96.46ZM105.176 106V96.55H106.4V99.124L106.274 98.674C106.538 97.954 106.982 97.408 107.606 97.036C108.23 96.652 109.004 96.46 109.928 96.46V97.702C109.88 97.702 109.832 97.702 109.784 97.702C109.736 97.69 109.688 97.684 109.64 97.684C108.644 97.684 107.864 97.99 107.3 98.602C106.736 99.202 106.454 100.06 106.454 101.176V106H105.176Z" fill="black"/>
    <g filter="url(#filter0_d_0_1)">
        <path d="M2.93238 85.5C1.31233 85.5 -0.00629386 84.1861 0.049922 82.5671C0.594535 66.8817 5.4988 51.6362 14.2398 38.5543C23.5248 24.6584 36.7219 13.8278 52.1623 7.43217C67.6026 1.03657 84.5928 -0.636808 100.984 2.62365C117.376 5.8841 132.432 13.9319 144.25 25.7495C156.067 37.567 164.115 52.6235 167.375 69.0149C170.636 85.4063 168.962 102.396 162.567 117.837C156.171 133.277 145.341 146.474 131.445 155.759C118.363 164.5 103.117 169.404 87.4319 169.949C85.8128 170.005 84.499 168.687 84.499 167.067V167.067C84.499 165.447 85.8128 164.139 87.4317 164.079C101.956 163.537 116.068 158.978 128.185 150.881C141.117 142.241 151.195 129.96 157.147 115.592C163.098 101.223 164.655 85.4128 161.621 70.1594C158.587 54.9061 151.098 40.8949 140.101 29.8979C129.104 18.9008 115.093 11.4117 99.8396 8.37763C84.5863 5.34354 68.7757 6.90074 54.4074 12.8523C40.039 18.8039 27.7582 28.8825 19.1178 41.8137C11.0215 53.9307 6.46238 68.0425 5.92042 82.5673C5.86002 84.1862 4.55242 85.5 2.93238 85.5V85.5Z" fill="#005C7E"/>
    </g>
    <defs>
        <filter id="filter0_d_0_1" x="0.0478516" y="0" width="184.951" height="184.951" filterUnits="userSpaceOnUse" color-interpolation-filters="sRGB">
            <feFlood flood-opacity="0" result="BackgroundImageFix"/>
            <feColorMatrix in="SourceAlpha" type="matrix" values="0 0 0 0 0 0 0 0 0 0 0 0 0 0 0 0 0 0 127 0" result="hardAlpha"/>
            <feOffset dx="8" dy="7"/>
            <feGaussianBlur stdDeviation="4"/>
            <feComposite in2="hardAlpha" operator="out"/>
            <feColorMatrix type="matrix" values="0 0 0 0 0 0 0 0 0 0 0 0 0 0 0 0 0 0 0.25 0"/>
            <feBlend mode="normal" in2="BackgroundImageFix" result="effect1_dropShadow_0_1"/>
            <feBlend mode="normal" in="SourceGraphic" in2="effect1_dropShadow_0_1" result="shape"/>
        </filter>
    </defs>
</svg>
