<svg width="189" height="185" viewBox="0 0 189 185" fill="none" xmlns="http://www.w3.org/2000/svg">
    <g filter="url(#filter0_d_0_1)">
        <path d="M3.00278 85.5C1.34439 85.5 -0.00569594 84.1546 0.0545777 82.4973C0.809609 61.7368 9.37317 41.9333 24.1669 26.913C39.6724 11.1701 60.8169 1.90544 83.1639 1.06287C105.511 0.220294 127.323 7.86531 144.025 22.3939C160.727 36.9224 171.019 57.2053 172.743 78.9869C174.466 100.768 167.488 122.356 153.27 139.219C139.053 156.083 118.703 166.912 96.4885 169.435C74.2745 171.957 51.9236 165.978 34.1254 152.75C17.149 140.133 5.57314 121.857 1.55757 101.464C1.23575 99.8292 2.36911 98.2837 4.016 98.0335C5.64641 97.7857 7.16536 98.9019 7.48747 100.519C11.2539 119.431 22.0095 136.374 37.7617 148.081C54.3242 160.39 75.1233 165.955 95.7951 163.607C116.467 161.26 135.404 151.182 148.635 135.49C161.865 119.797 168.359 99.7083 166.755 79.4391C165.151 59.1698 155.573 40.2951 140.031 26.7752C124.489 13.2554 104.191 6.14113 83.3955 6.92521C62.6 7.70929 42.9236 16.3307 28.4946 30.9806C14.7775 44.9078 6.81633 63.2542 6.06421 82.4974C5.99944 84.1545 4.66117 85.5 3.00278 85.5Z" fill="#005C7E"/>
    </g>
    <path d="M65.2893 64.4V77H62.3733V71.834H56.6493V77H53.7333V64.4H56.6493V69.368H62.3733V64.4H65.2893ZM70.8804 66.776H66.8484V64.4H77.8284V66.776H73.7964V77H70.8804V66.776ZM90.8633 77L90.8453 69.44L87.1373 75.668H85.8233L82.1333 69.602V77H79.3973V64.4H81.8093L86.5253 72.23L91.1693 64.4H93.5633L93.5993 77H90.8633ZM96.5887 64.4H99.5047V74.624H105.823V77H96.5887V64.4ZM116.078 69.134C117.854 69.134 119.162 69.488 120.002 70.196C120.854 70.904 121.28 71.852 121.28 73.04C121.28 73.808 121.088 74.51 120.704 75.146C120.32 75.77 119.732 76.274 118.94 76.658C118.16 77.03 117.194 77.216 116.042 77.216C115.154 77.216 114.278 77.102 113.414 76.874C112.562 76.634 111.836 76.298 111.236 75.866L112.388 73.634C112.868 73.994 113.42 74.276 114.044 74.48C114.668 74.672 115.31 74.768 115.97 74.768C116.702 74.768 117.278 74.624 117.698 74.336C118.118 74.048 118.328 73.646 118.328 73.13C118.328 72.59 118.106 72.182 117.662 71.906C117.23 71.63 116.474 71.492 115.394 71.492H112.172L112.82 64.4H120.506V66.74H115.25L115.052 69.134H116.078Z" fill="black"/>
    <path d="M56.457 98.566C58.281 98.566 59.607 98.896 60.435 99.556C61.275 100.204 61.695 101.116 61.695 102.292C61.695 103.024 61.521 103.678 61.173 104.254C60.837 104.83 60.327 105.286 59.643 105.622C58.959 105.946 58.119 106.108 57.123 106.108C56.223 106.108 55.365 105.964 54.549 105.676C53.745 105.376 53.097 104.98 52.605 104.488L53.235 103.462C53.655 103.894 54.207 104.248 54.891 104.524C55.575 104.788 56.313 104.92 57.105 104.92C58.149 104.92 58.953 104.686 59.517 104.218C60.093 103.75 60.381 103.126 60.381 102.346C60.381 101.482 60.057 100.828 59.409 100.384C58.773 99.94 57.693 99.718 56.169 99.718H53.487L54.135 93.4H61.029V94.552H55.269L54.837 98.566H56.457ZM70.5172 106.108C69.7972 106.108 69.1312 105.952 68.5192 105.64C67.9072 105.328 67.4092 104.884 67.0252 104.308L67.8172 103.408C68.5132 104.44 69.4192 104.956 70.5352 104.956C72.0952 104.956 72.8752 104.032 72.8752 102.184V94.552H68.2672V93.4H74.1892V102.13C74.1892 103.45 73.8772 104.446 73.2532 105.118C72.6412 105.778 71.7292 106.108 70.5172 106.108ZM81.2268 96.46C82.4628 96.46 83.4108 96.772 84.0708 97.396C84.7308 98.008 85.0608 98.92 85.0608 100.132V106H83.8368V104.524C83.5488 105.016 83.1228 105.4 82.5588 105.676C82.0068 105.952 81.3468 106.09 80.5788 106.09C79.5228 106.09 78.6828 105.838 78.0588 105.334C77.4348 104.83 77.1228 104.164 77.1228 103.336C77.1228 102.532 77.4108 101.884 77.9868 101.392C78.5748 100.9 79.5048 100.654 80.7768 100.654H83.7828V100.078C83.7828 99.262 83.5548 98.644 83.0988 98.224C82.6428 97.792 81.9768 97.576 81.1008 97.576C80.5008 97.576 79.9248 97.678 79.3728 97.882C78.8208 98.074 78.3468 98.344 77.9508 98.692L77.3748 97.738C77.8548 97.33 78.4308 97.018 79.1028 96.802C79.7748 96.574 80.4828 96.46 81.2268 96.46ZM80.7768 105.082C81.4968 105.082 82.1148 104.92 82.6308 104.596C83.1468 104.26 83.5308 103.78 83.7828 103.156V101.608H80.8128C79.1928 101.608 78.3828 102.172 78.3828 103.3C78.3828 103.852 78.5928 104.29 79.0128 104.614C79.4328 104.926 80.0208 105.082 80.7768 105.082ZM93.356 96.46C94.544 96.46 95.486 96.808 96.182 97.504C96.89 98.188 97.244 99.19 97.244 100.51V106H95.966V100.636C95.966 99.652 95.72 98.902 95.228 98.386C94.736 97.87 94.034 97.612 93.122 97.612C92.102 97.612 91.292 97.918 90.692 98.53C90.104 99.13 89.81 99.964 89.81 101.032V106H88.532V92.644H89.81V98.188C90.158 97.636 90.638 97.21 91.25 96.91C91.862 96.61 92.564 96.46 93.356 96.46ZM101.938 98.386C102.238 97.75 102.682 97.27 103.27 96.946C103.87 96.622 104.608 96.46 105.484 96.46V97.702L105.178 97.684C104.182 97.684 103.402 97.99 102.838 98.602C102.274 99.214 101.992 100.072 101.992 101.176V106H100.714V96.532H101.938V98.386ZM115.954 101.662H108.034C108.106 102.646 108.484 103.444 109.168 104.056C109.852 104.656 110.716 104.956 111.76 104.956C112.348 104.956 112.888 104.854 113.38 104.65C113.872 104.434 114.298 104.122 114.658 103.714L115.378 104.542C114.958 105.046 114.43 105.43 113.794 105.694C113.17 105.958 112.48 106.09 111.724 106.09C110.752 106.09 109.888 105.886 109.132 105.478C108.388 105.058 107.806 104.482 107.386 103.75C106.966 103.018 106.756 102.19 106.756 101.266C106.756 100.342 106.954 99.514 107.35 98.782C107.758 98.05 108.31 97.48 109.006 97.072C109.714 96.664 110.506 96.46 111.382 96.46C112.258 96.46 113.044 96.664 113.74 97.072C114.436 97.48 114.982 98.05 115.378 98.782C115.774 99.502 115.972 100.33 115.972 101.266L115.954 101.662ZM111.382 97.558C110.47 97.558 109.702 97.852 109.078 98.44C108.466 99.016 108.118 99.772 108.034 100.708H114.748C114.664 99.772 114.31 99.016 113.686 98.44C113.074 97.852 112.306 97.558 111.382 97.558Z" fill="black"/>
    <defs>
        <filter id="filter0_d_0_1" x="0.0527344" y="-6.10352e-05" width="188.947" height="185" filterUnits="userSpaceOnUse" color-interpolation-filters="sRGB">
            <feFlood flood-opacity="0" result="BackgroundImageFix"/>
            <feColorMatrix in="SourceAlpha" type="matrix" values="0 0 0 0 0 0 0 0 0 0 0 0 0 0 0 0 0 0 127 0" result="hardAlpha"/>
            <feOffset dx="8" dy="7"/>
            <feGaussianBlur stdDeviation="4"/>
            <feComposite in2="hardAlpha" operator="out"/>
            <feColorMatrix type="matrix" values="0 0 0 0 0 0 0 0 0 0 0 0 0 0 0 0 0 0 0.25 0"/>
            <feBlend mode="normal" in2="BackgroundImageFix" result="effect1_dropShadow_0_1"/>
            <feBlend mode="normal" in="SourceGraphic" in2="effect1_dropShadow_0_1" result="shape"/>
        </filter>
    </defs>
</svg>
