<svg width="184" height="184" viewBox="0 0 184 184" fill="none" xmlns="http://www.w3.org/2000/svg">
    <path d="M63.4248 55.2999H57.5748L56.4588 57.9999H53.4708L59.0868 45.3999H61.9668L67.6008 57.9999H64.5408L63.4248 55.2999ZM62.5068 53.0859L60.5088 48.2619L58.5108 53.0859H62.5068ZM78.4862 44.6439V57.9999H75.8042V56.8839C75.1082 57.7239 74.1002 58.1439 72.7802 58.1439C71.8682 58.1439 71.0402 57.9399 70.2962 57.5319C69.5642 57.1239 68.9882 56.5419 68.5682 55.7859C68.1482 55.0299 67.9382 54.1539 67.9382 53.1579C67.9382 52.1619 68.1482 51.2859 68.5682 50.5299C68.9882 49.7739 69.5642 49.1919 70.2962 48.7839C71.0402 48.3759 71.8682 48.1719 72.7802 48.1719C74.0162 48.1719 74.9822 48.5619 75.6782 49.3419V44.6439H78.4862ZM73.2662 55.8399C73.9742 55.8399 74.5622 55.5999 75.0302 55.1199C75.4982 54.6279 75.7322 53.9739 75.7322 53.1579C75.7322 52.3419 75.4982 51.6939 75.0302 51.2139C74.5622 50.7219 73.9742 50.4759 73.2662 50.4759C72.5462 50.4759 71.9522 50.7219 71.4842 51.2139C71.0162 51.6939 70.7822 52.3419 70.7822 53.1579C70.7822 53.9739 71.0162 54.6279 71.4842 55.1199C71.9522 55.5999 72.5462 55.8399 73.2662 55.8399ZM85.6931 58.1439C84.6731 58.1439 83.7551 57.9339 82.9391 57.5139C82.1351 57.0819 81.5051 56.4879 81.0491 55.7319C80.5931 54.9759 80.3651 54.1179 80.3651 53.1579C80.3651 52.1979 80.5931 51.3399 81.0491 50.5839C81.5051 49.8279 82.1351 49.2399 82.9391 48.8199C83.7551 48.3879 84.6731 48.1719 85.6931 48.1719C86.7131 48.1719 87.6251 48.3879 88.4291 48.8199C89.2331 49.2399 89.8631 49.8279 90.3191 50.5839C90.7751 51.3399 91.0031 52.1979 91.0031 53.1579C91.0031 54.1179 90.7751 54.9759 90.3191 55.7319C89.8631 56.4879 89.2331 57.0819 88.4291 57.5139C87.6251 57.9339 86.7131 58.1439 85.6931 58.1439ZM85.6931 55.8399C86.4131 55.8399 87.0011 55.5999 87.4571 55.1199C87.9251 54.6279 88.1591 53.9739 88.1591 53.1579C88.1591 52.3419 87.9251 51.6939 87.4571 51.2139C87.0011 50.7219 86.4131 50.4759 85.6931 50.4759C84.9731 50.4759 84.3791 50.7219 83.9111 51.2139C83.4431 51.6939 83.2091 52.3419 83.2091 53.1579C83.2091 53.9739 83.4431 54.6279 83.9111 55.1199C84.3791 55.5999 84.9731 55.8399 85.6931 55.8399ZM98.604 48.1719C99.504 48.1719 100.32 48.3819 101.052 48.8019C101.796 49.2099 102.378 49.7919 102.798 50.5479C103.218 51.2919 103.428 52.1619 103.428 53.1579C103.428 54.1539 103.218 55.0299 102.798 55.7859C102.378 56.5299 101.796 57.1119 101.052 57.5319C100.32 57.9399 99.504 58.1439 98.604 58.1439C97.272 58.1439 96.258 57.7239 95.562 56.8839V57.9999H92.88V44.6439H95.688V49.3419C96.396 48.5619 97.368 48.1719 98.604 48.1719ZM98.118 55.8399C98.838 55.8399 99.426 55.5999 99.882 55.1199C100.35 54.6279 100.584 53.9739 100.584 53.1579C100.584 52.3419 100.35 51.6939 99.882 51.2139C99.426 50.7219 98.838 50.4759 98.118 50.4759C97.398 50.4759 96.804 50.7219 96.336 51.2139C95.88 51.6939 95.652 52.3419 95.652 53.1579C95.652 53.9739 95.88 54.6279 96.336 55.1199C96.804 55.5999 97.398 55.8399 98.118 55.8399ZM114.794 53.1939C114.794 53.2299 114.776 53.4819 114.74 53.9499H107.414C107.546 54.5499 107.858 55.0239 108.35 55.3719C108.842 55.7199 109.454 55.8939 110.186 55.8939C110.69 55.8939 111.134 55.8219 111.518 55.6779C111.914 55.5219 112.28 55.2819 112.616 54.9579L114.11 56.5779C113.198 57.6219 111.866 58.1439 110.114 58.1439C109.022 58.1439 108.056 57.9339 107.216 57.5139C106.376 57.0819 105.728 56.4879 105.272 55.7319C104.816 54.9759 104.588 54.1179 104.588 53.1579C104.588 52.2099 104.81 51.3579 105.254 50.6019C105.71 49.8339 106.328 49.2399 107.108 48.8199C107.9 48.3879 108.782 48.1719 109.754 48.1719C110.702 48.1719 111.56 48.3759 112.328 48.7839C113.096 49.1919 113.696 49.7799 114.128 50.5479C114.572 51.3039 114.794 52.1859 114.794 53.1939ZM109.772 50.2959C109.136 50.2959 108.602 50.4759 108.17 50.8359C107.738 51.1959 107.474 51.6879 107.378 52.3119H112.148C112.052 51.6999 111.788 51.2139 111.356 50.8539C110.924 50.4819 110.396 50.2959 109.772 50.2959ZM39.8514 75.3999H42.7674V87.9999H39.8514V75.3999ZM45.5597 74.6439H48.3677V87.9999H45.5597V74.6439ZM50.9737 74.6439H53.7817V87.9999H50.9737V74.6439ZM66.1438 78.3159V87.9999H63.4798V86.8479C63.1078 87.2679 62.6638 87.5919 62.1478 87.8199C61.6318 88.0359 61.0738 88.1439 60.4738 88.1439C59.2018 88.1439 58.1938 87.7779 57.4498 87.0459C56.7058 86.3139 56.3338 85.2279 56.3338 83.7879V78.3159H59.1418V83.3739C59.1418 84.9339 59.7958 85.7139 61.1038 85.7139C61.7758 85.7139 62.3158 85.4979 62.7238 85.0659C63.1318 84.6219 63.3358 83.9679 63.3358 83.1039V78.3159H66.1438ZM72.0032 88.1439C71.1992 88.1439 70.4132 88.0479 69.6452 87.8559C68.8772 87.6519 68.2652 87.3999 67.8092 87.0999L68.7452 85.0839C69.1772 85.3599 69.6992 85.5879 70.3112 85.7679C70.9232 85.9359 71.5232 86.0199 72.1112 86.0199C73.2992 86.0199 73.8932 85.7259 73.8932 85.1379C73.8932 84.8619 73.7312 84.6639 73.4072 84.5439C73.0832 84.4239 72.5852 84.3219 71.9132 84.2379C71.1212 84.1179 70.4672 83.9799 69.9512 83.8239C69.4352 83.6679 68.9852 83.3919 68.6012 82.9959C68.2292 82.5999 68.0432 82.0359 68.0432 81.3039C68.0432 80.6919 68.2172 80.1519 68.5652 79.6839C68.9252 79.2039 69.4412 78.8319 70.1132 78.5679C70.7972 78.3039 71.6012 78.1719 72.5252 78.1719C73.2092 78.1719 73.8872 78.2499 74.5592 78.4059C75.2432 78.5499 75.8072 78.7539 76.2512 79.0179L75.3152 81.0159C74.4632 80.5359 73.5332 80.2959 72.5252 80.2959C71.9252 80.2959 71.4752 80.3799 71.1752 80.5479C70.8752 80.7159 70.7252 80.9319 70.7252 81.1959C70.7252 81.4959 70.8872 81.7059 71.2112 81.8259C71.5352 81.9459 72.0512 82.0599 72.7592 82.1679C73.5512 82.2999 74.1992 82.4439 74.7032 82.5999C75.2072 82.7439 75.6452 83.0139 76.0172 83.4099C76.3892 83.8059 76.5752 84.3579 76.5752 85.0659C76.5752 85.6659 76.3952 86.1999 76.0352 86.6679C75.6752 87.1359 75.1472 87.5019 74.4512 87.7659C73.7672 88.0179 72.9512 88.1439 72.0032 88.1439ZM84.5537 87.5319C84.2777 87.7359 83.9357 87.8919 83.5277 87.9999C83.1317 88.0959 82.7117 88.1439 82.2677 88.1439C81.1157 88.1439 80.2217 87.8499 79.5857 87.2619C78.9617 86.6739 78.6497 85.8099 78.6497 84.6699V80.6919H77.1557V78.5319H78.6497V76.1739H81.4577V78.5319H83.8697V80.6919H81.4577V84.6339C81.4577 85.0419 81.5597 85.3599 81.7637 85.5879C81.9797 85.8039 82.2797 85.9119 82.6637 85.9119C83.1077 85.9119 83.4857 85.7919 83.7977 85.5519L84.5537 87.5319ZM88.812 79.5939C89.148 79.1259 89.598 78.7719 90.162 78.5319C90.738 78.2919 91.398 78.1719 92.142 78.1719V80.7639C91.83 80.7399 91.62 80.7279 91.512 80.7279C90.708 80.7279 90.078 80.9559 89.622 81.4119C89.166 81.8559 88.938 82.5279 88.938 83.4279V87.9999H86.13V78.3159H88.812V79.5939ZM97.6649 78.1719C99.1649 78.1719 100.317 78.5319 101.121 79.2519C101.925 79.9599 102.327 81.0339 102.327 82.4739V87.9999H99.6989V86.7939C99.1709 87.6939 98.1869 88.1439 96.7469 88.1439C96.0029 88.1439 95.3549 88.0179 94.8029 87.7659C94.2629 87.5139 93.8489 87.1659 93.5609 86.7219C93.2729 86.2779 93.1289 85.7739 93.1289 85.2099C93.1289 84.3099 93.4649 83.6019 94.1369 83.0859C94.8209 82.5699 95.8709 82.3119 97.2869 82.3119H99.5189C99.5189 81.6999 99.3329 81.2319 98.9609 80.9079C98.5889 80.5719 98.0309 80.4039 97.2869 80.4039C96.7709 80.4039 96.2609 80.4879 95.7569 80.6559C95.2649 80.8119 94.8449 81.0279 94.4969 81.3039L93.4889 79.3419C94.0169 78.9699 94.6469 78.6819 95.3789 78.4779C96.1229 78.2739 96.8849 78.1719 97.6649 78.1719ZM97.4489 86.2539C97.9289 86.2539 98.3549 86.1459 98.7269 85.9299C99.0989 85.7019 99.3629 85.3719 99.5189 84.9399V83.9499H97.5929C96.4409 83.9499 95.8649 84.3279 95.8649 85.0839C95.8649 85.4439 96.0029 85.7319 96.2789 85.9479C96.5669 86.1519 96.9569 86.2539 97.4489 86.2539ZM111.114 87.5319C110.838 87.7359 110.496 87.8919 110.088 87.9999C109.692 88.0959 109.272 88.1439 108.828 88.1439C107.676 88.1439 106.782 87.8499 106.146 87.2619C105.522 86.6739 105.21 85.8099 105.21 84.6699V80.6919H103.716V78.5319H105.21V76.1739H108.018V78.5319H110.43V80.6919H108.018V84.6339C108.018 85.0419 108.12 85.3599 108.324 85.5879C108.54 85.8039 108.84 85.9119 109.224 85.9119C109.668 85.9119 110.046 85.7919 110.358 85.5519L111.114 87.5319ZM117 88.1439C115.98 88.1439 115.062 87.9339 114.246 87.5139C113.442 87.0819 112.812 86.4879 112.356 85.7319C111.9 84.9759 111.672 84.1179 111.672 83.1579C111.672 82.1979 111.9 81.3399 112.356 80.5839C112.812 79.8279 113.442 79.2399 114.246 78.8199C115.062 78.3879 115.98 78.1719 117 78.1719C118.02 78.1719 118.932 78.3879 119.736 78.8199C120.54 79.2399 121.17 79.8279 121.626 80.5839C122.082 81.3399 122.31 82.1979 122.31 83.1579C122.31 84.1179 122.082 84.9759 121.626 85.7319C121.17 86.4879 120.54 87.0819 119.736 87.5139C118.932 87.9339 118.02 88.1439 117 88.1439ZM117 85.8399C117.72 85.8399 118.308 85.5999 118.764 85.1199C119.232 84.6279 119.466 83.9739 119.466 83.1579C119.466 82.3419 119.232 81.6939 118.764 81.2139C118.308 80.7219 117.72 80.4759 117 80.4759C116.28 80.4759 115.686 80.7219 115.218 81.2139C114.75 81.6939 114.516 82.3419 114.516 83.1579C114.516 83.9739 114.75 84.6279 115.218 85.1199C115.686 85.5999 116.28 85.8399 117 85.8399ZM126.869 79.5939C127.205 79.1259 127.655 78.7719 128.219 78.5319C128.795 78.2919 129.455 78.1719 130.199 78.1719V80.7639C129.887 80.7399 129.677 80.7279 129.569 80.7279C128.765 80.7279 128.135 80.9559 127.679 81.4119C127.223 81.8559 126.995 82.5279 126.995 83.4279V87.9999H124.187V78.3159H126.869V79.5939Z" fill="black"/>
    <path d="M57.4466 110.8C58.7666 110.872 59.7686 111.232 60.4526 111.88C61.1486 112.516 61.4966 113.35 61.4966 114.382C61.4966 115.102 61.3226 115.744 60.9746 116.308C60.6266 116.86 60.1106 117.298 59.4266 117.622C58.7426 117.946 57.9086 118.108 56.9246 118.108C56.0126 118.108 55.1486 117.964 54.3326 117.676C53.5286 117.376 52.8806 116.98 52.3886 116.488L53.0186 115.462C53.4386 115.894 53.9966 116.248 54.6926 116.524C55.3886 116.788 56.1326 116.92 56.9246 116.92C57.9566 116.92 58.7546 116.698 59.3186 116.254C59.8826 115.798 60.1646 115.174 60.1646 114.382C60.1646 113.602 59.8826 112.99 59.3186 112.546C58.7546 112.102 57.9026 111.88 56.7626 111.88H55.8626V110.926L59.3546 106.552H52.9106V105.4H61.0106V106.318L57.4466 110.8ZM70.4997 118.108C69.7797 118.108 69.1137 117.952 68.5017 117.64C67.8897 117.328 67.3917 116.884 67.0077 116.308L67.7997 115.408C68.4957 116.44 69.4017 116.956 70.5177 116.956C72.0777 116.956 72.8577 116.032 72.8577 114.184V106.552H68.2497V105.4H74.1717V114.13C74.1717 115.45 73.8597 116.446 73.2357 117.118C72.6237 117.778 71.7117 118.108 70.4997 118.108ZM81.2092 108.46C82.4452 108.46 83.3932 108.772 84.0532 109.396C84.7132 110.008 85.0432 110.92 85.0432 112.132V118H83.8192V116.524C83.5312 117.016 83.1052 117.4 82.5412 117.676C81.9892 117.952 81.3292 118.09 80.5612 118.09C79.5052 118.09 78.6652 117.838 78.0412 117.334C77.4172 116.83 77.1052 116.164 77.1052 115.336C77.1052 114.532 77.3932 113.884 77.9692 113.392C78.5572 112.9 79.4872 112.654 80.7592 112.654H83.7652V112.078C83.7652 111.262 83.5372 110.644 83.0812 110.224C82.6252 109.792 81.9592 109.576 81.0832 109.576C80.4832 109.576 79.9072 109.678 79.3552 109.882C78.8032 110.074 78.3292 110.344 77.9332 110.692L77.3572 109.738C77.8372 109.33 78.4132 109.018 79.0852 108.802C79.7572 108.574 80.4652 108.46 81.2092 108.46ZM80.7592 117.082C81.4792 117.082 82.0972 116.92 82.6132 116.596C83.1292 116.26 83.5132 115.78 83.7652 115.156V113.608H80.7952C79.1752 113.608 78.3652 114.172 78.3652 115.3C78.3652 115.852 78.5752 116.29 78.9952 116.614C79.4152 116.926 80.0032 117.082 80.7592 117.082ZM93.3384 108.46C94.5264 108.46 95.4684 108.808 96.1644 109.504C96.8724 110.188 97.2264 111.19 97.2264 112.51V118H95.9484V112.636C95.9484 111.652 95.7024 110.902 95.2104 110.386C94.7184 109.87 94.0164 109.612 93.1044 109.612C92.0844 109.612 91.2744 109.918 90.6744 110.53C90.0864 111.13 89.7924 111.964 89.7924 113.032V118H88.5144V104.644H89.7924V110.188C90.1404 109.636 90.6204 109.21 91.2324 108.91C91.8444 108.61 92.5464 108.46 93.3384 108.46ZM101.92 110.386C102.22 109.75 102.664 109.27 103.252 108.946C103.852 108.622 104.59 108.46 105.466 108.46V109.702L105.16 109.684C104.164 109.684 103.384 109.99 102.82 110.602C102.256 111.214 101.974 112.072 101.974 113.176V118H100.696V108.532H101.92V110.386ZM115.936 113.662H108.016C108.088 114.646 108.466 115.444 109.15 116.056C109.834 116.656 110.698 116.956 111.742 116.956C112.33 116.956 112.87 116.854 113.362 116.65C113.854 116.434 114.28 116.122 114.64 115.714L115.36 116.542C114.94 117.046 114.412 117.43 113.776 117.694C113.152 117.958 112.462 118.09 111.706 118.09C110.734 118.09 109.87 117.886 109.114 117.478C108.37 117.058 107.788 116.482 107.368 115.75C106.948 115.018 106.738 114.19 106.738 113.266C106.738 112.342 106.936 111.514 107.332 110.782C107.74 110.05 108.292 109.48 108.988 109.072C109.696 108.664 110.488 108.46 111.364 108.46C112.24 108.46 113.026 108.664 113.722 109.072C114.418 109.48 114.964 110.05 115.36 110.782C115.756 111.502 115.954 112.33 115.954 113.266L115.936 113.662ZM111.364 109.558C110.452 109.558 109.684 109.852 109.06 110.44C108.448 111.016 108.1 111.772 108.016 112.708H114.73C114.646 111.772 114.292 111.016 113.668 110.44C113.056 109.852 112.288 109.558 111.364 109.558Z" fill="black"/>
    <g filter="url(#filter0_d_0_1)">
        <path d="M2.916 85C1.30554 85 -0.00528249 83.6937 0.050593 82.0842C0.677194 64.035 7.1078 46.6382 18.4278 32.4997C30.3562 17.6012 47.0026 7.20898 65.6258 3.03423C84.249 -1.14053 103.739 1.15111 120.886 9.53177C138.033 17.9124 151.814 31.8825 159.962 49.1415C168.109 66.4005 170.136 85.9195 165.709 104.484C161.282 123.049 150.665 139.553 135.606 151.278C120.547 163.004 101.944 169.251 82.8606 168.992C64.7504 168.747 47.232 162.655 32.8984 151.668C31.6203 150.688 31.4448 148.846 32.4683 147.603C33.4918 146.359 35.3265 146.186 36.6071 147.162C49.9156 157.309 66.1545 162.933 82.9397 163.161C100.698 163.402 118.01 157.588 132.023 146.677C146.036 135.766 155.916 120.408 160.036 103.132C164.156 85.8557 162.269 67.6918 154.688 51.6311C147.106 35.5703 134.281 22.5702 118.325 14.7714C102.368 6.97261 84.2317 4.84008 66.9015 8.72499C49.5713 12.6099 34.0806 22.2806 22.9804 36.1447C12.4886 49.2488 6.51029 65.3606 5.88636 82.0844C5.82632 83.6937 4.52646 85 2.916 85Z" fill="#005C7E"/>
    </g>
    <defs>
        <filter id="filter0_d_0_1" x="0.0488281" y="-9.15527e-05" width="183.951" height="184" filterUnits="userSpaceOnUse" color-interpolation-filters="sRGB">
            <feFlood flood-opacity="0" result="BackgroundImageFix"/>
            <feColorMatrix in="SourceAlpha" type="matrix" values="0 0 0 0 0 0 0 0 0 0 0 0 0 0 0 0 0 0 127 0" result="hardAlpha"/>
            <feOffset dx="8" dy="7"/>
            <feGaussianBlur stdDeviation="4"/>
            <feComposite in2="hardAlpha" operator="out"/>
            <feColorMatrix type="matrix" values="0 0 0 0 0 0 0 0 0 0 0 0 0 0 0 0 0 0 0.25 0"/>
            <feBlend mode="normal" in2="BackgroundImageFix" result="effect1_dropShadow_0_1"/>
            <feBlend mode="normal" in="SourceGraphic" in2="effect1_dropShadow_0_1" result="shape"/>
        </filter>
    </defs>
</svg>
