<svg width="189" height="185" viewBox="0 0 189 185" fill="none" xmlns="http://www.w3.org/2000/svg">
    <g filter="url(#filter0_d_0_1)">
        <path d="M3.0018 85.5C1.34341 85.5 -0.00667408 84.1547 0.0536099 82.4974C0.75932 63.0964 8.28686 44.4883 21.419 29.8364C35.2272 14.4302 54.2925 4.44625 75.0704 1.74078C95.8483 -0.964691 116.925 3.79239 134.382 15.1276C151.839 26.4628 164.489 43.605 169.979 63.367C175.47 83.1291 173.427 104.166 164.232 122.568C155.037 140.97 139.314 155.483 119.987 163.411C100.66 171.338 79.0435 172.14 59.1566 165.667C40.2513 159.514 24.1317 147.185 13.482 130.804C12.5706 129.402 13.0604 127.538 14.5116 126.707C15.9216 125.9 17.7133 126.373 18.6004 127.734C28.5111 142.94 43.4911 154.385 61.055 160.102C79.5611 166.125 99.6767 165.379 117.662 158.001C135.647 150.624 150.278 137.118 158.835 119.994C167.392 102.87 169.292 83.2937 164.183 64.9037C159.074 46.5137 147.303 30.5617 131.058 20.0135C114.813 9.46522 95.1992 5.03842 75.8639 7.55606C56.5286 10.0737 38.787 19.3645 25.9374 33.7011C13.764 47.2833 6.76606 64.5187 6.06324 82.4976C5.99846 84.1547 4.66019 85.5 3.0018 85.5Z" fill="#005C7E"/>
    </g>
    <path d="M41.9312 77.216C41.0792 77.216 40.2932 77.06 39.5732 76.748C38.8652 76.424 38.2832 75.968 37.8272 75.38L39.4472 73.436C40.1312 74.36 40.9112 74.822 41.7872 74.822C42.9752 74.822 43.5692 74.126 43.5692 72.734V66.74H39.1412V64.4H46.4672V72.572C46.4672 74.12 46.0832 75.284 45.3152 76.064C44.5472 76.832 43.4192 77.216 41.9312 77.216ZM53.0555 67.172C54.5555 67.172 55.7075 67.532 56.5115 68.252C57.3155 68.96 57.7175 70.034 57.7175 71.474V77H55.0895V75.794C54.5615 76.694 53.5775 77.144 52.1375 77.144C51.3935 77.144 50.7455 77.018 50.1935 76.766C49.6535 76.514 49.2395 76.166 48.9515 75.722C48.6635 75.278 48.5195 74.774 48.5195 74.21C48.5195 73.31 48.8555 72.602 49.5275 72.086C50.2115 71.57 51.2615 71.312 52.6775 71.312H54.9095C54.9095 70.7 54.7235 70.232 54.3515 69.908C53.9795 69.572 53.4215 69.404 52.6775 69.404C52.1615 69.404 51.6515 69.488 51.1475 69.656C50.6555 69.812 50.2355 70.028 49.8875 70.304L48.8795 68.342C49.4075 67.97 50.0375 67.682 50.7695 67.478C51.5135 67.274 52.2755 67.172 53.0555 67.172ZM52.8395 75.254C53.3195 75.254 53.7455 75.146 54.1175 74.93C54.4895 74.702 54.7535 74.372 54.9095 73.94V72.95H52.9835C51.8315 72.95 51.2555 73.328 51.2555 74.084C51.2555 74.444 51.3935 74.732 51.6695 74.948C51.9575 75.152 52.3475 75.254 52.8395 75.254ZM69.6951 67.316L65.6091 77H62.7111L58.6431 67.316H61.5411L64.2231 73.904L66.9951 67.316H69.6951ZM74.4305 67.172C75.9305 67.172 77.0825 67.532 77.8865 68.252C78.6905 68.96 79.0925 70.034 79.0925 71.474V77H76.4645V75.794C75.9365 76.694 74.9525 77.144 73.5125 77.144C72.7685 77.144 72.1205 77.018 71.5685 76.766C71.0285 76.514 70.6145 76.166 70.3265 75.722C70.0385 75.278 69.8945 74.774 69.8945 74.21C69.8945 73.31 70.2305 72.602 70.9025 72.086C71.5865 71.57 72.6365 71.312 74.0525 71.312H76.2845C76.2845 70.7 76.0985 70.232 75.7265 69.908C75.3545 69.572 74.7965 69.404 74.0525 69.404C73.5365 69.404 73.0265 69.488 72.5225 69.656C72.0305 69.812 71.6105 70.028 71.2625 70.304L70.2545 68.342C70.7825 67.97 71.4125 67.682 72.1445 67.478C72.8885 67.274 73.6505 67.172 74.4305 67.172ZM74.2145 75.254C74.6945 75.254 75.1205 75.146 75.4925 74.93C75.8645 74.702 76.1285 74.372 76.2845 73.94V72.95H74.3585C73.2065 72.95 72.6305 73.328 72.6305 74.084C72.6305 74.444 72.7685 74.732 73.0445 74.948C73.3325 75.152 73.7225 75.254 74.2145 75.254ZM84.8919 77.144C84.0879 77.144 83.3019 77.048 82.5339 76.856C81.7659 76.652 81.1539 76.4 80.6979 76.1L81.6339 74.084C82.0659 74.36 82.5879 74.588 83.1999 74.768C83.8119 74.936 84.4119 75.02 84.9999 75.02C86.1879 75.02 86.7819 74.726 86.7819 74.138C86.7819 73.862 86.6199 73.664 86.2959 73.544C85.9719 73.424 85.4739 73.322 84.8019 73.238C84.0099 73.118 83.3559 72.98 82.8399 72.824C82.3239 72.668 81.8739 72.392 81.4899 71.996C81.1179 71.6 80.9319 71.036 80.9319 70.304C80.9319 69.692 81.1059 69.152 81.4539 68.684C81.8139 68.204 82.3299 67.832 83.0019 67.568C83.6859 67.304 84.4899 67.172 85.4139 67.172C86.0979 67.172 86.7759 67.25 87.4479 67.406C88.1319 67.55 88.6959 67.754 89.1399 68.018L88.2039 70.016C87.3519 69.536 86.4219 69.296 85.4139 69.296C84.8139 69.296 84.3639 69.38 84.0639 69.548C83.7639 69.716 83.6139 69.932 83.6139 70.196C83.6139 70.496 83.7759 70.706 84.0999 70.826C84.4239 70.946 84.9399 71.06 85.6479 71.168C86.4399 71.3 87.0879 71.444 87.5919 71.6C88.0959 71.744 88.5339 72.014 88.9059 72.41C89.2779 72.806 89.4639 73.358 89.4639 74.066C89.4639 74.666 89.2839 75.2 88.9239 75.668C88.5639 76.136 88.0359 76.502 87.3399 76.766C86.6559 77.018 85.8399 77.144 84.8919 77.144ZM95.8764 77.144C94.8444 77.144 93.9144 76.934 93.0864 76.514C92.2704 76.082 91.6284 75.488 91.1604 74.732C90.7044 73.976 90.4764 73.118 90.4764 72.158C90.4764 71.198 90.7044 70.34 91.1604 69.584C91.6284 68.828 92.2704 68.24 93.0864 67.82C93.9144 67.388 94.8444 67.172 95.8764 67.172C96.8964 67.172 97.7844 67.388 98.5404 67.82C99.3084 68.24 99.8664 68.846 100.214 69.638L98.0364 70.808C97.5324 69.92 96.8064 69.476 95.8584 69.476C95.1264 69.476 94.5204 69.716 94.0404 70.196C93.5604 70.676 93.3204 71.33 93.3204 72.158C93.3204 72.986 93.5604 73.64 94.0404 74.12C94.5204 74.6 95.1264 74.84 95.8584 74.84C96.8184 74.84 97.5444 74.396 98.0364 73.508L100.214 74.696C99.8664 75.464 99.3084 76.064 98.5404 76.496C97.7844 76.928 96.8964 77.144 95.8764 77.144ZM104.513 68.594C104.849 68.126 105.299 67.772 105.863 67.532C106.439 67.292 107.099 67.172 107.843 67.172V69.764C107.531 69.74 107.321 69.728 107.213 69.728C106.409 69.728 105.779 69.956 105.323 70.412C104.867 70.856 104.639 71.528 104.639 72.428V77H101.831V67.316H104.513V68.594ZM109.513 67.316H112.321V77H109.513V67.316ZM110.917 65.966C110.401 65.966 109.981 65.816 109.657 65.516C109.333 65.216 109.171 64.844 109.171 64.4C109.171 63.956 109.333 63.584 109.657 63.284C109.981 62.984 110.401 62.834 110.917 62.834C111.433 62.834 111.853 62.978 112.177 63.266C112.501 63.554 112.663 63.914 112.663 64.346C112.663 64.814 112.501 65.204 112.177 65.516C111.853 65.816 111.433 65.966 110.917 65.966ZM120.651 67.172C121.551 67.172 122.367 67.382 123.099 67.802C123.843 68.21 124.425 68.792 124.845 69.548C125.265 70.292 125.475 71.162 125.475 72.158C125.475 73.154 125.265 74.03 124.845 74.786C124.425 75.53 123.843 76.112 123.099 76.532C122.367 76.94 121.551 77.144 120.651 77.144C119.415 77.144 118.443 76.754 117.735 75.974V80.492H114.927V67.316H117.609V68.432C118.305 67.592 119.319 67.172 120.651 67.172ZM120.165 74.84C120.885 74.84 121.473 74.6 121.929 74.12C122.397 73.628 122.631 72.974 122.631 72.158C122.631 71.342 122.397 70.694 121.929 70.214C121.473 69.722 120.885 69.476 120.165 69.476C119.445 69.476 118.851 69.722 118.383 70.214C117.927 70.694 117.699 71.342 117.699 72.158C117.699 72.974 117.927 73.628 118.383 74.12C118.851 74.6 119.445 74.84 120.165 74.84ZM133.601 76.532C133.325 76.736 132.983 76.892 132.575 77C132.179 77.096 131.759 77.144 131.315 77.144C130.163 77.144 129.269 76.85 128.633 76.262C128.009 75.674 127.697 74.81 127.697 73.67V69.692H126.203V67.532H127.697V65.174H130.505V67.532H132.917V69.692H130.505V73.634C130.505 74.042 130.607 74.36 130.811 74.588C131.027 74.804 131.327 74.912 131.711 74.912C132.155 74.912 132.533 74.792 132.845 74.552L133.601 76.532Z" fill="black"/>
    <path d="M59.4446 98.8C60.7646 98.872 61.7666 99.232 62.4506 99.88C63.1466 100.516 63.4946 101.35 63.4946 102.382C63.4946 103.102 63.3206 103.744 62.9726 104.308C62.6246 104.86 62.1086 105.298 61.4246 105.622C60.7406 105.946 59.9066 106.108 58.9226 106.108C58.0106 106.108 57.1466 105.964 56.3306 105.676C55.5266 105.376 54.8786 104.98 54.3866 104.488L55.0166 103.462C55.4366 103.894 55.9946 104.248 56.6906 104.524C57.3866 104.788 58.1306 104.92 58.9226 104.92C59.9546 104.92 60.7526 104.698 61.3166 104.254C61.8806 103.798 62.1626 103.174 62.1626 102.382C62.1626 101.602 61.8806 100.99 61.3166 100.546C60.7526 100.102 59.9006 99.88 58.7606 99.88H57.8606V98.926L61.3526 94.552H54.9086V93.4H63.0086V94.318L59.4446 98.8ZM72.4977 106.108C71.7777 106.108 71.1117 105.952 70.4997 105.64C69.8877 105.328 69.3897 104.884 69.0057 104.308L69.7977 103.408C70.4937 104.44 71.3997 104.956 72.5157 104.956C74.0757 104.956 74.8557 104.032 74.8557 102.184V94.552H70.2477V93.4H76.1697V102.13C76.1697 103.45 75.8577 104.446 75.2337 105.118C74.6217 105.778 73.7097 106.108 72.4977 106.108ZM83.2073 96.46C84.4433 96.46 85.3913 96.772 86.0513 97.396C86.7113 98.008 87.0413 98.92 87.0413 100.132V106H85.8173V104.524C85.5293 105.016 85.1033 105.4 84.5393 105.676C83.9873 105.952 83.3273 106.09 82.5593 106.09C81.5033 106.09 80.6633 105.838 80.0393 105.334C79.4153 104.83 79.1033 104.164 79.1033 103.336C79.1033 102.532 79.3913 101.884 79.9673 101.392C80.5553 100.9 81.4853 100.654 82.7573 100.654H85.7633V100.078C85.7633 99.262 85.5353 98.644 85.0793 98.224C84.6233 97.792 83.9573 97.576 83.0813 97.576C82.4813 97.576 81.9053 97.678 81.3533 97.882C80.8013 98.074 80.3273 98.344 79.9313 98.692L79.3553 97.738C79.8353 97.33 80.4113 97.018 81.0833 96.802C81.7553 96.574 82.4633 96.46 83.2073 96.46ZM82.7573 105.082C83.4773 105.082 84.0953 104.92 84.6113 104.596C85.1273 104.26 85.5113 103.78 85.7633 103.156V101.608H82.7933C81.1733 101.608 80.3633 102.172 80.3633 103.3C80.3633 103.852 80.5733 104.29 80.9933 104.614C81.4133 104.926 82.0013 105.082 82.7573 105.082ZM95.3365 96.46C96.5245 96.46 97.4665 96.808 98.1625 97.504C98.8705 98.188 99.2245 99.19 99.2245 100.51V106H97.9465V100.636C97.9465 99.652 97.7005 98.902 97.2085 98.386C96.7165 97.87 96.0145 97.612 95.1025 97.612C94.0825 97.612 93.2725 97.918 92.6725 98.53C92.0845 99.13 91.7905 99.964 91.7905 101.032V106H90.5125V92.644H91.7905V98.188C92.1385 97.636 92.6185 97.21 93.2305 96.91C93.8425 96.61 94.5445 96.46 95.3365 96.46ZM103.918 98.386C104.218 97.75 104.662 97.27 105.25 96.946C105.85 96.622 106.588 96.46 107.464 96.46V97.702L107.158 97.684C106.162 97.684 105.382 97.99 104.818 98.602C104.254 99.214 103.972 100.072 103.972 101.176V106H102.694V96.532H103.918V98.386ZM117.934 101.662H110.014C110.086 102.646 110.464 103.444 111.148 104.056C111.832 104.656 112.696 104.956 113.74 104.956C114.328 104.956 114.868 104.854 115.36 104.65C115.852 104.434 116.278 104.122 116.638 103.714L117.358 104.542C116.938 105.046 116.41 105.43 115.774 105.694C115.15 105.958 114.46 106.09 113.704 106.09C112.732 106.09 111.868 105.886 111.112 105.478C110.368 105.058 109.786 104.482 109.366 103.75C108.946 103.018 108.736 102.19 108.736 101.266C108.736 100.342 108.934 99.514 109.33 98.782C109.738 98.05 110.29 97.48 110.986 97.072C111.694 96.664 112.486 96.46 113.362 96.46C114.238 96.46 115.024 96.664 115.72 97.072C116.416 97.48 116.962 98.05 117.358 98.782C117.754 99.502 117.952 100.33 117.952 101.266L117.934 101.662ZM113.362 97.558C112.45 97.558 111.682 97.852 111.058 98.44C110.446 99.016 110.098 99.772 110.014 100.708H116.728C116.644 99.772 116.29 99.016 115.666 98.44C115.054 97.852 114.286 97.558 113.362 97.558Z" fill="black"/>
    <defs>
        <filter id="filter0_d_0_1" x="0.0517578" y="-0.000213623" width="188.947" height="185" filterUnits="userSpaceOnUse" color-interpolation-filters="sRGB">
            <feFlood flood-opacity="0" result="BackgroundImageFix"/>
            <feColorMatrix in="SourceAlpha" type="matrix" values="0 0 0 0 0 0 0 0 0 0 0 0 0 0 0 0 0 0 127 0" result="hardAlpha"/>
            <feOffset dx="8" dy="7"/>
            <feGaussianBlur stdDeviation="4"/>
            <feComposite in2="hardAlpha" operator="out"/>
            <feColorMatrix type="matrix" values="0 0 0 0 0 0 0 0 0 0 0 0 0 0 0 0 0 0 0.25 0"/>
            <feBlend mode="normal" in2="BackgroundImageFix" result="effect1_dropShadow_0_1"/>
            <feBlend mode="normal" in="SourceGraphic" in2="effect1_dropShadow_0_1" result="shape"/>
        </filter>
    </defs>
</svg>
