<svg width="185" height="185" viewBox="0 0 185 185" fill="none" xmlns="http://www.w3.org/2000/svg">
    <path d="M64.9229 58.2999H59.0729L57.9569 60.9999H54.9689L60.5849 48.3999H63.4649L69.0989 60.9999H66.0389L64.9229 58.2999ZM64.0049 56.0859L62.0069 51.2619L60.0089 56.0859H64.0049ZM79.9842 47.6439V60.9999H77.3022V59.8839C76.6062 60.7239 75.5982 61.1439 74.2782 61.1439C73.3662 61.1439 72.5382 60.9399 71.7942 60.5319C71.0622 60.1239 70.4862 59.5419 70.0662 58.7859C69.6462 58.0299 69.4362 57.1539 69.4362 56.1579C69.4362 55.1619 69.6462 54.2859 70.0662 53.5299C70.4862 52.7739 71.0622 52.1919 71.7942 51.7839C72.5382 51.3759 73.3662 51.1719 74.2782 51.1719C75.5142 51.1719 76.4802 51.5619 77.1762 52.3419V47.6439H79.9842ZM74.7642 58.8399C75.4722 58.8399 76.0602 58.5999 76.5282 58.1199C76.9962 57.6279 77.2302 56.9739 77.2302 56.1579C77.2302 55.3419 76.9962 54.6939 76.5282 54.2139C76.0602 53.7219 75.4722 53.4759 74.7642 53.4759C74.0442 53.4759 73.4502 53.7219 72.9822 54.2139C72.5142 54.6939 72.2802 55.3419 72.2802 56.1579C72.2802 56.9739 72.5142 57.6279 72.9822 58.1199C73.4502 58.5999 74.0442 58.8399 74.7642 58.8399ZM87.1911 61.1439C86.1711 61.1439 85.2531 60.9339 84.4371 60.5139C83.6331 60.0819 83.0031 59.4879 82.5471 58.7319C82.0911 57.9759 81.8631 57.1179 81.8631 56.1579C81.8631 55.1979 82.0911 54.3399 82.5471 53.5839C83.0031 52.8279 83.6331 52.2399 84.4371 51.8199C85.2531 51.3879 86.1711 51.1719 87.1911 51.1719C88.2111 51.1719 89.1231 51.3879 89.9271 51.8199C90.7311 52.2399 91.3611 52.8279 91.8171 53.5839C92.2731 54.3399 92.5011 55.1979 92.5011 56.1579C92.5011 57.1179 92.2731 57.9759 91.8171 58.7319C91.3611 59.4879 90.7311 60.0819 89.9271 60.5139C89.1231 60.9339 88.2111 61.1439 87.1911 61.1439ZM87.1911 58.8399C87.9111 58.8399 88.4991 58.5999 88.9551 58.1199C89.4231 57.6279 89.6571 56.9739 89.6571 56.1579C89.6571 55.3419 89.4231 54.6939 88.9551 54.2139C88.4991 53.7219 87.9111 53.4759 87.1911 53.4759C86.4711 53.4759 85.8771 53.7219 85.4091 54.2139C84.9411 54.6939 84.7071 55.3419 84.7071 56.1579C84.7071 56.9739 84.9411 57.6279 85.4091 58.1199C85.8771 58.5999 86.4711 58.8399 87.1911 58.8399ZM100.102 51.1719C101.002 51.1719 101.818 51.3819 102.55 51.8019C103.294 52.2099 103.876 52.7919 104.296 53.5479C104.716 54.2919 104.926 55.1619 104.926 56.1579C104.926 57.1539 104.716 58.0299 104.296 58.7859C103.876 59.5299 103.294 60.1119 102.55 60.5319C101.818 60.9399 101.002 61.1439 100.102 61.1439C98.77 61.1439 97.756 60.7239 97.06 59.8839V60.9999H94.378V47.6439H97.186V52.3419C97.894 51.5619 98.866 51.1719 100.102 51.1719ZM99.616 58.8399C100.336 58.8399 100.924 58.5999 101.38 58.1199C101.848 57.6279 102.082 56.9739 102.082 56.1579C102.082 55.3419 101.848 54.6939 101.38 54.2139C100.924 53.7219 100.336 53.4759 99.616 53.4759C98.896 53.4759 98.302 53.7219 97.834 54.2139C97.378 54.6939 97.15 55.3419 97.15 56.1579C97.15 56.9739 97.378 57.6279 97.834 58.1199C98.302 58.5999 98.896 58.8399 99.616 58.8399ZM116.292 56.1939C116.292 56.2299 116.274 56.4819 116.238 56.9499H108.912C109.044 57.5499 109.356 58.0239 109.848 58.3719C110.34 58.7199 110.952 58.8939 111.684 58.8939C112.188 58.8939 112.632 58.8219 113.016 58.6779C113.412 58.5219 113.778 58.2819 114.114 57.9579L115.608 59.5779C114.696 60.6219 113.364 61.1439 111.612 61.1439C110.52 61.1439 109.554 60.9339 108.714 60.5139C107.874 60.0819 107.226 59.4879 106.77 58.7319C106.314 57.9759 106.086 57.1179 106.086 56.1579C106.086 55.2099 106.308 54.3579 106.752 53.6019C107.208 52.8339 107.826 52.2399 108.606 51.8199C109.398 51.3879 110.28 51.1719 111.252 51.1719C112.2 51.1719 113.058 51.3759 113.826 51.7839C114.594 52.1919 115.194 52.7799 115.626 53.5479C116.07 54.3039 116.292 55.1859 116.292 56.1939ZM111.27 53.2959C110.634 53.2959 110.1 53.4759 109.668 53.8359C109.236 54.1959 108.972 54.6879 108.876 55.3119H113.646C113.55 54.6999 113.286 54.2139 112.854 53.8539C112.422 53.4819 111.894 53.2959 111.27 53.2959ZM41.3543 78.3999C42.4703 78.3999 43.4363 78.5859 44.2523 78.9579C45.0803 79.3299 45.7163 79.8579 46.1603 80.5419C46.6043 81.2259 46.8263 82.0359 46.8263 82.9719C46.8263 83.8959 46.6043 84.7059 46.1603 85.4019C45.7163 86.0859 45.0803 86.6139 44.2523 86.9859C43.4363 87.3459 42.4703 87.5259 41.3543 87.5259H38.8163V90.9999H35.9003V78.3999H41.3543ZM41.1923 85.1499C42.0683 85.1499 42.7343 84.9639 43.1903 84.5919C43.6463 84.2079 43.8743 83.6679 43.8743 82.9719C43.8743 82.2639 43.6463 81.7239 43.1903 81.3519C42.7343 80.9679 42.0683 80.7759 41.1923 80.7759H38.8163V85.1499H41.1923ZM54.7718 81.1719C55.9718 81.1719 56.9378 81.5319 57.6698 82.2519C58.4138 82.9719 58.7858 84.0399 58.7858 85.4559V90.9999H55.9778V85.8879C55.9778 85.1199 55.8098 84.5499 55.4738 84.1779C55.1378 83.7939 54.6518 83.6019 54.0158 83.6019C53.3078 83.6019 52.7438 83.8239 52.3238 84.2679C51.9038 84.6999 51.6938 85.3479 51.6938 86.2119V90.9999H48.8858V77.6439H51.6938V82.3239C52.0658 81.9519 52.5158 81.6699 53.0438 81.4779C53.5718 81.2739 54.1478 81.1719 54.7718 81.1719ZM66.0446 91.1439C65.0246 91.1439 64.1066 90.9339 63.2906 90.5139C62.4866 90.0819 61.8566 89.4879 61.4006 88.7319C60.9446 87.9759 60.7166 87.1179 60.7166 86.1579C60.7166 85.1979 60.9446 84.3399 61.4006 83.5839C61.8566 82.8279 62.4866 82.2399 63.2906 81.8199C64.1066 81.3879 65.0246 81.1719 66.0446 81.1719C67.0646 81.1719 67.9766 81.3879 68.7806 81.8199C69.5846 82.2399 70.2146 82.8279 70.6706 83.5839C71.1266 84.3399 71.3546 85.1979 71.3546 86.1579C71.3546 87.1179 71.1266 87.9759 70.6706 88.7319C70.2146 89.4879 69.5846 90.0819 68.7806 90.5139C67.9766 90.9339 67.0646 91.1439 66.0446 91.1439ZM66.0446 88.8399C66.7646 88.8399 67.3526 88.5999 67.8086 88.1199C68.2766 87.6279 68.5106 86.9739 68.5106 86.1579C68.5106 85.3419 68.2766 84.6939 67.8086 84.2139C67.3526 83.7219 66.7646 83.4759 66.0446 83.4759C65.3246 83.4759 64.7306 83.7219 64.2626 84.2139C63.7946 84.6939 63.5606 85.3419 63.5606 86.1579C63.5606 86.9739 63.7946 87.6279 64.2626 88.1199C64.7306 88.5999 65.3246 88.8399 66.0446 88.8399ZM79.4775 90.5319C79.2015 90.7359 78.8595 90.8919 78.4515 90.9999C78.0555 91.0959 77.6355 91.1439 77.1915 91.1439C76.0395 91.1439 75.1455 90.8499 74.5095 90.2619C73.8855 89.6739 73.5735 88.8099 73.5735 87.6699V83.6919H72.0795V81.5319H73.5735V79.1739H76.3815V81.5319H78.7935V83.6919H76.3815V87.6339C76.3815 88.0419 76.4835 88.3599 76.6875 88.5879C76.9035 88.8039 77.2035 88.9119 77.5875 88.9119C78.0315 88.9119 78.4095 88.7919 78.7215 88.5519L79.4775 90.5319ZM85.363 91.1439C84.343 91.1439 83.425 90.9339 82.609 90.5139C81.805 90.0819 81.175 89.4879 80.719 88.7319C80.263 87.9759 80.035 87.1179 80.035 86.1579C80.035 85.1979 80.263 84.3399 80.719 83.5839C81.175 82.8279 81.805 82.2399 82.609 81.8199C83.425 81.3879 84.343 81.1719 85.363 81.1719C86.383 81.1719 87.295 81.3879 88.099 81.8199C88.903 82.2399 89.533 82.8279 89.989 83.5839C90.445 84.3399 90.673 85.1979 90.673 86.1579C90.673 87.1179 90.445 87.9759 89.989 88.7319C89.533 89.4879 88.903 90.0819 88.099 90.5139C87.295 90.9339 86.383 91.1439 85.363 91.1439ZM85.363 88.8399C86.083 88.8399 86.671 88.5999 87.127 88.1199C87.595 87.6279 87.829 86.9739 87.829 86.1579C87.829 85.3419 87.595 84.6939 87.127 84.2139C86.671 83.7219 86.083 83.4759 85.363 83.4759C84.643 83.4759 84.049 83.7219 83.581 84.2139C83.113 84.6939 82.879 85.3419 82.879 86.1579C82.879 86.9739 83.113 87.6279 83.581 88.1199C84.049 88.5999 84.643 88.8399 85.363 88.8399ZM95.8079 91.1439C95.0039 91.1439 94.2179 91.0479 93.4499 90.8559C92.6819 90.6519 92.0699 90.3999 91.6139 90.0999L92.5499 88.0839C92.9819 88.3599 93.5039 88.5879 94.1159 88.7679C94.7279 88.9359 95.3279 89.0199 95.9159 89.0199C97.1039 89.0199 97.6979 88.7259 97.6979 88.1379C97.6979 87.8619 97.5359 87.6639 97.2119 87.5439C96.8879 87.4239 96.3899 87.3219 95.7179 87.2379C94.9259 87.1179 94.2719 86.9799 93.7559 86.8239C93.2399 86.6679 92.7899 86.3919 92.4059 85.9959C92.0339 85.5999 91.8479 85.0359 91.8479 84.3039C91.8479 83.6919 92.0219 83.1519 92.3699 82.6839C92.7299 82.2039 93.2459 81.8319 93.9179 81.5679C94.6019 81.3039 95.4059 81.1719 96.3299 81.1719C97.0139 81.1719 97.6919 81.2499 98.3639 81.4059C99.0479 81.5499 99.6119 81.7539 100.056 82.0179L99.1199 84.0159C98.2679 83.5359 97.3379 83.2959 96.3299 83.2959C95.7299 83.2959 95.2799 83.3799 94.9799 83.5479C94.6799 83.7159 94.5299 83.9319 94.5299 84.1959C94.5299 84.4959 94.6919 84.7059 95.0159 84.8259C95.3399 84.9459 95.8559 85.0599 96.5639 85.1679C97.3559 85.2999 98.0039 85.4439 98.5079 85.5999C99.0119 85.7439 99.4499 86.0139 99.8219 86.4099C100.194 86.8059 100.38 87.3579 100.38 88.0659C100.38 88.6659 100.2 89.1999 99.8399 89.6679C99.4799 90.1359 98.9519 90.5019 98.2559 90.7659C97.5719 91.0179 96.7559 91.1439 95.8079 91.1439ZM107.998 81.1719C109.198 81.1719 110.164 81.5319 110.896 82.2519C111.64 82.9719 112.012 84.0399 112.012 85.4559V90.9999H109.204V85.8879C109.204 85.1199 109.036 84.5499 108.7 84.1779C108.364 83.7939 107.878 83.6019 107.242 83.6019C106.534 83.6019 105.97 83.8239 105.55 84.2679C105.13 84.6999 104.92 85.3479 104.92 86.2119V90.9999H102.112V77.6439H104.92V82.3239C105.292 81.9519 105.742 81.6699 106.27 81.4779C106.798 81.2739 107.374 81.1719 107.998 81.1719ZM119.271 91.1439C118.251 91.1439 117.333 90.9339 116.517 90.5139C115.713 90.0819 115.083 89.4879 114.627 88.7319C114.171 87.9759 113.943 87.1179 113.943 86.1579C113.943 85.1979 114.171 84.3399 114.627 83.5839C115.083 82.8279 115.713 82.2399 116.517 81.8199C117.333 81.3879 118.251 81.1719 119.271 81.1719C120.291 81.1719 121.203 81.3879 122.007 81.8199C122.811 82.2399 123.441 82.8279 123.897 83.5839C124.353 84.3399 124.581 85.1979 124.581 86.1579C124.581 87.1179 124.353 87.9759 123.897 88.7319C123.441 89.4879 122.811 90.0819 122.007 90.5139C121.203 90.9339 120.291 91.1439 119.271 91.1439ZM119.271 88.8399C119.991 88.8399 120.579 88.5999 121.035 88.1199C121.503 87.6279 121.737 86.9739 121.737 86.1579C121.737 85.3419 121.503 84.6939 121.035 84.2139C120.579 83.7219 119.991 83.4759 119.271 83.4759C118.551 83.4759 117.957 83.7219 117.489 84.2139C117.021 84.6939 116.787 85.3419 116.787 86.1579C116.787 86.9739 117.021 87.6279 117.489 88.1199C117.957 88.5999 118.551 88.8399 119.271 88.8399ZM132.182 81.1719C133.082 81.1719 133.898 81.3819 134.63 81.8019C135.374 82.2099 135.956 82.7919 136.376 83.5479C136.796 84.2919 137.006 85.1619 137.006 86.1579C137.006 87.1539 136.796 88.0299 136.376 88.7859C135.956 89.5299 135.374 90.1119 134.63 90.5319C133.898 90.9399 133.082 91.1439 132.182 91.1439C130.946 91.1439 129.974 90.7539 129.266 89.9739V94.4919H126.458V81.3159H129.14V82.4319C129.836 81.5919 130.85 81.1719 132.182 81.1719ZM131.696 88.8399C132.416 88.8399 133.004 88.5999 133.46 88.1199C133.928 87.6279 134.162 86.9739 134.162 86.1579C134.162 85.3419 133.928 84.6939 133.46 84.2139C133.004 83.7219 132.416 83.4759 131.696 83.4759C130.976 83.4759 130.382 83.7219 129.914 84.2139C129.458 84.6939 129.23 85.3419 129.23 86.1579C129.23 86.9739 129.458 87.6279 129.914 88.1199C130.382 88.5999 130.976 88.8399 131.696 88.8399Z" fill="black"/>
    <path d="M58.4446 111.8C59.7646 111.872 60.7666 112.232 61.4506 112.88C62.1466 113.516 62.4946 114.35 62.4946 115.382C62.4946 116.102 62.3206 116.744 61.9726 117.308C61.6246 117.86 61.1086 118.298 60.4246 118.622C59.7406 118.946 58.9066 119.108 57.9226 119.108C57.0106 119.108 56.1466 118.964 55.3306 118.676C54.5266 118.376 53.8786 117.98 53.3866 117.488L54.0166 116.462C54.4366 116.894 54.9946 117.248 55.6906 117.524C56.3866 117.788 57.1306 117.92 57.9226 117.92C58.9546 117.92 59.7526 117.698 60.3166 117.254C60.8806 116.798 61.1626 116.174 61.1626 115.382C61.1626 114.602 60.8806 113.99 60.3166 113.546C59.7526 113.102 58.9006 112.88 57.7606 112.88H56.8606V111.926L60.3526 107.552H53.9086V106.4H62.0086V107.318L58.4446 111.8ZM71.4977 119.108C70.7777 119.108 70.1117 118.952 69.4997 118.64C68.8877 118.328 68.3897 117.884 68.0057 117.308L68.7977 116.408C69.4937 117.44 70.3997 117.956 71.5157 117.956C73.0757 117.956 73.8557 117.032 73.8557 115.184V107.552H69.2477V106.4H75.1697V115.13C75.1697 116.45 74.8577 117.446 74.2337 118.118C73.6217 118.778 72.7097 119.108 71.4977 119.108ZM82.2073 109.46C83.4433 109.46 84.3913 109.772 85.0513 110.396C85.7113 111.008 86.0413 111.92 86.0413 113.132V119H84.8173V117.524C84.5293 118.016 84.1033 118.4 83.5393 118.676C82.9873 118.952 82.3273 119.09 81.5593 119.09C80.5033 119.09 79.6633 118.838 79.0393 118.334C78.4153 117.83 78.1033 117.164 78.1033 116.336C78.1033 115.532 78.3913 114.884 78.9673 114.392C79.5553 113.9 80.4853 113.654 81.7573 113.654H84.7633V113.078C84.7633 112.262 84.5353 111.644 84.0793 111.224C83.6233 110.792 82.9573 110.576 82.0813 110.576C81.4813 110.576 80.9053 110.678 80.3533 110.882C79.8013 111.074 79.3273 111.344 78.9313 111.692L78.3553 110.738C78.8353 110.33 79.4113 110.018 80.0833 109.802C80.7553 109.574 81.4633 109.46 82.2073 109.46ZM81.7573 118.082C82.4773 118.082 83.0953 117.92 83.6113 117.596C84.1273 117.26 84.5113 116.78 84.7633 116.156V114.608H81.7933C80.1733 114.608 79.3633 115.172 79.3633 116.3C79.3633 116.852 79.5733 117.29 79.9933 117.614C80.4133 117.926 81.0013 118.082 81.7573 118.082ZM94.3365 109.46C95.5245 109.46 96.4665 109.808 97.1625 110.504C97.8705 111.188 98.2245 112.19 98.2245 113.51V119H96.9465V113.636C96.9465 112.652 96.7005 111.902 96.2085 111.386C95.7165 110.87 95.0145 110.612 94.1025 110.612C93.0825 110.612 92.2725 110.918 91.6725 111.53C91.0845 112.13 90.7905 112.964 90.7905 114.032V119H89.5125V105.644H90.7905V111.188C91.1385 110.636 91.6185 110.21 92.2305 109.91C92.8425 109.61 93.5445 109.46 94.3365 109.46ZM102.918 111.386C103.218 110.75 103.662 110.27 104.25 109.946C104.85 109.622 105.588 109.46 106.464 109.46V110.702L106.158 110.684C105.162 110.684 104.382 110.99 103.818 111.602C103.254 112.214 102.972 113.072 102.972 114.176V119H101.694V109.532H102.918V111.386ZM116.934 114.662H109.014C109.086 115.646 109.464 116.444 110.148 117.056C110.832 117.656 111.696 117.956 112.74 117.956C113.328 117.956 113.868 117.854 114.36 117.65C114.852 117.434 115.278 117.122 115.638 116.714L116.358 117.542C115.938 118.046 115.41 118.43 114.774 118.694C114.15 118.958 113.46 119.09 112.704 119.09C111.732 119.09 110.868 118.886 110.112 118.478C109.368 118.058 108.786 117.482 108.366 116.75C107.946 116.018 107.736 115.19 107.736 114.266C107.736 113.342 107.934 112.514 108.33 111.782C108.738 111.05 109.29 110.48 109.986 110.072C110.694 109.664 111.486 109.46 112.362 109.46C113.238 109.46 114.024 109.664 114.72 110.072C115.416 110.48 115.962 111.05 116.358 111.782C116.754 112.502 116.952 113.33 116.952 114.266L116.934 114.662ZM112.362 110.558C111.45 110.558 110.682 110.852 110.058 111.44C109.446 112.016 109.098 112.772 109.014 113.708H115.728C115.644 112.772 115.29 112.016 114.666 111.44C114.054 110.852 113.286 110.558 112.362 110.558Z" fill="black"/>
    <g filter="url(#filter0_d_0_1)">
        <path d="M2.9314 85.5C1.31135 85.5 -0.00726534 84.1858 0.0489347 82.5667C0.729686 62.9549 8.21994 44.1553 21.2819 29.4289C34.9938 13.9697 53.8952 4.07078 74.4115 1.60416C94.9278 -0.862455 115.637 4.27422 132.622 16.0428C149.608 27.8113 161.692 45.3959 166.59 65.4711C171.488 85.5463 168.86 106.72 159.203 124.989C149.546 143.258 133.53 157.355 114.183 164.614C94.8358 171.874 73.4994 171.792 54.2085 164.385C35.832 157.329 20.5253 144.091 10.8889 126.996C10.0934 125.585 10.6586 123.811 12.0966 123.065C13.5346 122.319 15.3005 122.883 16.0997 124.293C25.0728 140.115 39.2744 152.366 56.3115 158.908C74.263 165.801 94.1181 165.877 112.122 159.121C130.126 152.366 145.03 139.248 154.016 122.248C163.003 105.247 165.448 85.5431 160.891 66.8617C156.333 48.1803 145.087 31.8166 129.281 20.8651C113.475 9.9136 94.2037 5.13356 75.1118 7.42892C56.0199 9.72429 38.4308 18.9359 25.6709 33.3218C13.561 46.9749 6.59749 64.3901 5.91944 82.5669C5.85904 84.1858 4.55145 85.5 2.9314 85.5Z" fill="#005C7E"/>
    </g>
    <defs>
        <filter id="filter0_d_0_1" x="0.046875" y="-0.000205994" width="184.951" height="185" filterUnits="userSpaceOnUse" color-interpolation-filters="sRGB">
            <feFlood flood-opacity="0" result="BackgroundImageFix"/>
            <feColorMatrix in="SourceAlpha" type="matrix" values="0 0 0 0 0 0 0 0 0 0 0 0 0 0 0 0 0 0 127 0" result="hardAlpha"/>
            <feOffset dx="8" dy="7"/>
            <feGaussianBlur stdDeviation="4"/>
            <feComposite in2="hardAlpha" operator="out"/>
            <feColorMatrix type="matrix" values="0 0 0 0 0 0 0 0 0 0 0 0 0 0 0 0 0 0 0.25 0"/>
            <feBlend mode="normal" in2="BackgroundImageFix" result="effect1_dropShadow_0_1"/>
            <feBlend mode="normal" in="SourceGraphic" in2="effect1_dropShadow_0_1" result="shape"/>
        </filter>
    </defs>
</svg>
