<svg width="188" height="145" viewBox="0 0 188 145" fill="none" xmlns="http://www.w3.org/2000/svg">
    <path d="M72.0818 64.4C73.1978 64.4 74.1638 64.586 74.9798 64.958C75.8078 65.33 76.4438 65.858 76.8878 66.542C77.3318 67.226 77.5538 68.036 77.5538 68.972C77.5538 69.896 77.3318 70.706 76.8878 71.402C76.4438 72.086 75.8078 72.614 74.9798 72.986C74.1638 73.346 73.1978 73.526 72.0818 73.526H69.5438V77H66.6278V64.4H72.0818ZM71.9198 71.15C72.7958 71.15 73.4618 70.964 73.9178 70.592C74.3738 70.208 74.6018 69.668 74.6018 68.972C74.6018 68.264 74.3738 67.724 73.9178 67.352C73.4618 66.968 72.7958 66.776 71.9198 66.776H69.5438V71.15H71.9198ZM91.1916 64.4V77H88.2756V71.834H82.5516V77H79.6356V64.4H82.5516V69.368H88.2756V64.4H91.1916ZM99.6267 64.4C100.743 64.4 101.709 64.586 102.525 64.958C103.353 65.33 103.989 65.858 104.433 66.542C104.877 67.226 105.099 68.036 105.099 68.972C105.099 69.896 104.877 70.706 104.433 71.402C103.989 72.086 103.353 72.614 102.525 72.986C101.709 73.346 100.743 73.526 99.6267 73.526H97.0887V77H94.1727V64.4H99.6267ZM99.4647 71.15C100.341 71.15 101.007 70.964 101.463 70.592C101.919 70.208 102.147 69.668 102.147 68.972C102.147 68.264 101.919 67.724 101.463 67.352C101.007 66.968 100.341 66.776 99.4647 66.776H97.0887V71.15H99.4647Z" fill="black"/>
    <path d="M65.7981 93.4V106H64.5021V94.552H61.5321V93.4H65.7981ZM75.987 106.108C75.267 106.108 74.601 105.952 73.989 105.64C73.377 105.328 72.879 104.884 72.495 104.308L73.287 103.408C73.983 104.44 74.889 104.956 76.005 104.956C77.565 104.956 78.345 104.032 78.345 102.184V94.552H73.737V93.4H79.659V102.13C79.659 103.45 79.347 104.446 78.723 105.118C78.111 105.778 77.199 106.108 75.987 106.108ZM86.6965 96.46C87.9325 96.46 88.8805 96.772 89.5405 97.396C90.2005 98.008 90.5305 98.92 90.5305 100.132V106H89.3065V104.524C89.0185 105.016 88.5925 105.4 88.0285 105.676C87.4765 105.952 86.8165 106.09 86.0485 106.09C84.9925 106.09 84.1525 105.838 83.5285 105.334C82.9045 104.83 82.5925 104.164 82.5925 103.336C82.5925 102.532 82.8805 101.884 83.4565 101.392C84.0445 100.9 84.9745 100.654 86.2465 100.654H89.2525V100.078C89.2525 99.262 89.0245 98.644 88.5685 98.224C88.1125 97.792 87.4465 97.576 86.5705 97.576C85.9705 97.576 85.3945 97.678 84.8425 97.882C84.2905 98.074 83.8165 98.344 83.4205 98.692L82.8445 97.738C83.3245 97.33 83.9005 97.018 84.5725 96.802C85.2445 96.574 85.9525 96.46 86.6965 96.46ZM86.2465 105.082C86.9665 105.082 87.5845 104.92 88.1005 104.596C88.6165 104.26 89.0005 103.78 89.2525 103.156V101.608H86.2825C84.6625 101.608 83.8525 102.172 83.8525 103.3C83.8525 103.852 84.0625 104.29 84.4825 104.614C84.9025 104.926 85.4905 105.082 86.2465 105.082ZM98.8257 96.46C100.014 96.46 100.956 96.808 101.652 97.504C102.36 98.188 102.714 99.19 102.714 100.51V106H101.436V100.636C101.436 99.652 101.19 98.902 100.698 98.386C100.206 97.87 99.5037 97.612 98.5917 97.612C97.5717 97.612 96.7617 97.918 96.1617 98.53C95.5737 99.13 95.2797 99.964 95.2797 101.032V106H94.0017V92.644H95.2797V98.188C95.6277 97.636 96.1077 97.21 96.7197 96.91C97.3317 96.61 98.0337 96.46 98.8257 96.46ZM107.407 98.386C107.707 97.75 108.151 97.27 108.739 96.946C109.339 96.622 110.077 96.46 110.953 96.46V97.702L110.647 97.684C109.651 97.684 108.871 97.99 108.307 98.602C107.743 99.214 107.461 100.072 107.461 101.176V106H106.183V96.532H107.407V98.386Z" fill="black"/>
    <g filter="url(#filter0_d_0_1)">
        <path d="M2.98347 85.5C1.33467 85.5 -0.00755695 84.1628 0.051714 82.5151C0.486583 70.4257 3.55897 58.5564 9.07474 47.7155C15.0439 35.9835 23.7106 25.778 34.3888 17.9068C45.0671 10.0356 57.4636 4.71493 70.5969 2.36603C83.7303 0.0171228 97.2398 0.704478 110.056 4.37367C122.872 8.04287 134.643 14.5932 144.437 23.5059C154.23 32.4187 161.778 43.4493 166.482 55.7243C171.186 67.9993 172.917 81.1817 171.538 94.2278C170.261 106.309 166.35 117.965 160.085 128.409C159.251 129.8 157.435 130.199 156.06 129.339C154.654 128.459 154.246 126.6 155.094 125.174C160.835 115.521 164.421 104.765 165.599 93.6219C166.882 81.4815 165.271 69.2143 160.894 57.7915C156.517 46.3688 149.493 36.1041 140.379 27.8101C131.266 19.5161 120.312 13.4206 108.386 10.0062C96.4593 6.5917 83.8877 5.95207 71.6662 8.13789C59.4447 10.3237 47.9089 15.275 37.972 22.5997C28.0351 29.9244 19.9701 39.4214 14.4154 50.3388C9.31409 60.3652 6.45869 71.3367 6.02656 82.5152C5.96287 84.1628 4.63228 85.5 2.98347 85.5Z" fill="#005C7E"/>
    </g>
    <defs>
        <filter id="filter0_d_0_1" x="0.0498047" y="0" width="187.948" height="144.791" filterUnits="userSpaceOnUse" color-interpolation-filters="sRGB">
            <feFlood flood-opacity="0" result="BackgroundImageFix"/>
            <feColorMatrix in="SourceAlpha" type="matrix" values="0 0 0 0 0 0 0 0 0 0 0 0 0 0 0 0 0 0 127 0" result="hardAlpha"/>
            <feOffset dx="8" dy="7"/>
            <feGaussianBlur stdDeviation="4"/>
            <feComposite in2="hardAlpha" operator="out"/>
            <feColorMatrix type="matrix" values="0 0 0 0 0 0 0 0 0 0 0 0 0 0 0 0 0 0 0.25 0"/>
            <feBlend mode="normal" in2="BackgroundImageFix" result="effect1_dropShadow_0_1"/>
            <feBlend mode="normal" in="SourceGraphic" in2="effect1_dropShadow_0_1" result="shape"/>
        </filter>
    </defs>
</svg>
