<svg width="185" height="185" viewBox="0 0 185 185" fill="none" xmlns="http://www.w3.org/2000/svg">
    <path d="M35.3894 64.3999C36.5054 64.3999 37.4714 64.5859 38.2874 64.9579C39.1154 65.3299 39.7514 65.8579 40.1954 66.5419C40.6394 67.2259 40.8614 68.0359 40.8614 68.9719C40.8614 69.8959 40.6394 70.7059 40.1954 71.4019C39.7514 72.0859 39.1154 72.6139 38.2874 72.9859C37.4714 73.3459 36.5054 73.5259 35.3894 73.5259H32.8514V76.9999H29.9354V64.3999H35.3894ZM35.2274 71.1499C36.1034 71.1499 36.7694 70.9639 37.2254 70.5919C37.6814 70.2079 37.9094 69.6679 37.9094 68.9719C37.9094 68.2639 37.6814 67.7239 37.2254 67.3519C36.7694 66.9679 36.1034 66.7759 35.2274 66.7759H32.8514V71.1499H35.2274ZM45.4272 68.5939C45.7632 68.1259 46.2132 67.7719 46.7772 67.5319C47.3532 67.2919 48.0132 67.1719 48.7572 67.1719V69.7639C48.4452 69.7399 48.2352 69.7279 48.1272 69.7279C47.3232 69.7279 46.6932 69.9559 46.2372 70.4119C45.7812 70.8559 45.5532 71.5279 45.5532 72.4279V76.9999H42.7452V67.3159H45.4272V68.5939ZM54.947 77.1439C53.927 77.1439 53.009 76.9339 52.193 76.5139C51.389 76.0819 50.759 75.4879 50.303 74.7319C49.847 73.9759 49.619 73.1179 49.619 72.1579C49.619 71.1979 49.847 70.3399 50.303 69.5839C50.759 68.8279 51.389 68.2399 52.193 67.8199C53.009 67.3879 53.927 67.1719 54.947 67.1719C55.967 67.1719 56.879 67.3879 57.683 67.8199C58.487 68.2399 59.117 68.8279 59.573 69.5839C60.029 70.3399 60.257 71.1979 60.257 72.1579C60.257 73.1179 60.029 73.9759 59.573 74.7319C59.117 75.4879 58.487 76.0819 57.683 76.5139C56.879 76.9339 55.967 77.1439 54.947 77.1439ZM54.947 74.8399C55.667 74.8399 56.255 74.5999 56.711 74.1199C57.179 73.6279 57.413 72.9739 57.413 72.1579C57.413 71.3419 57.179 70.6939 56.711 70.2139C56.255 69.7219 55.667 69.4759 54.947 69.4759C54.227 69.4759 53.633 69.7219 53.165 70.2139C52.697 70.6939 52.463 71.3419 52.463 72.1579C52.463 72.9739 52.697 73.6279 53.165 74.1199C53.633 74.5999 54.227 74.8399 54.947 74.8399ZM68.3799 76.5319C68.1039 76.7359 67.7619 76.8919 67.3539 76.9999C66.9579 77.0959 66.5379 77.1439 66.0939 77.1439C64.9419 77.1439 64.0479 76.8499 63.4119 76.2619C62.7879 75.6739 62.4759 74.8099 62.4759 73.6699V69.6919H60.9819V67.5319H62.4759V65.1739H65.2839V67.5319H67.6959V69.6919H65.2839V73.6339C65.2839 74.0419 65.3859 74.3599 65.5899 74.5879C65.8059 74.8039 66.1059 74.9119 66.4899 74.9119C66.9339 74.9119 67.3119 74.7919 67.6239 74.5519L68.3799 76.5319ZM74.2653 77.1439C73.2453 77.1439 72.3273 76.9339 71.5113 76.5139C70.7073 76.0819 70.0773 75.4879 69.6213 74.7319C69.1653 73.9759 68.9373 73.1179 68.9373 72.1579C68.9373 71.1979 69.1653 70.3399 69.6213 69.5839C70.0773 68.8279 70.7073 68.2399 71.5113 67.8199C72.3273 67.3879 73.2453 67.1719 74.2653 67.1719C75.2853 67.1719 76.1973 67.3879 77.0013 67.8199C77.8053 68.2399 78.4353 68.8279 78.8913 69.5839C79.3473 70.3399 79.5753 71.1979 79.5753 72.1579C79.5753 73.1179 79.3473 73.9759 78.8913 74.7319C78.4353 75.4879 77.8053 76.0819 77.0013 76.5139C76.1973 76.9339 75.2853 77.1439 74.2653 77.1439ZM74.2653 74.8399C74.9853 74.8399 75.5733 74.5999 76.0293 74.1199C76.4973 73.6279 76.7313 72.9739 76.7313 72.1579C76.7313 71.3419 76.4973 70.6939 76.0293 70.2139C75.5733 69.7219 74.9853 69.4759 74.2653 69.4759C73.5453 69.4759 72.9513 69.7219 72.4833 70.2139C72.0153 70.6939 71.7813 71.3419 71.7813 72.1579C71.7813 72.9739 72.0153 73.6279 72.4833 74.1199C72.9513 74.5999 73.5453 74.8399 74.2653 74.8399ZM87.6983 76.5319C87.4223 76.7359 87.0803 76.8919 86.6723 76.9999C86.2763 77.0959 85.8563 77.1439 85.4123 77.1439C84.2603 77.1439 83.3663 76.8499 82.7303 76.2619C82.1063 75.6739 81.7943 74.8099 81.7943 73.6699V69.6919H80.3003V67.5319H81.7943V65.1739H84.6023V67.5319H87.0143V69.6919H84.6023V73.6339C84.6023 74.0419 84.7043 74.3599 84.9082 74.5879C85.1243 74.8039 85.4243 74.9119 85.8083 74.9119C86.2523 74.9119 86.6303 74.7919 86.9423 74.5519L87.6983 76.5319ZM98.7107 67.3159L94.3367 77.5939C93.8927 78.7099 93.3407 79.4959 92.6807 79.9519C92.0327 80.4079 91.2467 80.6359 90.3227 80.6359C89.8187 80.6359 89.3207 80.5579 88.8287 80.4019C88.3367 80.2459 87.9347 80.0299 87.6227 79.7539L88.6487 77.7559C88.8647 77.9479 89.1107 78.0979 89.3867 78.2059C89.6747 78.3139 89.9567 78.3679 90.2327 78.3679C90.6167 78.3679 90.9287 78.2719 91.1687 78.0799C91.4087 77.8999 91.6247 77.5939 91.8167 77.1619L91.8527 77.0719L87.6587 67.3159H90.5567L93.2747 73.8859L96.0107 67.3159H98.7107ZM105.581 67.1719C106.481 67.1719 107.297 67.3819 108.029 67.8019C108.773 68.2099 109.355 68.7919 109.775 69.5479C110.195 70.2919 110.405 71.1619 110.405 72.1579C110.405 73.1539 110.195 74.0299 109.775 74.7859C109.355 75.5299 108.773 76.1119 108.029 76.5319C107.297 76.9399 106.481 77.1439 105.581 77.1439C104.345 77.1439 103.373 76.7539 102.665 75.9739V80.4919H99.8565V67.3159H102.539V68.4319C103.235 67.5919 104.249 67.1719 105.581 67.1719ZM105.095 74.8399C105.815 74.8399 106.403 74.5999 106.859 74.1199C107.327 73.6279 107.561 72.9739 107.561 72.1579C107.561 71.3419 107.327 70.6939 106.859 70.2139C106.403 69.7219 105.815 69.4759 105.095 69.4759C104.375 69.4759 103.781 69.7219 103.313 70.2139C102.857 70.6939 102.629 71.3419 102.629 72.1579C102.629 72.9739 102.857 73.6279 103.313 74.1199C103.781 74.5999 104.375 74.8399 105.095 74.8399ZM112.284 67.3159H115.092V76.9999H112.284V67.3159ZM113.688 65.9659C113.172 65.9659 112.752 65.8159 112.428 65.5159C112.104 65.2159 111.942 64.8439 111.942 64.3999C111.942 63.9559 112.104 63.5839 112.428 63.2839C112.752 62.9839 113.172 62.8339 113.688 62.8339C114.204 62.8339 114.624 62.9779 114.948 63.2659C115.272 63.5539 115.434 63.9139 115.434 64.3459C115.434 64.8139 115.272 65.2039 114.948 65.5159C114.624 65.8159 114.204 65.9659 113.688 65.9659ZM123.584 67.1719C124.784 67.1719 125.75 67.5319 126.482 68.2519C127.226 68.9719 127.598 70.0399 127.598 71.4559V76.9999H124.79V71.8879C124.79 71.1199 124.622 70.5499 124.286 70.1779C123.95 69.7939 123.464 69.6019 122.828 69.6019C122.12 69.6019 121.556 69.8239 121.136 70.2679C120.716 70.6999 120.506 71.3479 120.506 72.2119V76.9999H117.698V67.3159H120.38V68.4499C120.752 68.0419 121.214 67.7299 121.766 67.5139C122.318 67.2859 122.924 67.1719 123.584 67.1719ZM140.239 67.3159V75.3799C140.239 77.1559 139.777 78.4759 138.853 79.3399C137.929 80.2039 136.579 80.6359 134.803 80.6359C133.867 80.6359 132.979 80.5219 132.139 80.2939C131.299 80.0659 130.603 79.7359 130.051 79.3039L131.167 77.2879C131.575 77.6239 132.091 77.8879 132.715 78.0799C133.339 78.2839 133.963 78.3859 134.587 78.3859C135.559 78.3859 136.273 78.1639 136.729 77.7199C137.197 77.2879 137.431 76.6279 137.431 75.7399V75.3259C136.699 76.1299 135.679 76.5319 134.371 76.5319C133.483 76.5319 132.667 76.3399 131.923 75.9559C131.191 75.5599 130.609 75.0079 130.177 74.2999C129.745 73.5919 129.529 72.7759 129.529 71.8519C129.529 70.9279 129.745 70.1119 130.177 69.4039C130.609 68.6959 131.191 68.1499 131.923 67.7659C132.667 67.3699 133.483 67.1719 134.371 67.1719C135.775 67.1719 136.843 67.6339 137.575 68.5579V67.3159H140.239ZM134.929 74.2279C135.673 74.2279 136.279 74.0119 136.747 73.5799C137.227 73.1359 137.467 72.5599 137.467 71.8519C137.467 71.1439 137.227 70.5739 136.747 70.1419C136.279 69.6979 135.673 69.4759 134.929 69.4759C134.185 69.4759 133.573 69.6979 133.093 70.1419C132.613 70.5739 132.373 71.1439 132.373 71.8519C132.373 72.5599 132.613 73.1359 133.093 73.5799C133.573 74.0119 134.185 74.2279 134.929 74.2279Z" fill="black"/>
    <path d="M63.263 98.7999C64.583 98.8719 65.585 99.2319 66.269 99.8799C66.965 100.516 67.313 101.35 67.313 102.382C67.313 103.102 67.139 103.744 66.791 104.308C66.443 104.86 65.927 105.298 65.243 105.622C64.559 105.946 63.725 106.108 62.741 106.108C61.829 106.108 60.965 105.964 60.149 105.676C59.345 105.376 58.697 104.98 58.205 104.488L58.835 103.462C59.255 103.894 59.813 104.248 60.509 104.524C61.205 104.788 61.949 104.92 62.741 104.92C63.773 104.92 64.571 104.698 65.135 104.254C65.699 103.798 65.981 103.174 65.981 102.382C65.981 101.602 65.699 100.99 65.135 100.546C64.571 100.102 63.719 99.8799 62.579 99.8799H61.679V98.9259L65.171 94.5519H58.727V93.3999H66.827V94.3179L63.263 98.7999ZM76.3161 106.108C75.5961 106.108 74.9301 105.952 74.3181 105.64C73.7061 105.328 73.2081 104.884 72.8241 104.308L73.6161 103.408C74.3121 104.44 75.2181 104.956 76.3341 104.956C77.8941 104.956 78.6741 104.032 78.6741 102.184V94.5519H74.0661V93.3999H79.9881V102.13C79.9881 103.45 79.6761 104.446 79.0521 105.118C78.4401 105.778 77.5281 106.108 76.3161 106.108ZM87.0256 96.4599C88.2616 96.4599 89.2096 96.7719 89.8696 97.3959C90.5296 98.0079 90.8596 98.9199 90.8596 100.132V106H89.6356V104.524C89.3476 105.016 88.9216 105.4 88.3576 105.676C87.8056 105.952 87.1456 106.09 86.3776 106.09C85.3216 106.09 84.4816 105.838 83.8576 105.334C83.2336 104.83 82.9216 104.164 82.9216 103.336C82.9216 102.532 83.2096 101.884 83.7856 101.392C84.3736 100.9 85.3036 100.654 86.5756 100.654H89.5816V100.078C89.5816 99.2619 89.3536 98.6439 88.8976 98.2239C88.4416 97.7919 87.7756 97.5759 86.8996 97.5759C86.2996 97.5759 85.7236 97.6779 85.1716 97.8819C84.6196 98.0739 84.1456 98.3439 83.7496 98.6919L83.1736 97.7379C83.6536 97.3299 84.2296 97.0179 84.9016 96.8019C85.5736 96.5739 86.2816 96.4599 87.0256 96.4599ZM86.5756 105.082C87.2956 105.082 87.9136 104.92 88.4296 104.596C88.9456 104.26 89.3296 103.78 89.5816 103.156V101.608H86.6116C84.9916 101.608 84.1816 102.172 84.1816 103.3C84.1816 103.852 84.3916 104.29 84.8116 104.614C85.2316 104.926 85.8196 105.082 86.5756 105.082ZM99.1548 96.4599C100.343 96.4599 101.285 96.8079 101.981 97.5039C102.689 98.1879 103.043 99.1899 103.043 100.51V106H101.765V100.636C101.765 99.6519 101.519 98.9019 101.027 98.3859C100.535 97.8699 99.8328 97.6119 98.9208 97.6119C97.9008 97.6119 97.0908 97.9179 96.4908 98.5299C95.9028 99.1299 95.6088 99.9639 95.6088 101.032V106H94.3308V92.6439H95.6088V98.1879C95.9568 97.6359 96.4368 97.2099 97.0488 96.9099C97.6608 96.6099 98.3628 96.4599 99.1548 96.4599ZM107.736 98.3859C108.036 97.7499 108.48 97.2699 109.068 96.9459C109.668 96.6219 110.406 96.4599 111.282 96.4599V97.7019L110.976 97.6839C109.98 97.6839 109.2 97.9899 108.636 98.6019C108.072 99.2139 107.79 100.072 107.79 101.176V106H106.512V96.5319H107.736V98.3859Z" fill="black"/>
    <g filter="url(#filter0_d_0_1)">
        <path d="M2.93238 85.5C1.31233 85.5 -0.00628769 84.1857 0.0499042 82.5666C0.769081 61.8448 9.08817 42.0696 23.4783 27.0473C38.5461 11.3175 59.1061 2.014 80.8681 1.07804C102.63 0.142085 123.913 7.646 140.276 22.024C156.638 36.4019 166.817 56.5432 168.687 78.2449C170.557 99.9467 163.975 121.532 150.313 138.498C136.652 155.463 116.966 166.497 95.3649 169.298C73.7635 172.099 51.915 166.451 34.3782 153.531C17.6302 141.192 6.05057 123.131 1.79683 102.838C1.46447 101.252 2.53879 99.7319 4.13495 99.4547C5.73111 99.1776 7.24429 100.249 7.58076 101.834C11.573 120.637 22.3277 137.365 37.8581 148.807C54.1772 160.83 74.5089 166.087 94.6105 163.48C114.712 160.874 133.031 150.606 145.744 134.818C158.457 119.031 164.582 98.9437 162.842 78.7486C161.102 58.5536 151.63 39.8107 136.403 26.431C121.177 13.0513 101.371 6.06836 81.1202 6.93933C60.8691 7.81031 41.7365 16.4679 27.7149 31.1056C14.371 45.0357 6.63688 63.3577 5.92041 82.5667C5.86002 84.1857 4.55242 85.5 2.93238 85.5Z" fill="#005C7E"/>
    </g>
    <defs>
        <filter id="filter0_d_0_1" x="0.0478516" y="-7.24792e-05" width="184.951" height="185" filterUnits="userSpaceOnUse" color-interpolation-filters="sRGB">
            <feFlood flood-opacity="0" result="BackgroundImageFix"/>
            <feColorMatrix in="SourceAlpha" type="matrix" values="0 0 0 0 0 0 0 0 0 0 0 0 0 0 0 0 0 0 127 0" result="hardAlpha"/>
            <feOffset dx="8" dy="7"/>
            <feGaussianBlur stdDeviation="4"/>
            <feComposite in2="hardAlpha" operator="out"/>
            <feColorMatrix type="matrix" values="0 0 0 0 0 0 0 0 0 0 0 0 0 0 0 0 0 0 0.25 0"/>
            <feBlend mode="normal" in2="BackgroundImageFix" result="effect1_dropShadow_0_1"/>
            <feBlend mode="normal" in="SourceGraphic" in2="effect1_dropShadow_0_1" result="shape"/>
        </filter>
    </defs>
</svg>
