<svg width="188" height="186" viewBox="0 0 188 186" fill="none" xmlns="http://www.w3.org/2000/svg">
    <g filter="url(#filter0_d_0_1)">
        <path d="M2.98542 86C1.33662 86 -0.00553659 84.6626 0.0530241 83.0149C0.680454 65.3604 6.86069 48.3093 17.7716 34.2553C29.2964 19.4105 45.4551 8.73917 63.7416 3.8963C82.028 -0.946565 101.42 0.309695 118.911 7.47024C136.401 14.6308 151.012 27.2955 160.478 43.5C169.944 59.7046 173.735 78.5434 171.264 97.0947C168.793 115.646 160.198 132.873 146.811 146.104C133.425 159.335 115.995 167.83 97.2252 170.273C79.4478 172.586 61.4094 169.347 45.6218 161.049C44.1647 160.283 43.6775 158.452 44.5078 157.031C45.3263 155.63 47.1181 155.154 48.5559 155.907C63.2162 163.578 79.9517 166.568 96.4459 164.422C113.912 162.149 130.132 154.244 142.589 141.931C155.046 129.619 163.045 113.588 165.344 96.3244C167.644 79.0611 164.116 61.5302 155.307 46.4507C146.499 31.3712 132.902 19.5858 116.626 12.9224C100.35 6.25904 82.3038 5.09 65.2869 9.59664C48.2701 14.1033 33.2333 24.0337 22.5086 37.8478C12.3979 50.8712 6.65247 66.6601 6.02782 83.0151C5.9649 84.6627 4.63423 86 2.98542 86Z" fill="#005C7E"/>
    </g>
    <path d="M72.8694 77.216C71.8734 77.216 70.9074 77.084 69.9714 76.82C69.0474 76.544 68.3034 76.19 67.7394 75.758L68.7294 73.562C69.2694 73.958 69.9114 74.276 70.6554 74.516C71.3994 74.756 72.1434 74.876 72.8874 74.876C73.7154 74.876 74.3274 74.756 74.7234 74.516C75.1194 74.264 75.3174 73.934 75.3174 73.526C75.3174 73.226 75.1974 72.98 74.9574 72.788C74.7294 72.584 74.4294 72.422 74.0574 72.302C73.6974 72.182 73.2054 72.05 72.5814 71.906C71.6214 71.678 70.8354 71.45 70.2234 71.222C69.6114 70.994 69.0834 70.628 68.6394 70.124C68.2074 69.62 67.9914 68.948 67.9914 68.108C67.9914 67.376 68.1894 66.716 68.5854 66.128C68.9814 65.528 69.5754 65.054 70.3674 64.706C71.1714 64.358 72.1494 64.184 73.3014 64.184C74.1054 64.184 74.8914 64.28 75.6594 64.472C76.4274 64.664 77.0994 64.94 77.6754 65.3L76.7754 67.514C75.6114 66.854 74.4474 66.524 73.2834 66.524C72.4674 66.524 71.8614 66.656 71.4654 66.92C71.0814 67.184 70.8894 67.532 70.8894 67.964C70.8894 68.396 71.1114 68.72 71.5554 68.936C72.0114 69.14 72.7014 69.344 73.6254 69.548C74.5854 69.776 75.3714 70.004 75.9834 70.232C76.5954 70.46 77.1174 70.82 77.5494 71.312C77.9934 71.804 78.2154 72.47 78.2154 73.31C78.2154 74.03 78.0114 74.69 77.6034 75.29C77.2074 75.878 76.6074 76.346 75.8034 76.694C74.9994 77.042 74.0214 77.216 72.8694 77.216ZM93.8339 78.35C93.4259 78.854 92.9279 79.238 92.3399 79.502C91.7639 79.766 91.1279 79.898 90.4319 79.898C89.4959 79.898 88.6499 79.694 87.8939 79.286C87.1379 78.89 86.2739 78.182 85.3019 77.162C84.1619 77.018 83.1419 76.652 82.2419 76.064C81.3539 75.476 80.6579 74.72 80.1539 73.796C79.6619 72.86 79.4159 71.828 79.4159 70.7C79.4159 69.464 79.7099 68.354 80.2979 67.37C80.8979 66.374 81.7199 65.594 82.7639 65.03C83.8199 64.466 85.0019 64.184 86.3099 64.184C87.6179 64.184 88.7939 64.466 89.8379 65.03C90.8819 65.594 91.7039 66.374 92.3039 67.37C92.9039 68.354 93.2039 69.464 93.2039 70.7C93.2039 72.164 92.7899 73.448 91.9619 74.552C91.1459 75.656 90.0599 76.424 88.7039 76.856C89.0039 77.168 89.2919 77.39 89.5679 77.522C89.8559 77.666 90.1619 77.738 90.4859 77.738C91.2659 77.738 91.9499 77.426 92.5379 76.802L93.8339 78.35ZM82.3679 70.7C82.3679 71.48 82.5359 72.176 82.8719 72.788C83.2199 73.4 83.6939 73.88 84.2939 74.228C84.8939 74.564 85.5659 74.732 86.3099 74.732C87.0539 74.732 87.7259 74.564 88.3259 74.228C88.9259 73.88 89.3939 73.4 89.7299 72.788C90.0779 72.176 90.2519 71.48 90.2519 70.7C90.2519 69.92 90.0779 69.224 89.7299 68.612C89.3939 68 88.9259 67.526 88.3259 67.19C87.7259 66.842 87.0539 66.668 86.3099 66.668C85.5659 66.668 84.8939 66.842 84.2939 67.19C83.6939 67.526 83.2199 68 82.8719 68.612C82.5359 69.224 82.3679 69.92 82.3679 70.7ZM95.3954 64.4H98.3114V74.624H104.629V77H95.3954V64.4Z" fill="black"/>
    <path d="M62.7314 104.848V106H53.8934V105.082L59.1314 99.952C59.7914 99.304 60.2354 98.746 60.4634 98.278C60.7034 97.798 60.8234 97.318 60.8234 96.838C60.8234 96.094 60.5654 95.518 60.0494 95.11C59.5454 94.69 58.8194 94.48 57.8714 94.48C56.3954 94.48 55.2494 94.948 54.4334 95.884L53.5154 95.092C54.0074 94.516 54.6314 94.072 55.3874 93.76C56.1554 93.448 57.0194 93.292 57.9794 93.292C59.2634 93.292 60.2774 93.598 61.0214 94.21C61.7774 94.81 62.1554 95.638 62.1554 96.694C62.1554 97.342 62.0114 97.966 61.7234 98.566C61.4354 99.166 60.8894 99.856 60.0854 100.636L55.8014 104.848H62.7314ZM71.5348 106.108C70.8148 106.108 70.1488 105.952 69.5368 105.64C68.9248 105.328 68.4268 104.884 68.0428 104.308L68.8348 103.408C69.5308 104.44 70.4368 104.956 71.5528 104.956C73.1128 104.956 73.8928 104.032 73.8928 102.184V94.552H69.2848V93.4H75.2068V102.13C75.2068 103.45 74.8948 104.446 74.2708 105.118C73.6588 105.778 72.7468 106.108 71.5348 106.108ZM82.2444 96.46C83.4804 96.46 84.4284 96.772 85.0884 97.396C85.7484 98.008 86.0784 98.92 86.0784 100.132V106H84.8544V104.524C84.5664 105.016 84.1404 105.4 83.5764 105.676C83.0244 105.952 82.3644 106.09 81.5964 106.09C80.5404 106.09 79.7004 105.838 79.0764 105.334C78.4524 104.83 78.1404 104.164 78.1404 103.336C78.1404 102.532 78.4284 101.884 79.0044 101.392C79.5924 100.9 80.5224 100.654 81.7944 100.654H84.8004V100.078C84.8004 99.262 84.5724 98.644 84.1164 98.224C83.6604 97.792 82.9944 97.576 82.1184 97.576C81.5184 97.576 80.9424 97.678 80.3904 97.882C79.8384 98.074 79.3644 98.344 78.9684 98.692L78.3924 97.738C78.8724 97.33 79.4484 97.018 80.1204 96.802C80.7924 96.574 81.5004 96.46 82.2444 96.46ZM81.7944 105.082C82.5144 105.082 83.1324 104.92 83.6484 104.596C84.1644 104.26 84.5484 103.78 84.8004 103.156V101.608H81.8304C80.2104 101.608 79.4004 102.172 79.4004 103.3C79.4004 103.852 79.6104 104.29 80.0304 104.614C80.4504 104.926 81.0384 105.082 81.7944 105.082ZM94.3736 96.46C95.5616 96.46 96.5036 96.808 97.1996 97.504C97.9076 98.188 98.2616 99.19 98.2616 100.51V106H96.9836V100.636C96.9836 99.652 96.7376 98.902 96.2456 98.386C95.7536 97.87 95.0516 97.612 94.1396 97.612C93.1196 97.612 92.3096 97.918 91.7096 98.53C91.1216 99.13 90.8276 99.964 90.8276 101.032V106H89.5496V92.644H90.8276V98.188C91.1756 97.636 91.6556 97.21 92.2676 96.91C92.8796 96.61 93.5816 96.46 94.3736 96.46ZM102.955 98.386C103.255 97.75 103.699 97.27 104.287 96.946C104.887 96.622 105.625 96.46 106.501 96.46V97.702L106.195 97.684C105.199 97.684 104.419 97.99 103.855 98.602C103.291 99.214 103.009 100.072 103.009 101.176V106H101.731V96.532H102.955V98.386ZM116.971 101.662H109.051C109.123 102.646 109.501 103.444 110.185 104.056C110.869 104.656 111.733 104.956 112.777 104.956C113.365 104.956 113.905 104.854 114.397 104.65C114.889 104.434 115.315 104.122 115.675 103.714L116.395 104.542C115.975 105.046 115.447 105.43 114.811 105.694C114.187 105.958 113.497 106.09 112.741 106.09C111.769 106.09 110.905 105.886 110.149 105.478C109.405 105.058 108.823 104.482 108.403 103.75C107.983 103.018 107.773 102.19 107.773 101.266C107.773 100.342 107.971 99.514 108.367 98.782C108.775 98.05 109.327 97.48 110.023 97.072C110.731 96.664 111.523 96.46 112.399 96.46C113.275 96.46 114.061 96.664 114.757 97.072C115.453 97.48 115.999 98.05 116.395 98.782C116.791 99.502 116.989 100.33 116.989 101.266L116.971 101.662ZM112.399 97.558C111.487 97.558 110.719 97.852 110.095 98.44C109.483 99.016 109.135 99.772 109.051 100.708H115.765C115.681 99.772 115.327 99.016 114.703 98.44C114.091 97.852 113.323 97.558 112.399 97.558Z" fill="black"/>
    <defs>
        <filter id="filter0_d_0_1" x="0.0507812" y="-3.05176e-05" width="187.949" height="186" filterUnits="userSpaceOnUse" color-interpolation-filters="sRGB">
            <feFlood flood-opacity="0" result="BackgroundImageFix"/>
            <feColorMatrix in="SourceAlpha" type="matrix" values="0 0 0 0 0 0 0 0 0 0 0 0 0 0 0 0 0 0 127 0" result="hardAlpha"/>
            <feOffset dx="8" dy="7"/>
            <feGaussianBlur stdDeviation="4"/>
            <feComposite in2="hardAlpha" operator="out"/>
            <feColorMatrix type="matrix" values="0 0 0 0 0 0 0 0 0 0 0 0 0 0 0 0 0 0 0.25 0"/>
            <feBlend mode="normal" in2="BackgroundImageFix" result="effect1_dropShadow_0_1"/>
            <feBlend mode="normal" in="SourceGraphic" in2="effect1_dropShadow_0_1" result="shape"/>
        </filter>
    </defs>
</svg>
