<svg width="184" height="186" viewBox="0 0 184 186" fill="none" xmlns="http://www.w3.org/2000/svg">
    <g filter="url(#filter0_d_0_1)">
        <path d="M2.916 86C1.30554 86 -0.00516132 84.6938 0.049414 83.0843C0.616515 66.3594 6.05228 50.1513 15.706 36.5104C25.9198 22.0781 40.3426 11.2438 56.9508 5.52756C73.5589 -0.188647 91.5188 -0.499851 108.311 4.63761C125.102 9.77507 139.883 20.1034 150.579 34.1733C161.276 48.2433 167.35 65.3488 167.951 83.0898C168.551 100.831 163.648 118.317 153.928 133.095C144.209 147.872 130.161 159.2 113.756 165.488C98.2656 171.426 81.4072 172.589 65.3004 168.867C63.7205 168.502 62.7887 166.89 63.2 165.322C63.6147 163.74 65.2364 162.804 66.8307 163.167C81.749 166.566 97.3495 165.466 111.69 159.969C126.956 154.118 140.029 143.577 149.073 129.825C158.118 116.073 162.681 99.8011 162.122 83.2919C161.563 66.7826 155.91 50.8647 145.957 37.7716C136.003 24.6785 122.249 15.0673 106.623 10.2865C90.9968 5.5057 74.2838 5.7953 58.8287 11.1146C43.3737 16.434 29.9522 26.5161 20.4476 39.9464C11.503 52.5852 6.4496 67.5924 5.88509 83.0845C5.82645 84.6939 4.52646 86 2.916 86Z" fill="#005C7E"/>
    </g>
    <path d="M60.2163 67.7759H56.1843V65.3999H67.1643V67.7759H63.1323V77.9999H60.2163V67.7759ZM77.5672 68.3159L73.1932 78.5939C72.7492 79.7099 72.1972 80.4959 71.5372 80.9519C70.8892 81.4079 70.1032 81.6359 69.1792 81.6359C68.6752 81.6359 68.1772 81.5579 67.6852 81.4019C67.1932 81.2459 66.7912 81.0299 66.4792 80.7539L67.5052 78.7559C67.7212 78.9479 67.9672 79.0979 68.2432 79.2059C68.5312 79.3139 68.8132 79.3679 69.0892 79.3679C69.4732 79.3679 69.7852 79.2719 70.0252 79.0799C70.2652 78.8999 70.4812 78.5939 70.6732 78.1619L70.7092 78.0719L66.5152 68.3159H69.4132L72.1312 74.8859L74.8672 68.3159H77.5672ZM84.437 68.1719C85.337 68.1719 86.153 68.3819 86.885 68.8019C87.629 69.2099 88.211 69.7919 88.631 70.5479C89.051 71.2919 89.261 72.1619 89.261 73.1579C89.261 74.1539 89.051 75.0299 88.631 75.7859C88.211 76.5299 87.629 77.1119 86.885 77.5319C86.153 77.9399 85.337 78.1439 84.437 78.1439C83.201 78.1439 82.229 77.7539 81.521 76.9739V81.4919H78.713V68.3159H81.395V69.4319C82.091 68.5919 83.105 68.1719 84.437 68.1719ZM83.951 75.8399C84.671 75.8399 85.259 75.5999 85.715 75.1199C86.183 74.6279 86.417 73.9739 86.417 73.1579C86.417 72.3419 86.183 71.6939 85.715 71.2139C85.259 70.7219 84.671 70.4759 83.951 70.4759C83.231 70.4759 82.637 70.7219 82.169 71.2139C81.713 71.6939 81.485 72.3419 81.485 73.1579C81.485 73.9739 81.713 74.6279 82.169 75.1199C82.637 75.5999 83.231 75.8399 83.951 75.8399ZM95.7487 78.1439C94.7287 78.1439 93.8107 77.9339 92.9947 77.5139C92.1907 77.0819 91.5607 76.4879 91.1047 75.7319C90.6487 74.9759 90.4207 74.1179 90.4207 73.1579C90.4207 72.1979 90.6487 71.3399 91.1047 70.5839C91.5607 69.8279 92.1907 69.2399 92.9947 68.8199C93.8107 68.3879 94.7287 68.1719 95.7487 68.1719C96.7687 68.1719 97.6807 68.3879 98.4847 68.8199C99.2887 69.2399 99.9187 69.8279 100.375 70.5839C100.831 71.3399 101.059 72.1979 101.059 73.1579C101.059 74.1179 100.831 74.9759 100.375 75.7319C99.9187 76.4879 99.2887 77.0819 98.4847 77.5139C97.6807 77.9339 96.7687 78.1439 95.7487 78.1439ZM95.7487 75.8399C96.4687 75.8399 97.0567 75.5999 97.5127 75.1199C97.9807 74.6279 98.2147 73.9739 98.2147 73.1579C98.2147 72.3419 97.9807 71.6939 97.5127 71.2139C97.0567 70.7219 96.4687 70.4759 95.7487 70.4759C95.0287 70.4759 94.4347 70.7219 93.9667 71.2139C93.4987 71.6939 93.2647 72.3419 93.2647 73.1579C93.2647 73.9739 93.4987 74.6279 93.9667 75.1199C94.4347 75.5999 95.0287 75.8399 95.7487 75.8399ZM107.823 70.5299C108.927 70.7099 109.773 71.1239 110.361 71.7719C110.949 72.4079 111.243 73.1999 111.243 74.1479C111.243 74.8799 111.051 75.5579 110.667 76.1819C110.283 76.7939 109.695 77.2859 108.903 77.6579C108.123 78.0299 107.163 78.2159 106.023 78.2159C105.135 78.2159 104.259 78.1019 103.395 77.8739C102.543 77.6339 101.817 77.2979 101.217 76.8659L102.351 74.6339C102.831 74.9939 103.383 75.2759 104.007 75.4799C104.643 75.6719 105.291 75.7679 105.951 75.7679C106.683 75.7679 107.259 75.6299 107.679 75.3539C108.099 75.0659 108.309 74.6639 108.309 74.1479C108.309 73.1159 107.523 72.5999 105.951 72.5999H104.619V70.6739L107.211 67.7399H101.847V65.3999H110.667V67.2899L107.823 70.5299Z" fill="black"/>
    <path d="M58.7314 105.848V107H49.8934V106.082L55.1314 100.952C55.7914 100.304 56.2354 99.7459 56.4634 99.2779C56.7034 98.7979 56.8234 98.3179 56.8234 97.8379C56.8234 97.0939 56.5654 96.5179 56.0494 96.1099C55.5454 95.6899 54.8194 95.4799 53.8714 95.4799C52.3954 95.4799 51.2494 95.9479 50.4334 96.8839L49.5154 96.0919C50.0074 95.5159 50.6314 95.0719 51.3874 94.7599C52.1554 94.4479 53.0194 94.2919 53.9794 94.2919C55.2634 94.2919 56.2774 94.5979 57.0214 95.2099C57.7774 95.8099 58.1554 96.6379 58.1554 97.6939C58.1554 98.3419 58.0114 98.9659 57.7234 99.5659C57.4354 100.166 56.8894 100.856 56.0854 101.636L51.8014 105.848H58.7314ZM67.5348 107.108C66.8148 107.108 66.1488 106.952 65.5368 106.64C64.9248 106.328 64.4268 105.884 64.0428 105.308L64.8348 104.408C65.5308 105.44 66.4368 105.956 67.5528 105.956C69.1128 105.956 69.8928 105.032 69.8928 103.184V95.5519H65.2848V94.3999H71.2068V103.13C71.2068 104.45 70.8948 105.446 70.2708 106.118C69.6588 106.778 68.7468 107.108 67.5348 107.108ZM78.2444 97.4599C79.4804 97.4599 80.4284 97.7719 81.0884 98.3959C81.7484 99.0079 82.0784 99.9199 82.0784 101.132V107H80.8544V105.524C80.5664 106.016 80.1404 106.4 79.5764 106.676C79.0244 106.952 78.3644 107.09 77.5964 107.09C76.5404 107.09 75.7004 106.838 75.0764 106.334C74.4524 105.83 74.1404 105.164 74.1404 104.336C74.1404 103.532 74.4284 102.884 75.0044 102.392C75.5924 101.9 76.5224 101.654 77.7944 101.654H80.8004V101.078C80.8004 100.262 80.5724 99.6439 80.1164 99.2239C79.6604 98.7919 78.9944 98.5759 78.1184 98.5759C77.5184 98.5759 76.9424 98.6779 76.3904 98.8819C75.8384 99.0739 75.3644 99.3439 74.9684 99.6919L74.3924 98.7379C74.8724 98.3299 75.4484 98.0179 76.1204 97.8019C76.7924 97.5739 77.5004 97.4599 78.2444 97.4599ZM77.7944 106.082C78.5144 106.082 79.1324 105.92 79.6484 105.596C80.1644 105.26 80.5484 104.78 80.8004 104.156V102.608H77.8304C76.2104 102.608 75.4004 103.172 75.4004 104.3C75.4004 104.852 75.6104 105.29 76.0304 105.614C76.4504 105.926 77.0384 106.082 77.7944 106.082ZM90.3736 97.4599C91.5616 97.4599 92.5036 97.8079 93.1996 98.5039C93.9076 99.1879 94.2616 100.19 94.2616 101.51V107H92.9836V101.636C92.9836 100.652 92.7376 99.9019 92.2456 99.3859C91.7536 98.8699 91.0516 98.6119 90.1396 98.6119C89.1196 98.6119 88.3096 98.9179 87.7096 99.5299C87.1216 100.13 86.8276 100.964 86.8276 102.032V107H85.5496V93.6439H86.8276V99.1879C87.1756 98.6359 87.6556 98.2099 88.2676 97.9099C88.8796 97.6099 89.5816 97.4599 90.3736 97.4599ZM98.9552 99.3859C99.2552 98.7499 99.6992 98.2699 100.287 97.9459C100.887 97.6219 101.625 97.4599 102.501 97.4599V98.7019L102.195 98.6839C101.199 98.6839 100.419 98.9899 99.8552 99.6019C99.2912 100.214 99.0092 101.072 99.0092 102.176V107H97.7312V97.5319H98.9552V99.3859ZM112.971 102.662H105.051C105.123 103.646 105.501 104.444 106.185 105.056C106.869 105.656 107.733 105.956 108.777 105.956C109.365 105.956 109.905 105.854 110.397 105.65C110.889 105.434 111.315 105.122 111.675 104.714L112.395 105.542C111.975 106.046 111.447 106.43 110.811 106.694C110.187 106.958 109.497 107.09 108.741 107.09C107.769 107.09 106.905 106.886 106.149 106.478C105.405 106.058 104.823 105.482 104.403 104.75C103.983 104.018 103.773 103.19 103.773 102.266C103.773 101.342 103.971 100.514 104.367 99.7819C104.775 99.0499 105.327 98.4799 106.023 98.0719C106.731 97.6639 107.523 97.4599 108.399 97.4599C109.275 97.4599 110.061 97.6639 110.757 98.0719C111.453 98.4799 111.999 99.0499 112.395 99.7819C112.791 100.502 112.989 101.33 112.989 102.266L112.971 102.662ZM108.399 98.5579C107.487 98.5579 106.719 98.8519 106.095 99.4399C105.483 100.016 105.135 100.772 105.051 101.708H111.765C111.681 100.772 111.327 100.016 110.703 99.4399C110.091 98.8519 109.323 98.5579 108.399 98.5579Z" fill="black"/>
    <defs>
        <filter id="filter0_d_0_1" x="0.0478516" y="0" width="183.952" height="186" filterUnits="userSpaceOnUse" color-interpolation-filters="sRGB">
            <feFlood flood-opacity="0" result="BackgroundImageFix"/>
            <feColorMatrix in="SourceAlpha" type="matrix" values="0 0 0 0 0 0 0 0 0 0 0 0 0 0 0 0 0 0 127 0" result="hardAlpha"/>
            <feOffset dx="8" dy="7"/>
            <feGaussianBlur stdDeviation="4"/>
            <feComposite in2="hardAlpha" operator="out"/>
            <feColorMatrix type="matrix" values="0 0 0 0 0 0 0 0 0 0 0 0 0 0 0 0 0 0 0.25 0"/>
            <feBlend mode="normal" in2="BackgroundImageFix" result="effect1_dropShadow_0_1"/>
            <feBlend mode="normal" in="SourceGraphic" in2="effect1_dropShadow_0_1" result="shape"/>
        </filter>
    </defs>
</svg>
