<svg width="184" height="186" viewBox="0 0 184 186" fill="none" xmlns="http://www.w3.org/2000/svg">
    <g filter="url(#filter0_d_0_1)">
        <path d="M2.916 86C1.30554 86 -0.00516132 84.6938 0.049414 83.0843C0.616515 66.3594 6.05228 50.1513 15.706 36.5104C25.9198 22.0781 40.3426 11.2438 56.9508 5.52756C73.5589 -0.188647 91.5188 -0.499851 108.311 4.63761C125.102 9.77507 139.883 20.1034 150.579 34.1733C161.276 48.2433 167.35 65.3488 167.951 83.0898C168.551 100.831 163.648 118.317 153.928 133.095C144.209 147.872 130.161 159.2 113.756 165.488C98.2656 171.426 81.4072 172.589 65.3004 168.867C63.7205 168.502 62.7887 166.89 63.2 165.322C63.6147 163.74 65.2364 162.804 66.8307 163.167C81.749 166.566 97.3495 165.466 111.69 159.969C126.956 154.118 140.029 143.577 149.073 129.825C158.118 116.073 162.681 99.8011 162.122 83.2919C161.563 66.7826 155.91 50.8647 145.957 37.7716C136.003 24.6785 122.249 15.0673 106.623 10.2865C90.9968 5.5057 74.2838 5.7953 58.8287 11.1146C43.3737 16.434 29.9522 26.5161 20.4476 39.9464C11.503 52.5852 6.4496 67.5924 5.88509 83.0845C5.82645 84.6939 4.52646 86 2.916 86Z" fill="#005C7E"/>
    </g>
    <path d="M53.6196 62V51.776H49.5876V49.4H60.5676V51.776H56.5356V62H53.6196ZM62.5825 65.636C62.0785 65.636 61.5805 65.558 61.0885 65.402C60.5965 65.246 60.1945 65.03 59.8825 64.754L60.9085 62.756C61.1245 62.948 61.3705 63.098 61.6465 63.206C61.9345 63.314 62.2165 63.368 62.4925 63.368C62.8885 63.368 63.2005 63.272 63.4285 63.08C63.6685 62.9 63.8845 62.594 64.0765 62.162L64.5805 60.974L64.7965 60.668L68.2705 52.316H70.9705L66.5965 62.594C66.2845 63.374 65.9245 63.986 65.5165 64.43C65.1205 64.874 64.6765 65.186 64.1845 65.366C63.7045 65.546 63.1705 65.636 62.5825 65.636ZM64.2385 62.378L59.9185 52.316H62.8165L66.1645 60.416L64.2385 62.378ZM77.8403 62.144C77.0243 62.144 76.3103 61.964 75.6983 61.604C75.0863 61.244 74.6063 60.698 74.2583 59.966C73.9223 59.222 73.7543 58.286 73.7543 57.158C73.7543 56.018 73.9163 55.082 74.2403 54.35C74.5643 53.618 75.0323 53.072 75.6443 52.712C76.2563 52.352 76.9883 52.172 77.8403 52.172C78.7523 52.172 79.5683 52.382 80.2883 52.802C81.0203 53.21 81.5963 53.786 82.0163 54.53C82.4483 55.274 82.6643 56.15 82.6643 57.158C82.6643 58.178 82.4483 59.06 82.0163 59.804C81.5963 60.548 81.0203 61.124 80.2883 61.532C79.5683 61.94 78.7523 62.144 77.8403 62.144ZM72.1163 65.492V52.316H74.7983V54.296L74.7443 57.176L74.9243 60.038V65.492H72.1163ZM77.3543 59.84C77.8223 59.84 78.2363 59.732 78.5963 59.516C78.9683 59.3 79.2623 58.994 79.4783 58.598C79.7063 58.19 79.8203 57.71 79.8203 57.158C79.8203 56.594 79.7063 56.114 79.4783 55.718C79.2623 55.322 78.9683 55.016 78.5963 54.8C78.2363 54.584 77.8223 54.476 77.3543 54.476C76.8863 54.476 76.4663 54.584 76.0943 54.8C75.7223 55.016 75.4283 55.322 75.2123 55.718C74.9963 56.114 74.8883 56.594 74.8883 57.158C74.8883 57.71 74.9963 58.19 75.2123 58.598C75.4283 58.994 75.7223 59.3 76.0943 59.516C76.4663 59.732 76.8863 59.84 77.3543 59.84ZM89.152 62.144C88.12 62.144 87.202 61.928 86.398 61.496C85.606 61.064 84.976 60.476 84.508 59.732C84.052 58.976 83.824 58.118 83.824 57.158C83.824 56.186 84.052 55.328 84.508 54.584C84.976 53.828 85.606 53.24 86.398 52.82C87.202 52.388 88.12 52.172 89.152 52.172C90.172 52.172 91.084 52.388 91.888 52.82C92.692 53.24 93.322 53.822 93.778 54.566C94.234 55.31 94.462 56.174 94.462 57.158C94.462 58.118 94.234 58.976 93.778 59.732C93.322 60.476 92.692 61.064 91.888 61.496C91.084 61.928 90.172 62.144 89.152 62.144ZM89.152 59.84C89.62 59.84 90.04 59.732 90.412 59.516C90.784 59.3 91.078 58.994 91.294 58.598C91.51 58.19 91.618 57.71 91.618 57.158C91.618 56.594 91.51 56.114 91.294 55.718C91.078 55.322 90.784 55.016 90.412 54.8C90.04 54.584 89.62 54.476 89.152 54.476C88.684 54.476 88.264 54.584 87.892 54.8C87.52 55.016 87.22 55.322 86.992 55.718C86.776 56.114 86.668 56.594 86.668 57.158C86.668 57.71 86.776 58.19 86.992 58.598C87.22 58.994 87.52 59.3 87.892 59.516C88.264 59.732 88.684 59.84 89.152 59.84ZM99.4267 62.216C98.5507 62.216 97.6807 62.102 96.8167 61.874C95.9527 61.634 95.2207 61.298 94.6207 60.866L95.7547 58.634C96.2347 58.982 96.7927 59.258 97.4287 59.462C98.0647 59.666 98.7067 59.768 99.3547 59.768C100.087 59.768 100.663 59.624 101.083 59.336C101.503 59.048 101.713 58.652 101.713 58.148C101.713 57.668 101.527 57.29 101.155 57.014C100.783 56.738 100.183 56.6 99.3547 56.6H98.0227V54.674L101.533 50.696L101.857 51.74H95.2507V49.4H104.071V51.29L100.579 55.268L99.1027 54.422H99.9487C101.497 54.422 102.667 54.77 103.459 55.466C104.251 56.162 104.647 57.056 104.647 58.148C104.647 58.856 104.461 59.522 104.089 60.146C103.717 60.758 103.147 61.256 102.379 61.64C101.611 62.024 100.627 62.216 99.4267 62.216ZM115.843 62.216C114.919 62.216 114.097 62.066 113.377 61.766C112.657 61.466 112.087 61.058 111.667 60.542C111.247 60.026 111.037 59.432 111.037 58.76C111.037 58.136 111.175 57.578 111.451 57.086C111.727 56.582 112.165 56.114 112.765 55.682C113.365 55.238 114.127 54.806 115.051 54.386C115.723 54.074 116.251 53.798 116.635 53.558C117.019 53.318 117.289 53.09 117.445 52.874C117.601 52.646 117.679 52.418 117.679 52.19C117.679 51.878 117.571 51.626 117.355 51.434C117.151 51.242 116.845 51.146 116.437 51.146C116.005 51.146 115.669 51.254 115.429 51.47C115.189 51.686 115.069 51.962 115.069 52.298C115.069 52.478 115.105 52.658 115.177 52.838C115.249 53.006 115.387 53.204 115.591 53.432C115.795 53.648 116.083 53.93 116.455 54.278L123.097 60.434L121.567 62.216L114.241 55.412C113.821 55.028 113.485 54.668 113.233 54.332C112.981 53.996 112.795 53.666 112.675 53.342C112.567 53.018 112.513 52.682 112.513 52.334C112.513 51.722 112.675 51.182 112.999 50.714C113.323 50.246 113.779 49.886 114.367 49.634C114.955 49.37 115.645 49.238 116.437 49.238C117.169 49.238 117.799 49.358 118.327 49.598C118.867 49.826 119.287 50.156 119.587 50.588C119.899 51.02 120.055 51.536 120.055 52.136C120.055 52.664 119.923 53.15 119.659 53.594C119.395 54.026 118.981 54.434 118.417 54.818C117.865 55.202 117.139 55.592 116.239 55.988C115.627 56.264 115.141 56.534 114.781 56.798C114.433 57.05 114.181 57.308 114.025 57.572C113.869 57.836 113.791 58.13 113.791 58.454C113.791 58.754 113.881 59.024 114.061 59.264C114.253 59.504 114.517 59.69 114.853 59.822C115.189 59.954 115.585 60.02 116.041 60.02C116.773 60.02 117.445 59.852 118.057 59.516C118.669 59.168 119.185 58.658 119.605 57.986C120.037 57.302 120.343 56.474 120.523 55.502L122.773 56.204C122.521 57.428 122.071 58.49 121.423 59.39C120.775 60.29 119.977 60.986 119.029 61.478C118.081 61.97 117.019 62.216 115.843 62.216ZM39.8481 92L35.7261 79.4H38.7501L42.3321 90.56H40.8201L44.5641 79.4H47.2641L50.8641 90.56H49.4061L53.0781 79.4H55.8681L51.7461 92H48.6141L45.4281 82.208H46.2561L42.9801 92H39.8481ZM61.1853 92.144C60.1533 92.144 59.2353 91.928 58.4313 91.496C57.6393 91.064 57.0093 90.476 56.5413 89.732C56.0853 88.976 55.8573 88.118 55.8573 87.158C55.8573 86.186 56.0853 85.328 56.5413 84.584C57.0093 83.828 57.6393 83.24 58.4313 82.82C59.2353 82.388 60.1533 82.172 61.1853 82.172C62.2053 82.172 63.1173 82.388 63.9213 82.82C64.7253 83.24 65.3553 83.822 65.8113 84.566C66.2673 85.31 66.4953 86.174 66.4953 87.158C66.4953 88.118 66.2673 88.976 65.8113 89.732C65.3553 90.476 64.7253 91.064 63.9213 91.496C63.1173 91.928 62.2053 92.144 61.1853 92.144ZM61.1853 89.84C61.6533 89.84 62.0733 89.732 62.4453 89.516C62.8173 89.3 63.1113 88.994 63.3273 88.598C63.5433 88.19 63.6513 87.71 63.6513 87.158C63.6513 86.594 63.5433 86.114 63.3273 85.718C63.1113 85.322 62.8173 85.016 62.4453 84.8C62.0733 84.584 61.6533 84.476 61.1853 84.476C60.7173 84.476 60.2973 84.584 59.9253 84.8C59.5533 85.016 59.2533 85.322 59.0253 85.718C58.8093 86.114 58.7013 86.594 58.7013 87.158C58.7013 87.71 58.8093 88.19 59.0253 88.598C59.2533 88.994 59.5533 89.3 59.9253 89.516C60.2973 89.732 60.7173 89.84 61.1853 89.84ZM68.3722 92V82.316H71.0542V85.052L70.6762 84.26C70.9642 83.576 71.4262 83.06 72.0622 82.712C72.6982 82.352 73.4722 82.172 74.3842 82.172V84.764C74.2642 84.752 74.1562 84.746 74.0602 84.746C73.9642 84.734 73.8622 84.728 73.7542 84.728C72.9862 84.728 72.3622 84.95 71.8822 85.394C71.4142 85.826 71.1802 86.504 71.1802 87.428V92H68.3722ZM80.1415 92.144C79.2295 92.144 78.4075 91.94 77.6755 91.532C76.9435 91.112 76.3615 90.53 75.9295 89.786C75.5095 89.042 75.2995 88.166 75.2995 87.158C75.2995 86.138 75.5095 85.256 75.9295 84.512C76.3615 83.768 76.9435 83.192 77.6755 82.784C78.4075 82.376 79.2295 82.172 80.1415 82.172C80.9575 82.172 81.6715 82.352 82.2835 82.712C82.8955 83.072 83.3695 83.618 83.7055 84.35C84.0415 85.082 84.2095 86.018 84.2095 87.158C84.2095 88.286 84.0475 89.222 83.7235 89.966C83.3995 90.698 82.9315 91.244 82.3195 91.604C81.7195 91.964 80.9935 92.144 80.1415 92.144ZM80.6275 89.84C81.0835 89.84 81.4975 89.732 81.8695 89.516C82.2415 89.3 82.5355 88.994 82.7515 88.598C82.9795 88.19 83.0935 87.71 83.0935 87.158C83.0935 86.594 82.9795 86.114 82.7515 85.718C82.5355 85.322 82.2415 85.016 81.8695 84.8C81.4975 84.584 81.0835 84.476 80.6275 84.476C80.1595 84.476 79.7395 84.584 79.3675 84.8C78.9955 85.016 78.6955 85.322 78.4675 85.718C78.2515 86.114 78.1435 86.594 78.1435 87.158C78.1435 87.71 78.2515 88.19 78.4675 88.598C78.6955 88.994 78.9955 89.3 79.3675 89.516C79.7395 89.732 80.1595 89.84 80.6275 89.84ZM83.1655 92V90.02L83.2195 87.14L83.0395 84.278V78.644H85.8475V92H83.1655ZM94.1704 92.144C93.3544 92.144 92.6404 91.964 92.0284 91.604C91.4164 91.244 90.9364 90.698 90.5884 89.966C90.2524 89.222 90.0844 88.286 90.0844 87.158C90.0844 86.018 90.2464 85.082 90.5704 84.35C90.8944 83.618 91.3624 83.072 91.9744 82.712C92.5864 82.352 93.3184 82.172 94.1704 82.172C95.0824 82.172 95.8984 82.382 96.6184 82.802C97.3504 83.21 97.9264 83.786 98.3464 84.53C98.7784 85.274 98.9944 86.15 98.9944 87.158C98.9944 88.178 98.7784 89.06 98.3464 89.804C97.9264 90.548 97.3504 91.124 96.6184 91.532C95.8984 91.94 95.0824 92.144 94.1704 92.144ZM88.4464 95.492V82.316H91.1284V84.296L91.0744 87.176L91.2544 90.038V95.492H88.4464ZM93.6844 89.84C94.1524 89.84 94.5664 89.732 94.9264 89.516C95.2984 89.3 95.5924 88.994 95.8084 88.598C96.0364 88.19 96.1504 87.71 96.1504 87.158C96.1504 86.594 96.0364 86.114 95.8084 85.718C95.5924 85.322 95.2984 85.016 94.9264 84.8C94.5664 84.584 94.1524 84.476 93.6844 84.476C93.2164 84.476 92.7964 84.584 92.4244 84.8C92.0524 85.016 91.7584 85.322 91.5424 85.718C91.3264 86.114 91.2184 86.594 91.2184 87.158C91.2184 87.71 91.3264 88.19 91.5424 88.598C91.7584 88.994 92.0524 89.3 92.4244 89.516C92.7964 89.732 93.2164 89.84 93.6844 89.84ZM100.874 92V82.316H103.556V85.052L103.178 84.26C103.466 83.576 103.928 83.06 104.564 82.712C105.2 82.352 105.974 82.172 106.886 82.172V84.764C106.766 84.752 106.658 84.746 106.562 84.746C106.466 84.734 106.364 84.728 106.256 84.728C105.488 84.728 104.864 84.95 104.384 85.394C103.916 85.826 103.682 86.504 103.682 87.428V92H100.874ZM113.291 92.144C112.187 92.144 111.215 91.928 110.375 91.496C109.547 91.064 108.905 90.476 108.449 89.732C107.993 88.976 107.765 88.118 107.765 87.158C107.765 86.186 107.987 85.328 108.431 84.584C108.887 83.828 109.505 83.24 110.285 82.82C111.065 82.388 111.947 82.172 112.931 82.172C113.879 82.172 114.731 82.376 115.487 82.784C116.255 83.18 116.861 83.756 117.305 84.512C117.749 85.256 117.971 86.15 117.971 87.194C117.971 87.302 117.965 87.428 117.953 87.572C117.941 87.704 117.929 87.83 117.917 87.95H110.051V86.312H116.441L115.361 86.798C115.361 86.294 115.259 85.856 115.055 85.484C114.851 85.112 114.569 84.824 114.209 84.62C113.849 84.404 113.429 84.296 112.949 84.296C112.469 84.296 112.043 84.404 111.671 84.62C111.311 84.824 111.029 85.118 110.825 85.502C110.621 85.874 110.519 86.318 110.519 86.834V87.266C110.519 87.794 110.633 88.262 110.861 88.67C111.101 89.066 111.431 89.372 111.851 89.588C112.283 89.792 112.787 89.894 113.363 89.894C113.879 89.894 114.329 89.816 114.713 89.66C115.109 89.504 115.469 89.27 115.793 88.958L117.287 90.578C116.843 91.082 116.285 91.472 115.613 91.748C114.941 92.012 114.167 92.144 113.291 92.144ZM123.099 92.144C122.271 92.144 121.473 92.048 120.705 91.856C119.949 91.652 119.349 91.4 118.905 91.1L119.841 89.084C120.285 89.36 120.807 89.588 121.407 89.768C122.019 89.936 122.619 90.02 123.207 90.02C123.855 90.02 124.311 89.942 124.575 89.786C124.851 89.63 124.989 89.414 124.989 89.138C124.989 88.91 124.881 88.742 124.665 88.634C124.461 88.514 124.185 88.424 123.837 88.364C123.489 88.304 123.105 88.244 122.685 88.184C122.277 88.124 121.863 88.046 121.443 87.95C121.023 87.842 120.639 87.686 120.291 87.482C119.943 87.278 119.661 87.002 119.445 86.654C119.241 86.306 119.139 85.856 119.139 85.304C119.139 84.692 119.313 84.152 119.661 83.684C120.021 83.216 120.537 82.85 121.209 82.586C121.881 82.31 122.685 82.172 123.621 82.172C124.281 82.172 124.953 82.244 125.637 82.388C126.321 82.532 126.891 82.742 127.347 83.018L126.411 85.016C125.943 84.74 125.469 84.554 124.989 84.458C124.521 84.35 124.065 84.296 123.621 84.296C122.997 84.296 122.541 84.38 122.253 84.548C121.965 84.716 121.821 84.932 121.821 85.196C121.821 85.436 121.923 85.616 122.127 85.736C122.343 85.856 122.625 85.952 122.973 86.024C123.321 86.096 123.699 86.162 124.107 86.222C124.527 86.27 124.947 86.348 125.367 86.456C125.787 86.564 126.165 86.72 126.501 86.924C126.849 87.116 127.131 87.386 127.347 87.734C127.563 88.07 127.671 88.514 127.671 89.066C127.671 89.666 127.491 90.2 127.131 90.668C126.771 91.124 126.249 91.484 125.565 91.748C124.893 92.012 124.071 92.144 123.099 92.144ZM132.661 92.144C131.833 92.144 131.035 92.048 130.267 91.856C129.511 91.652 128.911 91.4 128.467 91.1L129.403 89.084C129.847 89.36 130.369 89.588 130.969 89.768C131.581 89.936 132.181 90.02 132.769 90.02C133.417 90.02 133.873 89.942 134.137 89.786C134.413 89.63 134.551 89.414 134.551 89.138C134.551 88.91 134.443 88.742 134.227 88.634C134.023 88.514 133.747 88.424 133.399 88.364C133.051 88.304 132.667 88.244 132.247 88.184C131.839 88.124 131.425 88.046 131.005 87.95C130.585 87.842 130.201 87.686 129.853 87.482C129.505 87.278 129.223 87.002 129.007 86.654C128.803 86.306 128.701 85.856 128.701 85.304C128.701 84.692 128.875 84.152 129.223 83.684C129.583 83.216 130.099 82.85 130.771 82.586C131.443 82.31 132.247 82.172 133.183 82.172C133.843 82.172 134.515 82.244 135.199 82.388C135.883 82.532 136.453 82.742 136.909 83.018L135.973 85.016C135.505 84.74 135.031 84.554 134.551 84.458C134.083 84.35 133.627 84.296 133.183 84.296C132.559 84.296 132.103 84.38 131.815 84.548C131.527 84.716 131.383 84.932 131.383 85.196C131.383 85.436 131.485 85.616 131.689 85.736C131.905 85.856 132.187 85.952 132.535 86.024C132.883 86.096 133.261 86.162 133.669 86.222C134.089 86.27 134.509 86.348 134.929 86.456C135.349 86.564 135.727 86.72 136.063 86.924C136.411 87.116 136.693 87.386 136.909 87.734C137.125 88.07 137.233 88.514 137.233 89.066C137.233 89.666 137.053 90.2 136.693 90.668C136.333 91.124 135.811 91.484 135.127 91.748C134.455 92.012 133.633 92.144 132.661 92.144Z" fill="black"/>
    <path d="M51.9022 126V125.082L57.1402 119.952C57.6202 119.484 57.9802 119.076 58.2202 118.728C58.4602 118.368 58.6222 118.032 58.7062 117.72C58.7902 117.408 58.8322 117.114 58.8322 116.838C58.8322 116.106 58.5802 115.53 58.0762 115.11C57.5842 114.69 56.8522 114.48 55.8802 114.48C55.1362 114.48 54.4762 114.594 53.9002 114.822C53.3362 115.05 52.8502 115.404 52.4422 115.884L51.5242 115.092C52.0162 114.516 52.6462 114.072 53.4142 113.76C54.1822 113.448 55.0402 113.292 55.9882 113.292C56.8402 113.292 57.5782 113.43 58.2022 113.706C58.8262 113.97 59.3062 114.36 59.6422 114.876C59.9902 115.392 60.1642 115.998 60.1642 116.694C60.1642 117.102 60.1042 117.504 59.9842 117.9C59.8762 118.296 59.6722 118.716 59.3722 119.16C59.0842 119.592 58.6582 120.084 58.0942 120.636L53.2882 125.352L52.9282 124.848H60.7402V126H51.9022ZM69.5436 126.108C68.8356 126.108 68.1696 125.952 67.5456 125.64C66.9336 125.328 66.4416 124.884 66.0696 124.308L66.8436 123.408C67.1916 123.912 67.5936 124.296 68.0496 124.56C68.5056 124.824 69.0096 124.956 69.5616 124.956C71.1216 124.956 71.9016 124.032 71.9016 122.184V114.552H67.2936V113.4H73.2156V122.13C73.2156 123.462 72.9036 124.458 72.2796 125.118C71.6676 125.778 70.7556 126.108 69.5436 126.108ZM82.8632 126V123.912L82.8092 123.57V120.078C82.8092 119.274 82.5812 118.656 82.1252 118.224C81.6812 117.792 81.0152 117.576 80.1272 117.576C79.5152 117.576 78.9332 117.678 78.3812 117.882C77.8292 118.086 77.3612 118.356 76.9772 118.692L76.4012 117.738C76.8812 117.33 77.4572 117.018 78.1292 116.802C78.8012 116.574 79.5092 116.46 80.2532 116.46C81.4772 116.46 82.4192 116.766 83.0792 117.378C83.7512 117.978 84.0872 118.896 84.0872 120.132V126H82.8632ZM79.6052 126.09C78.8972 126.09 78.2792 125.976 77.7512 125.748C77.2352 125.508 76.8392 125.184 76.5632 124.776C76.2872 124.356 76.1492 123.876 76.1492 123.336C76.1492 122.844 76.2632 122.4 76.4912 122.004C76.7312 121.596 77.1152 121.272 77.6432 121.032C78.1832 120.78 78.9032 120.654 79.8032 120.654H83.0612V121.608H79.8392C78.9272 121.608 78.2912 121.77 77.9312 122.094C77.5832 122.418 77.4092 122.82 77.4092 123.3C77.4092 123.84 77.6192 124.272 78.0392 124.596C78.4592 124.92 79.0472 125.082 79.8032 125.082C80.5232 125.082 81.1412 124.92 81.6572 124.596C82.1852 124.26 82.5692 123.78 82.8092 123.156L83.0972 124.038C82.8572 124.662 82.4372 125.16 81.8372 125.532C81.2492 125.904 80.5052 126.09 79.6052 126.09ZM92.3824 116.46C93.1504 116.46 93.8224 116.61 94.3984 116.91C94.9864 117.198 95.4424 117.642 95.7664 118.242C96.1024 118.842 96.2704 119.598 96.2704 120.51V126H94.9924V120.636C94.9924 119.64 94.7404 118.89 94.2364 118.386C93.7444 117.87 93.0484 117.612 92.1484 117.612C91.4764 117.612 90.8884 117.75 90.3844 118.026C89.8924 118.29 89.5084 118.68 89.2324 119.196C88.9684 119.7 88.8364 120.312 88.8364 121.032V126H87.5584V112.644H88.8364V119.142L88.5844 118.656C88.8844 117.972 89.3644 117.438 90.0244 117.054C90.6844 116.658 91.4704 116.46 92.3824 116.46ZM99.7224 126V116.55H100.946V119.124L100.82 118.674C101.084 117.954 101.528 117.408 102.152 117.036C102.776 116.652 103.55 116.46 104.474 116.46V117.702C104.426 117.702 104.378 117.702 104.33 117.702C104.282 117.69 104.234 117.684 104.186 117.684C103.19 117.684 102.41 117.99 101.846 118.602C101.282 119.202 101 120.06 101 121.176V126H99.7224ZM110.733 126.09C109.749 126.09 108.885 125.886 108.141 125.478C107.397 125.058 106.815 124.488 106.395 123.768C105.975 123.036 105.765 122.202 105.765 121.266C105.765 120.33 105.963 119.502 106.359 118.782C106.767 118.062 107.319 117.498 108.015 117.09C108.723 116.67 109.515 116.46 110.391 116.46C111.279 116.46 112.065 116.664 112.749 117.072C113.445 117.468 113.991 118.032 114.387 118.764C114.783 119.484 114.981 120.318 114.981 121.266C114.981 121.326 114.975 121.392 114.963 121.464C114.963 121.524 114.963 121.59 114.963 121.662H106.737V120.708H114.279L113.775 121.086C113.775 120.402 113.625 119.796 113.325 119.268C113.037 118.728 112.641 118.308 112.137 118.008C111.633 117.708 111.051 117.558 110.391 117.558C109.743 117.558 109.161 117.708 108.645 118.008C108.129 118.308 107.727 118.728 107.439 119.268C107.151 119.808 107.007 120.426 107.007 121.122V121.32C107.007 122.04 107.163 122.676 107.475 123.228C107.799 123.768 108.243 124.194 108.807 124.506C109.383 124.806 110.037 124.956 110.769 124.956C111.345 124.956 111.879 124.854 112.371 124.65C112.875 124.446 113.307 124.134 113.667 123.714L114.387 124.542C113.967 125.046 113.439 125.43 112.803 125.694C112.179 125.958 111.489 126.09 110.733 126.09Z" fill="black"/>
    <defs>
        <filter id="filter0_d_0_1" x="0.0478516" y="0" width="183.952" height="186" filterUnits="userSpaceOnUse" color-interpolation-filters="sRGB">
            <feFlood flood-opacity="0" result="BackgroundImageFix"/>
            <feColorMatrix in="SourceAlpha" type="matrix" values="0 0 0 0 0 0 0 0 0 0 0 0 0 0 0 0 0 0 127 0" result="hardAlpha"/>
            <feOffset dx="8" dy="7"/>
            <feGaussianBlur stdDeviation="4"/>
            <feComposite in2="hardAlpha" operator="out"/>
            <feColorMatrix type="matrix" values="0 0 0 0 0 0 0 0 0 0 0 0 0 0 0 0 0 0 0.25 0"/>
            <feBlend mode="normal" in2="BackgroundImageFix" result="effect1_dropShadow_0_1"/>
            <feBlend mode="normal" in="SourceGraphic" in2="effect1_dropShadow_0_1" result="shape"/>
        </filter>
    </defs>
</svg>
