<svg width="185" height="186" viewBox="0 0 185 186" fill="none" xmlns="http://www.w3.org/2000/svg">
    <path d="M54.8866 65.3999L50.7646 77.9999H47.6326L44.8606 69.4679L41.9986 77.9999H38.8846L34.7446 65.3999H37.7686L40.6126 74.2559L43.5826 65.3999H46.2826L49.1626 74.3279L52.0966 65.3999H54.8866ZM60.2038 78.1439C59.1838 78.1439 58.2658 77.9339 57.4498 77.5139C56.6458 77.0819 56.0158 76.4879 55.5598 75.7319C55.1038 74.9759 54.8758 74.1179 54.8758 73.1579C54.8758 72.1979 55.1038 71.3399 55.5598 70.5839C56.0158 69.8279 56.6458 69.2399 57.4498 68.8199C58.2658 68.3879 59.1838 68.1719 60.2038 68.1719C61.2238 68.1719 62.1358 68.3879 62.9398 68.8199C63.7438 69.2399 64.3738 69.8279 64.8298 70.5839C65.2858 71.3399 65.5138 72.1979 65.5138 73.1579C65.5138 74.1179 65.2858 74.9759 64.8298 75.7319C64.3738 76.4879 63.7438 77.0819 62.9398 77.5139C62.1358 77.9339 61.2238 78.1439 60.2038 78.1439ZM60.2038 75.8399C60.9238 75.8399 61.5118 75.5999 61.9678 75.1199C62.4358 74.6279 62.6698 73.9739 62.6698 73.1579C62.6698 72.3419 62.4358 71.6939 61.9678 71.2139C61.5118 70.7219 60.9238 70.4759 60.2038 70.4759C59.4838 70.4759 58.8898 70.7219 58.4218 71.2139C57.9538 71.6939 57.7198 72.3419 57.7198 73.1579C57.7198 73.9739 57.9538 74.6279 58.4218 75.1199C58.8898 75.5999 59.4838 75.8399 60.2038 75.8399ZM70.0727 69.5939C70.4087 69.1259 70.8587 68.7719 71.4227 68.5319C71.9987 68.2919 72.6587 68.1719 73.4027 68.1719V70.7639C73.0907 70.7399 72.8807 70.7279 72.7727 70.7279C71.9687 70.7279 71.3387 70.9559 70.8827 71.4119C70.4267 71.8559 70.1987 72.5279 70.1987 73.4279V77.9999H67.3907V68.3159H70.0727V69.5939ZM84.8485 64.6439V77.9999H82.1665V76.8839C81.4705 77.7239 80.4625 78.1439 79.1425 78.1439C78.2305 78.1439 77.4025 77.9399 76.6585 77.5319C75.9265 77.1239 75.3505 76.5419 74.9305 75.7859C74.5105 75.0299 74.3005 74.1539 74.3005 73.1579C74.3005 72.1619 74.5105 71.2859 74.9305 70.5299C75.3505 69.7739 75.9265 69.1919 76.6585 68.7839C77.4025 68.3759 78.2305 68.1719 79.1425 68.1719C80.3785 68.1719 81.3445 68.5619 82.0405 69.3419V64.6439H84.8485ZM79.6285 75.8399C80.3365 75.8399 80.9245 75.5999 81.3925 75.1199C81.8605 74.6279 82.0945 73.9739 82.0945 73.1579C82.0945 72.3419 81.8605 71.6939 81.3925 71.2139C80.9245 70.7219 80.3365 70.4759 79.6285 70.4759C78.9085 70.4759 78.3145 70.7219 77.8465 71.2139C77.3785 71.6939 77.1445 72.3419 77.1445 73.1579C77.1445 73.9739 77.3785 74.6279 77.8465 75.1199C78.3145 75.5999 78.9085 75.8399 79.6285 75.8399ZM93.1714 68.1719C94.0714 68.1719 94.8874 68.3819 95.6194 68.8019C96.3634 69.2099 96.9454 69.7919 97.3654 70.5479C97.7854 71.2919 97.9954 72.1619 97.9954 73.1579C97.9954 74.1539 97.7854 75.0299 97.3654 75.7859C96.9454 76.5299 96.3634 77.1119 95.6194 77.5319C94.8874 77.9399 94.0714 78.1439 93.1714 78.1439C91.9354 78.1439 90.9634 77.7539 90.2554 76.9739V81.4919H87.4474V68.3159H90.1294V69.4319C90.8254 68.5919 91.8394 68.1719 93.1714 68.1719ZM92.6854 75.8399C93.4054 75.8399 93.9934 75.5999 94.4494 75.1199C94.9174 74.6279 95.1514 73.9739 95.1514 73.1579C95.1514 72.3419 94.9174 71.6939 94.4494 71.2139C93.9934 70.7219 93.4054 70.4759 92.6854 70.4759C91.9654 70.4759 91.3714 70.7219 90.9034 71.2139C90.4474 71.6939 90.2194 72.3419 90.2194 73.1579C90.2194 73.9739 90.4474 74.6279 90.9034 75.1199C91.3714 75.5999 91.9654 75.8399 92.6854 75.8399ZM102.557 69.5939C102.893 69.1259 103.343 68.7719 103.907 68.5319C104.483 68.2919 105.143 68.1719 105.887 68.1719V70.7639C105.575 70.7399 105.365 70.7279 105.257 70.7279C104.453 70.7279 103.823 70.9559 103.367 71.4119C102.911 71.8559 102.683 72.5279 102.683 73.4279V77.9999H99.8751V68.3159H102.557V69.5939ZM116.955 73.1939C116.955 73.2299 116.937 73.4819 116.901 73.9499H109.575C109.707 74.5499 110.019 75.0239 110.511 75.3719C111.003 75.7199 111.615 75.8939 112.347 75.8939C112.851 75.8939 113.295 75.8219 113.679 75.6779C114.075 75.5219 114.441 75.2819 114.777 74.9579L116.271 76.5779C115.359 77.6219 114.027 78.1439 112.275 78.1439C111.183 78.1439 110.217 77.9339 109.377 77.5139C108.537 77.0819 107.889 76.4879 107.433 75.7319C106.977 74.9759 106.749 74.1179 106.749 73.1579C106.749 72.2099 106.971 71.3579 107.415 70.6019C107.871 69.8339 108.489 69.2399 109.269 68.8199C110.061 68.3879 110.943 68.1719 111.915 68.1719C112.863 68.1719 113.721 68.3759 114.489 68.7839C115.257 69.1919 115.857 69.7799 116.289 70.5479C116.733 71.3039 116.955 72.1859 116.955 73.1939ZM111.933 70.2959C111.297 70.2959 110.763 70.4759 110.331 70.8359C109.899 71.1959 109.635 71.6879 109.539 72.3119H114.309C114.213 71.6999 113.949 71.2139 113.517 70.8539C113.085 70.4819 112.557 70.2959 111.933 70.2959ZM122.082 78.1439C121.278 78.1439 120.492 78.0479 119.724 77.8559C118.956 77.6519 118.344 77.3999 117.888 77.0999L118.824 75.0839C119.256 75.3599 119.778 75.5879 120.39 75.7679C121.002 75.9359 121.602 76.0199 122.19 76.0199C123.378 76.0199 123.972 75.7259 123.972 75.1379C123.972 74.8619 123.81 74.6639 123.486 74.5439C123.162 74.4239 122.664 74.3219 121.992 74.2379C121.2 74.1179 120.546 73.9799 120.03 73.8239C119.514 73.6679 119.064 73.3919 118.68 72.9959C118.308 72.5999 118.122 72.0359 118.122 71.3039C118.122 70.6919 118.296 70.1519 118.644 69.6839C119.004 69.2039 119.52 68.8319 120.192 68.5679C120.876 68.3039 121.68 68.1719 122.604 68.1719C123.288 68.1719 123.966 68.2499 124.638 68.4059C125.322 68.5499 125.886 68.7539 126.33 69.0179L125.394 71.0159C124.542 70.5359 123.612 70.2959 122.604 70.2959C122.004 70.2959 121.554 70.3799 121.254 70.5479C120.954 70.7159 120.804 70.9319 120.804 71.1959C120.804 71.4959 120.966 71.7059 121.29 71.8259C121.614 71.9459 122.13 72.0599 122.838 72.1679C123.63 72.2999 124.278 72.4439 124.782 72.5999C125.286 72.7439 125.724 73.0139 126.096 73.4099C126.468 73.8059 126.654 74.3579 126.654 75.0659C126.654 75.6659 126.474 76.1999 126.114 76.6679C125.754 77.1359 125.226 77.5019 124.53 77.7659C123.846 78.0179 123.03 78.1439 122.082 78.1439ZM131.645 78.1439C130.841 78.1439 130.055 78.0479 129.287 77.8559C128.519 77.6519 127.907 77.3999 127.451 77.0999L128.387 75.0839C128.819 75.3599 129.341 75.5879 129.953 75.7679C130.565 75.9359 131.165 76.0199 131.753 76.0199C132.941 76.0199 133.535 75.7259 133.535 75.1379C133.535 74.8619 133.373 74.6639 133.049 74.5439C132.725 74.4239 132.227 74.3219 131.555 74.2379C130.763 74.1179 130.109 73.9799 129.593 73.8239C129.077 73.6679 128.627 73.3919 128.243 72.9959C127.871 72.5999 127.685 72.0359 127.685 71.3039C127.685 70.6919 127.859 70.1519 128.207 69.6839C128.567 69.2039 129.083 68.8319 129.755 68.5679C130.439 68.3039 131.243 68.1719 132.167 68.1719C132.851 68.1719 133.529 68.2499 134.201 68.4059C134.885 68.5499 135.449 68.7539 135.893 69.0179L134.957 71.0159C134.105 70.5359 133.175 70.2959 132.167 70.2959C131.567 70.2959 131.117 70.3799 130.817 70.5479C130.517 70.7159 130.367 70.9319 130.367 71.1959C130.367 71.4959 130.529 71.7059 130.853 71.8259C131.177 71.9459 131.693 72.0599 132.401 72.1679C133.193 72.2999 133.841 72.4439 134.345 72.5999C134.849 72.7439 135.287 73.0139 135.659 73.4099C136.031 73.8059 136.217 74.3579 136.217 75.0659C136.217 75.6659 136.037 76.1999 135.677 76.6679C135.317 77.1359 134.789 77.5019 134.093 77.7659C133.409 78.0179 132.593 78.1439 131.645 78.1439Z" fill="black"/>
    <path d="M62.7324 105.848V107H53.8944V106.082L59.1324 100.952C59.7924 100.304 60.2364 99.7459 60.4644 99.2779C60.7044 98.7979 60.8244 98.3179 60.8244 97.8379C60.8244 97.0939 60.5664 96.5179 60.0504 96.1099C59.5464 95.6899 58.8204 95.4799 57.8724 95.4799C56.3964 95.4799 55.2504 95.9479 54.4344 96.8839L53.5164 96.0919C54.0084 95.5159 54.6324 95.0719 55.3884 94.7599C56.1564 94.4479 57.0204 94.2919 57.9804 94.2919C59.2644 94.2919 60.2784 94.5979 61.0224 95.2099C61.7784 95.8099 62.1564 96.6379 62.1564 97.6939C62.1564 98.3419 62.0124 98.9659 61.7244 99.5659C61.4364 100.166 60.8904 100.856 60.0864 101.636L55.8024 105.848H62.7324ZM71.5358 107.108C70.8158 107.108 70.1498 106.952 69.5378 106.64C68.9258 106.328 68.4278 105.884 68.0438 105.308L68.8358 104.408C69.5318 105.44 70.4378 105.956 71.5538 105.956C73.1138 105.956 73.8938 105.032 73.8938 103.184V95.5519H69.2858V94.3999H75.2078V103.13C75.2078 104.45 74.8958 105.446 74.2718 106.118C73.6598 106.778 72.7478 107.108 71.5358 107.108ZM82.2454 97.4599C83.4814 97.4599 84.4294 97.7719 85.0894 98.3959C85.7494 99.0079 86.0794 99.9199 86.0794 101.132V107H84.8554V105.524C84.5674 106.016 84.1414 106.4 83.5774 106.676C83.0254 106.952 82.3654 107.09 81.5974 107.09C80.5414 107.09 79.7014 106.838 79.0774 106.334C78.4534 105.83 78.1414 105.164 78.1414 104.336C78.1414 103.532 78.4294 102.884 79.0054 102.392C79.5934 101.9 80.5234 101.654 81.7954 101.654H84.8014V101.078C84.8014 100.262 84.5734 99.6439 84.1174 99.2239C83.6614 98.7919 82.9954 98.5759 82.1194 98.5759C81.5194 98.5759 80.9434 98.6779 80.3914 98.8819C79.8394 99.0739 79.3654 99.3439 78.9694 99.6919L78.3934 98.7379C78.8734 98.3299 79.4494 98.0179 80.1214 97.8019C80.7934 97.5739 81.5014 97.4599 82.2454 97.4599ZM81.7954 106.082C82.5154 106.082 83.1334 105.92 83.6494 105.596C84.1654 105.26 84.5494 104.78 84.8014 104.156V102.608H81.8314C80.2114 102.608 79.4014 103.172 79.4014 104.3C79.4014 104.852 79.6114 105.29 80.0314 105.614C80.4514 105.926 81.0394 106.082 81.7954 106.082ZM94.3746 97.4599C95.5626 97.4599 96.5046 97.8079 97.2006 98.5039C97.9086 99.1879 98.2626 100.19 98.2626 101.51V107H96.9846V101.636C96.9846 100.652 96.7386 99.9019 96.2466 99.3859C95.7546 98.8699 95.0526 98.6119 94.1406 98.6119C93.1206 98.6119 92.3106 98.9179 91.7106 99.5299C91.1226 100.13 90.8286 100.964 90.8286 102.032V107H89.5506V93.6439H90.8286V99.1879C91.1766 98.6359 91.6566 98.2099 92.2686 97.9099C92.8806 97.6099 93.5826 97.4599 94.3746 97.4599ZM102.956 99.3859C103.256 98.7499 103.7 98.2699 104.288 97.9459C104.888 97.6219 105.626 97.4599 106.502 97.4599V98.7019L106.196 98.6839C105.2 98.6839 104.42 98.9899 103.856 99.6019C103.292 100.214 103.01 101.072 103.01 102.176V107H101.732V97.5319H102.956V99.3859ZM116.972 102.662H109.052C109.124 103.646 109.502 104.444 110.186 105.056C110.87 105.656 111.734 105.956 112.778 105.956C113.366 105.956 113.906 105.854 114.398 105.65C114.89 105.434 115.316 105.122 115.676 104.714L116.396 105.542C115.976 106.046 115.448 106.43 114.812 106.694C114.188 106.958 113.498 107.09 112.742 107.09C111.77 107.09 110.906 106.886 110.15 106.478C109.406 106.058 108.824 105.482 108.404 104.75C107.984 104.018 107.774 103.19 107.774 102.266C107.774 101.342 107.972 100.514 108.368 99.7819C108.776 99.0499 109.328 98.4799 110.024 98.0719C110.732 97.6639 111.524 97.4599 112.4 97.4599C113.276 97.4599 114.062 97.6639 114.758 98.0719C115.454 98.4799 116 99.0499 116.396 99.7819C116.792 100.502 116.99 101.33 116.99 102.266L116.972 102.662ZM112.4 98.5579C111.488 98.5579 110.72 98.8519 110.096 99.4399C109.484 100.016 109.136 100.772 109.052 101.708H115.766C115.682 100.772 115.328 100.016 114.704 99.4399C114.092 98.8519 113.324 98.5579 112.4 98.5579Z" fill="black"/>
    <g filter="url(#filter0_d_0_1)">
        <path d="M2.93433 86C1.31428 86 -0.00427483 84.6859 0.051273 83.0668C0.690107 64.4462 7.39717 46.5209 19.1816 32.0766C31.5837 16.8752 48.842 6.46974 68.0158 2.63325C87.1897 -1.20324 107.093 1.76658 124.334 11.0367C141.575 20.3068 155.088 35.3036 162.569 53.4719C170.05 71.6402 171.037 91.8558 165.362 110.674C159.688 129.493 147.702 145.75 131.447 156.675C115.192 167.6 95.6739 172.518 76.2186 170.591C57.7322 168.759 40.3891 160.855 26.8481 148.143C25.6685 147.035 25.6717 145.177 26.8124 144.03C27.9627 142.873 29.8315 142.877 31.0244 143.991C43.5998 155.725 59.6696 163.021 76.7936 164.718C94.8982 166.511 113.061 161.935 128.187 151.768C143.314 141.601 154.467 126.473 159.748 108.961C165.029 91.4492 164.111 72.6372 157.149 55.7303C150.187 38.8234 137.613 24.8678 121.568 16.2413C105.524 7.61478 87.0031 4.85115 69.1604 8.42128C51.3177 11.9914 35.2576 21.6744 23.7166 35.8204C12.7933 49.2093 6.55791 65.8121 5.92173 83.0669C5.86204 84.6859 4.55438 86 2.93433 86Z" fill="#005C7E"/>
    </g>
    <defs>
        <filter id="filter0_d_0_1" x="0.0498047" y="-0.000133514" width="184.951" height="186" filterUnits="userSpaceOnUse" color-interpolation-filters="sRGB">
            <feFlood flood-opacity="0" result="BackgroundImageFix"/>
            <feColorMatrix in="SourceAlpha" type="matrix" values="0 0 0 0 0 0 0 0 0 0 0 0 0 0 0 0 0 0 127 0" result="hardAlpha"/>
            <feOffset dx="8" dy="7"/>
            <feGaussianBlur stdDeviation="4"/>
            <feComposite in2="hardAlpha" operator="out"/>
            <feColorMatrix type="matrix" values="0 0 0 0 0 0 0 0 0 0 0 0 0 0 0 0 0 0 0.25 0"/>
            <feBlend mode="normal" in2="BackgroundImageFix" result="effect1_dropShadow_0_1"/>
            <feBlend mode="normal" in="SourceGraphic" in2="effect1_dropShadow_0_1" result="shape"/>
        </filter>
    </defs>
</svg>
