<svg width="185" height="180" viewBox="0 0 185 180" fill="none" xmlns="http://www.w3.org/2000/svg">
    <path d="M50.2178 80.2999H44.3678L43.2518 82.9999H40.2638L45.8798 70.3999H48.7598L54.3938 82.9999H51.3338L50.2178 80.2999ZM49.2998 78.0859L47.3018 73.2619L45.3038 78.0859H49.2998ZM65.2791 69.6439V82.9999H62.5971V81.8839C61.9011 82.7239 60.8931 83.1439 59.5731 83.1439C58.6611 83.1439 57.8331 82.9399 57.0891 82.5319C56.3571 82.1239 55.7811 81.5419 55.3611 80.7859C54.9411 80.0299 54.7311 79.1539 54.7311 78.1579C54.7311 77.1619 54.9411 76.2859 55.3611 75.5299C55.7811 74.7739 56.3571 74.1919 57.0891 73.7839C57.8331 73.3759 58.6611 73.1719 59.5731 73.1719C60.8091 73.1719 61.7751 73.5619 62.4711 74.3419V69.6439H65.2791ZM60.0591 80.8399C60.7671 80.8399 61.3551 80.5999 61.8231 80.1199C62.2911 79.6279 62.5251 78.9739 62.5251 78.1579C62.5251 77.3419 62.2911 76.6939 61.8231 76.2139C61.3551 75.7219 60.7671 75.4759 60.0591 75.4759C59.3391 75.4759 58.7451 75.7219 58.2771 76.2139C57.8091 76.6939 57.5751 77.3419 57.5751 78.1579C57.5751 78.9739 57.8091 79.6279 58.2771 80.1199C58.7451 80.5999 59.3391 80.8399 60.0591 80.8399ZM72.486 83.1439C71.466 83.1439 70.548 82.9339 69.732 82.5139C68.928 82.0819 68.298 81.4879 67.842 80.7319C67.386 79.9759 67.158 79.1179 67.158 78.1579C67.158 77.1979 67.386 76.3399 67.842 75.5839C68.298 74.8279 68.928 74.2399 69.732 73.8199C70.548 73.3879 71.466 73.1719 72.486 73.1719C73.506 73.1719 74.418 73.3879 75.222 73.8199C76.026 74.2399 76.656 74.8279 77.112 75.5839C77.568 76.3399 77.796 77.1979 77.796 78.1579C77.796 79.1179 77.568 79.9759 77.112 80.7319C76.656 81.4879 76.026 82.0819 75.222 82.5139C74.418 82.9339 73.506 83.1439 72.486 83.1439ZM72.486 80.8399C73.206 80.8399 73.794 80.5999 74.25 80.1199C74.718 79.6279 74.952 78.9739 74.952 78.1579C74.952 77.3419 74.718 76.6939 74.25 76.2139C73.794 75.7219 73.206 75.4759 72.486 75.4759C71.766 75.4759 71.172 75.7219 70.704 76.2139C70.236 76.6939 70.002 77.3419 70.002 78.1579C70.002 78.9739 70.236 79.6279 70.704 80.1199C71.172 80.5999 71.766 80.8399 72.486 80.8399ZM85.397 73.1719C86.297 73.1719 87.113 73.3819 87.845 73.8019C88.589 74.2099 89.171 74.7919 89.591 75.5479C90.011 76.2919 90.221 77.1619 90.221 78.1579C90.221 79.1539 90.011 80.0299 89.591 80.7859C89.171 81.5299 88.589 82.1119 87.845 82.5319C87.113 82.9399 86.297 83.1439 85.397 83.1439C84.065 83.1439 83.051 82.7239 82.355 81.8839V82.9999H79.673V69.6439H82.481V74.3419C83.189 73.5619 84.161 73.1719 85.397 73.1719ZM84.911 80.8399C85.631 80.8399 86.219 80.5999 86.675 80.1199C87.143 79.6279 87.377 78.9739 87.377 78.1579C87.377 77.3419 87.143 76.6939 86.675 76.2139C86.219 75.7219 85.631 75.4759 84.911 75.4759C84.191 75.4759 83.597 75.7219 83.129 76.2139C82.673 76.6939 82.445 77.3419 82.445 78.1579C82.445 78.9739 82.673 79.6279 83.129 80.1199C83.597 80.5999 84.191 80.8399 84.911 80.8399ZM101.587 78.1939C101.587 78.2299 101.569 78.4819 101.533 78.9499H94.2067C94.3387 79.5499 94.6507 80.0239 95.1427 80.3719C95.6347 80.7199 96.2467 80.8939 96.9787 80.8939C97.4827 80.8939 97.9267 80.8219 98.3107 80.6779C98.7067 80.5219 99.0727 80.2819 99.4087 79.9579L100.903 81.5779C99.9907 82.6219 98.6587 83.1439 96.9067 83.1439C95.8147 83.1439 94.8487 82.9339 94.0087 82.5139C93.1687 82.0819 92.5207 81.4879 92.0647 80.7319C91.6087 79.9759 91.3807 79.1179 91.3807 78.1579C91.3807 77.2099 91.6027 76.3579 92.0467 75.6019C92.5027 74.8339 93.1207 74.2399 93.9007 73.8199C94.6927 73.3879 95.5747 73.1719 96.5467 73.1719C97.4947 73.1719 98.3527 73.3759 99.1207 73.7839C99.8887 74.1919 100.489 74.7799 100.921 75.5479C101.365 76.3039 101.587 77.1859 101.587 78.1939ZM96.5647 75.2959C95.9287 75.2959 95.3947 75.4759 94.9627 75.8359C94.5307 76.1959 94.2667 76.6879 94.1707 77.3119H98.9407C98.8447 76.6999 98.5807 76.2139 98.1487 75.8539C97.7167 75.4819 97.1887 75.2959 96.5647 75.2959ZM116.69 82.9999L113.648 78.6259L110.66 82.9999H107.312L111.974 76.5919L107.546 70.3999H110.858L113.756 74.4859L116.6 70.3999H119.75L115.358 76.4839L120.056 82.9999H116.69ZM121.197 70.3999H126.921C128.289 70.3999 129.495 70.6639 130.539 71.1919C131.595 71.7079 132.411 72.4399 132.987 73.3879C133.575 74.3359 133.869 75.4399 133.869 76.6999C133.869 77.9599 133.575 79.0639 132.987 80.0119C132.411 80.9599 131.595 81.6979 130.539 82.2259C129.495 82.7419 128.289 82.9999 126.921 82.9999H121.197V70.3999ZM126.777 80.6059C128.037 80.6059 129.039 80.2579 129.783 79.5619C130.539 78.8539 130.917 77.8999 130.917 76.6999C130.917 75.4999 130.539 74.5519 129.783 73.8559C129.039 73.1479 128.037 72.7939 126.777 72.7939H124.113V80.6059H126.777Z" fill="black"/>
    <path d="M66.8001 99.3999V112H65.5041V100.552H62.5341V99.3999H66.8001ZM76.9889 112.108C76.2689 112.108 75.6029 111.952 74.9909 111.64C74.3789 111.328 73.8809 110.884 73.4969 110.308L74.2889 109.408C74.9849 110.44 75.8909 110.956 77.0069 110.956C78.5669 110.956 79.3469 110.032 79.3469 108.184V100.552H74.7389V99.3999H80.6609V108.13C80.6609 109.45 80.3489 110.446 79.7249 111.118C79.1129 111.778 78.2009 112.108 76.9889 112.108ZM87.6985 102.46C88.9345 102.46 89.8825 102.772 90.5425 103.396C91.2025 104.008 91.5325 104.92 91.5325 106.132V112H90.3085V110.524C90.0205 111.016 89.5945 111.4 89.0305 111.676C88.4785 111.952 87.8185 112.09 87.0505 112.09C85.9945 112.09 85.1545 111.838 84.5305 111.334C83.9065 110.83 83.5945 110.164 83.5945 109.336C83.5945 108.532 83.8825 107.884 84.4585 107.392C85.0465 106.9 85.9765 106.654 87.2485 106.654H90.2545V106.078C90.2545 105.262 90.0265 104.644 89.5705 104.224C89.1145 103.792 88.4485 103.576 87.5725 103.576C86.9725 103.576 86.3965 103.678 85.8445 103.882C85.2925 104.074 84.8185 104.344 84.4225 104.692L83.8465 103.738C84.3265 103.33 84.9025 103.018 85.5745 102.802C86.2465 102.574 86.9545 102.46 87.6985 102.46ZM87.2485 111.082C87.9685 111.082 88.5865 110.92 89.1025 110.596C89.6185 110.26 90.0025 109.78 90.2545 109.156V107.608H87.2845C85.6645 107.608 84.8545 108.172 84.8545 109.3C84.8545 109.852 85.0645 110.29 85.4845 110.614C85.9045 110.926 86.4925 111.082 87.2485 111.082ZM99.8277 102.46C101.016 102.46 101.958 102.808 102.654 103.504C103.362 104.188 103.716 105.19 103.716 106.51V112H102.438V106.636C102.438 105.652 102.192 104.902 101.7 104.386C101.208 103.87 100.506 103.612 99.5937 103.612C98.5737 103.612 97.7637 103.918 97.1637 104.53C96.5757 105.13 96.2817 105.964 96.2817 107.032V112H95.0037V98.6439H96.2817V104.188C96.6297 103.636 97.1097 103.21 97.7217 102.91C98.3337 102.61 99.0357 102.46 99.8277 102.46ZM108.409 104.386C108.709 103.75 109.153 103.27 109.741 102.946C110.341 102.622 111.079 102.46 111.955 102.46V103.702L111.649 103.684C110.653 103.684 109.873 103.99 109.309 104.602C108.745 105.214 108.463 106.072 108.463 107.176V112H107.185V102.532H108.409V104.386Z" fill="black"/>
    <g filter="url(#filter0_d_0_1)">
        <path d="M2.93335 85C1.31331 85 -0.0053817 83.6862 0.0515068 82.0672C0.560794 67.5729 4.83801 53.4381 12.489 41.0501C20.6551 27.8278 32.3456 17.1123 46.2641 10.0916C60.1826 3.07095 75.7851 0.0195597 91.3417 1.27579C106.898 2.53201 121.801 8.04677 134.397 17.2085C146.993 26.3703 156.79 38.8211 162.703 53.1802C168.615 67.5393 170.411 83.2457 167.892 98.5577C165.373 113.87 158.637 128.189 148.431 139.928C138.86 150.936 126.588 159.272 112.83 164.139C111.314 164.675 109.677 163.823 109.188 162.291C108.696 160.753 109.551 159.113 111.072 158.57C123.79 154.03 135.134 146.302 143.992 136.114C153.49 125.19 159.758 111.865 162.102 97.6164C164.447 83.3675 162.775 68.7516 157.273 55.3894C151.771 42.0272 142.654 30.4409 130.933 21.9152C119.211 13.3895 105.343 8.25764 90.8667 7.08863C76.3902 5.91962 61.8709 8.75916 48.9188 15.2924C35.9666 21.8256 25.0878 31.7972 17.4886 44.1015C10.4047 55.5714 6.42871 68.6505 5.92206 82.0672C5.86093 83.6861 4.5534 85 2.93335 85Z" fill="#005C7E"/>
    </g>
    <defs>
        <filter id="filter0_d_0_1" x="0.0498047" y="-3.43323e-05" width="184.95" height="179.299" filterUnits="userSpaceOnUse" color-interpolation-filters="sRGB">
            <feFlood flood-opacity="0" result="BackgroundImageFix"/>
            <feColorMatrix in="SourceAlpha" type="matrix" values="0 0 0 0 0 0 0 0 0 0 0 0 0 0 0 0 0 0 127 0" result="hardAlpha"/>
            <feOffset dx="8" dy="7"/>
            <feGaussianBlur stdDeviation="4"/>
            <feComposite in2="hardAlpha" operator="out"/>
            <feColorMatrix type="matrix" values="0 0 0 0 0 0 0 0 0 0 0 0 0 0 0 0 0 0 0.25 0"/>
            <feBlend mode="normal" in2="BackgroundImageFix" result="effect1_dropShadow_0_1"/>
            <feBlend mode="normal" in="SourceGraphic" in2="effect1_dropShadow_0_1" result="shape"/>
        </filter>
    </defs>
</svg>
