<svg width="1920" height="679" viewBox="0 0 1920 679" fill="none" xmlns="http://www.w3.org/2000/svg">
    <circle cx="1763.52" cy="3.52358" r="3.52358" fill="#005C7E"/>
    <circle cx="1824.57" cy="3.52358" r="3.52358" fill="#005C7E"/>
    <circle cx="1885.62" cy="3.52358" r="3.52358" fill="#005C7E"/>
    <circle cx="1763.52" cy="55.2028" r="3.52358" fill="#005C7E"/>
    <circle cx="1824.57" cy="55.2028" r="3.52358" fill="#005C7E"/>
    <circle cx="1885.62" cy="55.2028" r="3.52358" fill="#005C7E"/>
    <circle cx="1763.52" cy="106.882" r="3.52358" fill="#005C7E"/>
    <circle cx="1824.57" cy="106.882" r="3.52358" fill="#005C7E"/>
    <circle cx="1885.62" cy="106.882" r="3.52358" fill="#005C7E"/>
    <circle cx="1763.52" cy="158.561" r="3.52358" fill="#005C7E"/>
    <circle cx="1824.57" cy="158.561" r="3.52358" fill="#005C7E"/>
    <circle cx="1885.62" cy="158.561" r="3.52358" fill="#005C7E"/>
    <circle cx="1763.52" cy="210.24" r="3.52358" fill="#005C7E"/>
    <circle cx="1824.57" cy="210.24" r="3.52358" fill="#005C7E"/>
    <circle cx="1885.62" cy="210.24" r="3.52358" fill="#005C7E"/>
    <circle cx="1763.52" cy="261.92" r="3.52358" fill="#005C7E"/>
    <circle cx="1824.57" cy="261.92" r="3.52358" fill="#005C7E"/>
    <circle cx="1885.62" cy="261.92" r="3.52358" fill="#005C7E"/>
    <circle cx="1763.52" cy="313.599" r="3.52358" fill="#005C7E"/>
    <circle cx="1824.57" cy="313.599" r="3.52358" fill="#005C7E"/>
    <circle cx="1885.62" cy="313.599" r="3.52358" fill="#005C7E"/>
    <circle cx="1763.52" cy="365.278" r="3.52358" fill="#005C7E"/>
    <circle cx="1824.57" cy="365.278" r="3.52358" fill="#005C7E"/>
    <circle cx="1885.62" cy="365.278" r="3.52358" fill="#005C7E"/>
    <circle cx="1763.52" cy="416.957" r="3.52358" fill="#005C7E"/>
    <circle cx="1824.57" cy="416.957" r="3.52358" fill="#005C7E"/>
    <circle cx="1885.62" cy="416.957" r="3.52358" fill="#005C7E"/>
    <circle cx="1763.52" cy="468.636" r="3.52358" fill="#005C7E"/>
    <circle cx="1824.57" cy="468.636" r="3.52358" fill="#005C7E"/>
    <circle cx="1885.62" cy="468.636" r="3.52358" fill="#005C7E"/>
    <circle cx="195.637" cy="430.524" r="3.52358" transform="rotate(90 195.637 430.524)" fill="#005C7E"/>
    <circle cx="195.637" cy="491.57" r="3.52358" transform="rotate(90 195.637 491.57)" fill="#005C7E"/>
    <circle cx="195.637" cy="552.617" r="3.52358" transform="rotate(90 195.637 552.617)" fill="#005C7E"/>
    <circle cx="195.637" cy="613.664" r="3.52358" transform="rotate(90 195.637 613.664)" fill="#005C7E"/>
    <circle cx="195.637" cy="674.711" r="3.52358" transform="rotate(90 195.637 674.711)" fill="#005C7E"/>
    <circle cx="143.957" cy="430.524" r="3.52358" transform="rotate(90 143.957 430.524)" fill="#005C7E"/>
    <circle cx="143.957" cy="491.57" r="3.52358" transform="rotate(90 143.957 491.57)" fill="#005C7E"/>
    <circle cx="143.957" cy="552.617" r="3.52358" transform="rotate(90 143.957 552.617)" fill="#005C7E"/>
    <circle cx="143.957" cy="613.664" r="3.52358" transform="rotate(90 143.957 613.664)" fill="#005C7E"/>
    <circle cx="143.957" cy="674.711" r="3.52358" transform="rotate(90 143.957 674.711)" fill="#005C7E"/>
    <circle cx="92.2782" cy="430.524" r="3.52358" transform="rotate(90 92.2782 430.524)" fill="#005C7E"/>
    <circle cx="92.2782" cy="491.57" r="3.52358" transform="rotate(90 92.2782 491.57)" fill="#005C7E"/>
    <circle cx="92.2782" cy="552.617" r="3.52358" transform="rotate(90 92.2782 552.617)" fill="#005C7E"/>
    <circle cx="92.2782" cy="613.664" r="3.52358" transform="rotate(90 92.2782 613.664)" fill="#005C7E"/>
    <circle cx="92.2782" cy="674.711" r="3.52358" transform="rotate(90 92.2782 674.711)" fill="#005C7E"/>
    <circle cx="40.5995" cy="430.524" r="3.52358" transform="rotate(90 40.5995 430.524)" fill="#005C7E"/>
    <circle cx="40.5985" cy="491.57" r="3.52358" transform="rotate(90 40.5985 491.57)" fill="#005C7E"/>
    <circle cx="40.5985" cy="552.617" r="3.52358" transform="rotate(90 40.5985 552.617)" fill="#005C7E"/>
    <circle cx="40.5985" cy="613.664" r="3.52358" transform="rotate(90 40.5985 613.664)" fill="#005C7E"/>
    <circle cx="40.5985" cy="674.711" r="3.52358" transform="rotate(90 40.5985 674.711)" fill="#005C7E"/>
</svg>
