<svg width="1817" height="1550" viewBox="0 0 1817 1550" fill="none" xmlns="http://www.w3.org/2000/svg">
<circle cx="468.637" cy="1005.52" r="3.52358" transform="rotate(90 468.637 1005.52)" fill="white"/>
<circle cx="468.637" cy="1066.57" r="3.52358" transform="rotate(90 468.637 1066.57)" fill="white"/>
<circle cx="468.637" cy="1127.62" r="3.52358" transform="rotate(90 468.637 1127.62)" fill="white"/>
<circle cx="468.637" cy="1188.66" r="3.52358" transform="rotate(90 468.637 1188.66)" fill="white"/>
<circle cx="468.637" cy="1249.71" r="3.52358" transform="rotate(90 468.637 1249.71)" fill="white"/>
<circle cx="416.957" cy="1005.52" r="3.52358" transform="rotate(90 416.957 1005.52)" fill="white"/>
<circle cx="416.958" cy="1066.57" r="3.52358" transform="rotate(90 416.958 1066.57)" fill="white"/>
<circle cx="416.958" cy="1127.62" r="3.52358" transform="rotate(90 416.958 1127.62)" fill="white"/>
<circle cx="416.958" cy="1188.66" r="3.52358" transform="rotate(90 416.958 1188.66)" fill="white"/>
<circle cx="416.958" cy="1249.71" r="3.52358" transform="rotate(90 416.958 1249.71)" fill="white"/>
<circle cx="365.278" cy="1005.52" r="3.52358" transform="rotate(90 365.278 1005.52)" fill="white"/>
<circle cx="365.278" cy="1066.57" r="3.52358" transform="rotate(90 365.278 1066.57)" fill="white"/>
<circle cx="365.278" cy="1127.62" r="3.52358" transform="rotate(90 365.278 1127.62)" fill="white"/>
<circle cx="365.278" cy="1188.66" r="3.52358" transform="rotate(90 365.278 1188.66)" fill="white"/>
<circle cx="365.278" cy="1249.71" r="3.52358" transform="rotate(90 365.278 1249.71)" fill="white"/>
<circle cx="313.599" cy="1005.52" r="3.52358" transform="rotate(90 313.599 1005.52)" fill="white"/>
<circle cx="313.599" cy="1066.57" r="3.52358" transform="rotate(90 313.599 1066.57)" fill="white"/>
<circle cx="313.599" cy="1127.62" r="3.52358" transform="rotate(90 313.599 1127.62)" fill="white"/>
<circle cx="313.599" cy="1188.66" r="3.52358" transform="rotate(90 313.599 1188.66)" fill="white"/>
<circle cx="313.599" cy="1249.71" r="3.52358" transform="rotate(90 313.599 1249.71)" fill="white"/>
<circle cx="261.92" cy="1005.52" r="3.52358" transform="rotate(90 261.92 1005.52)" fill="white"/>
<circle cx="261.92" cy="1066.57" r="3.52358" transform="rotate(90 261.92 1066.57)" fill="white"/>
<circle cx="261.92" cy="1127.62" r="3.52358" transform="rotate(90 261.92 1127.62)" fill="white"/>
<circle cx="261.92" cy="1188.66" r="3.52358" transform="rotate(90 261.92 1188.66)" fill="white"/>
<circle cx="261.92" cy="1249.71" r="3.52358" transform="rotate(90 261.92 1249.71)" fill="white"/>
<circle cx="210.24" cy="1005.52" r="3.52358" transform="rotate(90 210.24 1005.52)" fill="white"/>
<circle cx="210.241" cy="1066.57" r="3.52358" transform="rotate(90 210.241 1066.57)" fill="white"/>
<circle cx="210.241" cy="1127.62" r="3.52358" transform="rotate(90 210.241 1127.62)" fill="white"/>
<circle cx="210.241" cy="1188.66" r="3.52358" transform="rotate(90 210.241 1188.66)" fill="white"/>
<circle cx="210.241" cy="1249.71" r="3.52358" transform="rotate(90 210.241 1249.71)" fill="white"/>
<circle cx="158.561" cy="1005.52" r="3.52358" transform="rotate(90 158.561 1005.52)" fill="white"/>
<circle cx="158.561" cy="1066.57" r="3.52358" transform="rotate(90 158.561 1066.57)" fill="white"/>
<circle cx="158.561" cy="1127.62" r="3.52358" transform="rotate(90 158.561 1127.62)" fill="white"/>
<circle cx="158.523" cy="1188.52" r="3.52358" transform="rotate(90 158.523 1188.52)" fill="white"/>
<circle cx="158.561" cy="1249.71" r="3.52358" transform="rotate(90 158.561 1249.71)" fill="white"/>
<circle cx="106.883" cy="1005.52" r="3.52358" transform="rotate(90 106.883 1005.52)" fill="white"/>
<circle cx="106.883" cy="1066.57" r="3.52358" transform="rotate(90 106.883 1066.57)" fill="white"/>
<circle cx="106.883" cy="1127.62" r="3.52358" transform="rotate(90 106.883 1127.62)" fill="white"/>
<circle cx="106.883" cy="1188.66" r="3.52358" transform="rotate(90 106.883 1188.66)" fill="white"/>
<circle cx="106.883" cy="1249.71" r="3.52358" transform="rotate(90 106.883 1249.71)" fill="white"/>
<circle cx="55.203" cy="1005.52" r="3.52358" transform="rotate(90 55.203 1005.52)" fill="white"/>
<circle cx="55.203" cy="1066.57" r="3.52358" transform="rotate(90 55.203 1066.57)" fill="white"/>
<circle cx="55.203" cy="1127.62" r="3.52358" transform="rotate(90 55.203 1127.62)" fill="white"/>
<circle cx="55.203" cy="1188.66" r="3.52358" transform="rotate(90 55.203 1188.66)" fill="white"/>
<circle cx="55.203" cy="1249.71" r="3.52358" transform="rotate(90 55.203 1249.71)" fill="white"/>
<circle cx="3.52329" cy="1005.52" r="3.52358" transform="rotate(90 3.52329 1005.52)" fill="white"/>
<circle cx="3.52427" cy="1066.57" r="3.52358" transform="rotate(90 3.52427 1066.57)" fill="white"/>
<circle cx="3.52427" cy="1127.62" r="3.52358" transform="rotate(90 3.52427 1127.62)" fill="white"/>
<circle cx="3.52427" cy="1188.66" r="3.52358" transform="rotate(90 3.52427 1188.66)" fill="white"/>
<circle cx="3.52427" cy="1249.71" r="3.52358" transform="rotate(90 3.52427 1249.71)" fill="white"/>
<circle cx="1483.52" cy="354.24" r="3.52358" transform="rotate(-90 1483.52 354.24)" fill="white"/>
<circle cx="1483.52" cy="302.561" r="3.52358" transform="rotate(-90 1483.52 302.561)" fill="white"/>
<circle cx="1483.52" cy="250.882" r="3.52358" transform="rotate(-90 1483.52 250.882)" fill="white"/>
<circle cx="1483.52" cy="199.203" r="3.52358" transform="rotate(-90 1483.52 199.203)" fill="white"/>
<circle cx="1483.52" cy="147.524" r="3.52358" transform="rotate(-90 1483.52 147.524)" fill="white"/>
<circle cx="1535.2" cy="354.24" r="3.52358" transform="rotate(-90 1535.2 354.24)" fill="white"/>
<circle cx="1535.2" cy="302.561" r="3.52358" transform="rotate(-90 1535.2 302.561)" fill="white"/>
<circle cx="1535.2" cy="250.882" r="3.52358" transform="rotate(-90 1535.2 250.882)" fill="white"/>
<circle cx="1535.2" cy="199.203" r="3.52358" transform="rotate(-90 1535.2 199.203)" fill="white"/>
<circle cx="1535.2" cy="147.524" r="3.52358" transform="rotate(-90 1535.2 147.524)" fill="white"/>
<circle cx="1586.88" cy="354.24" r="3.52358" transform="rotate(-90 1586.88 354.24)" fill="white"/>
<circle cx="1586.88" cy="302.561" r="3.52358" transform="rotate(-90 1586.88 302.561)" fill="white"/>
<circle cx="1586.88" cy="250.882" r="3.52358" transform="rotate(-90 1586.88 250.882)" fill="white"/>
<circle cx="1586.88" cy="199.203" r="3.52358" transform="rotate(-90 1586.88 199.203)" fill="white"/>
<circle cx="1586.88" cy="147.524" r="3.52358" transform="rotate(-90 1586.88 147.524)" fill="white"/>
<circle cx="1638.56" cy="354.24" r="3.52358" transform="rotate(-90 1638.56 354.24)" fill="white"/>
<circle cx="1638.56" cy="302.561" r="3.52358" transform="rotate(-90 1638.56 302.561)" fill="white"/>
<circle cx="1638.56" cy="250.882" r="3.52358" transform="rotate(-90 1638.56 250.882)" fill="white"/>
<circle cx="1638.56" cy="199.203" r="3.52358" transform="rotate(-90 1638.56 199.203)" fill="white"/>
<circle cx="1638.56" cy="147.524" r="3.52358" transform="rotate(-90 1638.56 147.524)" fill="white"/>
<circle cx="1690.24" cy="354.24" r="3.52358" transform="rotate(-90 1690.24 354.24)" fill="white"/>
<circle cx="1690.24" cy="302.561" r="3.52358" transform="rotate(-90 1690.24 302.561)" fill="white"/>
<circle cx="1690.24" cy="250.882" r="3.52358" transform="rotate(-90 1690.24 250.882)" fill="white"/>
<circle cx="1690.24" cy="199.203" r="3.52358" transform="rotate(-90 1690.24 199.203)" fill="white"/>
<circle cx="1690.24" cy="147.524" r="3.52358" transform="rotate(-90 1690.24 147.524)" fill="white"/>
<circle cx="1741.92" cy="354.24" r="3.52358" transform="rotate(-90 1741.92 354.24)" fill="white"/>
<circle cx="1741.92" cy="302.561" r="3.52358" transform="rotate(-90 1741.92 302.561)" fill="white"/>
<circle cx="1741.92" cy="250.882" r="3.52358" transform="rotate(-90 1741.92 250.882)" fill="white"/>
<circle cx="1741.92" cy="199.203" r="3.52358" transform="rotate(-90 1741.92 199.203)" fill="white"/>
<circle cx="1741.92" cy="147.524" r="3.52358" transform="rotate(-90 1741.92 147.524)" fill="white"/>
<circle cx="1793.6" cy="354.24" r="3.52358" transform="rotate(-90 1793.6 354.24)" fill="white"/>
<circle cx="1793.6" cy="302.561" r="3.52358" transform="rotate(-90 1793.6 302.561)" fill="white"/>
<circle cx="1793.6" cy="250.882" r="3.52358" transform="rotate(-90 1793.6 250.882)" fill="white"/>
<circle cx="1793.6" cy="199.203" r="3.52358" transform="rotate(-90 1793.6 199.203)" fill="white"/>
<circle cx="1793.6" cy="147.524" r="3.52358" transform="rotate(-90 1793.6 147.524)" fill="white"/>
<circle cx="271.5" cy="624.5" r="198" stroke="white" stroke-width="5"/>
<circle cx="1426" cy="839" r="128.5" stroke="white" stroke-width="5"/>
<circle cx="83.5" cy="551.5" r="30" stroke="white" stroke-width="5"/>
<circle cx="193.5" cy="111.5" r="109" stroke="white" stroke-width="5"/>
</svg>
